<svg width="512" height="512" viewBox="0 0 512 512" fill="none" xmlns="http://www.w3.org/2000/svg">
<rect width="512" height="512" rx="128" fill="#FABD2F"/>
<path d="M256 63C285.762 63 314.325 74.6382 335.603 95.3945L336.61 96.3896C357.99 117.769 370 146.765 370 177V202.032C393.644 208.59 411 230.268 411 256V384C411 414.928 385.928 440 355 440H157C126.072 440 101 414.928 101 384V256C101 230.268 118.356 208.59 142 202.032V177C142 146.765 154.011 117.769 175.39 96.3896C196.769 75.0105 225.765 63 256 63ZM256 256C235.013 256 218 272.789 218 293.5C218 305.311 223.535 315.845 232.184 322.719C233.715 324.423 234.733 326.597 234.995 329H235V363L235.007 363.542C235.294 374.889 244.583 384 256 384C267.598 384 277 374.598 277 363V329H277.005C277.267 326.598 278.284 324.423 279.815 322.719C288.464 315.845 294 305.312 294 293.5C294 272.789 276.987 256 256 256ZM256 108.999C237.965 108.999 220.669 116.163 207.916 128.916C195.363 141.469 188.224 158.426 188.004 176.155L187.999 177H188V200H324V177H324.001C324.001 158.965 316.837 141.669 304.084 128.916L303.482 128.322C290.79 115.941 273.753 108.999 256 108.999Z" fill="#282828"/>
</svg>
