<svg width="1329" height="462" viewBox="0 0 1329 462" fill="none" xmlns="http://www.w3.org/2000/svg">
<path d="M285 14.2749C337.467 14.275 380 56.8079 380 109.275V299.275C380 351.742 337.467 394.275 285 394.275H95C42.533 394.275 0.000129577 351.742 0 299.275V109.275C0 56.8079 42.533 14.2749 95 14.2749H285ZM190 61.0327C167.56 61.0327 146.039 69.9467 130.172 85.814C114.305 101.681 105.391 123.202 105.391 145.642V166.423H110.875C89.8695 174.497 74.961 194.864 74.9609 218.712V284.837C74.9611 315.765 100.033 340.837 130.961 340.837H249.039C279.967 340.837 305.039 315.765 305.039 284.837V218.712C305.039 194.864 290.13 174.497 269.125 166.423H274.609V145.642C274.609 123.202 265.695 101.681 249.828 85.814L249.08 85.0757C233.288 69.6706 212.089 61.0327 190 61.0327ZM190 204.275C205.576 204.275 218.203 216.736 218.203 232.107C218.203 240.87 214.097 248.685 207.683 253.787C206.543 255.053 205.784 256.668 205.59 258.455H205.586V283.689L205.581 284.091C205.367 292.513 198.473 299.275 190 299.275C181.527 299.275 174.633 292.513 174.419 284.091L174.414 283.689V258.455H174.41C174.216 256.668 173.456 255.053 172.316 253.787C165.902 248.685 161.797 240.87 161.797 232.107C161.797 216.736 174.424 204.275 190 204.275ZM190 95.1724C203.176 95.1724 215.821 100.325 225.241 109.514L225.688 109.955C235.152 119.419 240.47 132.257 240.47 145.642H240.469V162.712H139.531V145.642H139.53L139.534 145.015C139.697 131.857 144.996 119.272 154.312 109.955C163.777 100.49 176.615 95.1724 190 95.1724Z" fill="#FABD2F"/>
<mask id="path-2-outside-1_6_340" maskUnits="userSpaceOnUse" x="494.508" y="63" width="812" height="299" fill="black">
<rect fill="white" x="494.508" y="63" width="812" height="299"/>
<path d="M518.124 353.92C513.26 353.92 509.164 352.256 505.836 348.928C502.508 345.6 500.844 341.504 500.844 336.64V87.424C500.844 82.56 502.508 78.464 505.836 75.136C509.164 71.552 513.26 69.76 518.124 69.76C522.988 69.76 527.084 71.552 530.412 75.136C533.996 78.464 535.788 82.56 535.788 87.424V244.48L627.18 160C628.716 158.72 630.38 157.568 632.172 156.544C634.22 155.52 636.396 155.008 638.7 155.008C645.356 155.008 649.836 156.928 652.14 160.768C654.444 164.352 655.596 168.064 655.596 171.904C655.596 173.44 655.212 175.36 654.444 177.664C653.676 179.712 651.884 182.144 649.068 184.96L593.772 234.496L663.276 326.656C665.836 329.984 667.116 333.44 667.116 337.024C667.116 342.144 665.452 346.24 662.124 349.312C658.796 352.384 654.572 353.92 649.452 353.92C644.076 353.92 639.34 351.488 635.244 346.624L569.196 256.768L535.788 287.104V336.64C535.788 341.504 533.996 345.6 530.412 348.928C527.084 352.256 522.988 353.92 518.124 353.92ZM793.119 355.84C773.407 355.84 756.127 351.616 741.279 343.168C726.431 334.464 714.911 322.56 706.719 307.456C698.783 292.096 694.815 274.304 694.815 254.08C694.815 233.856 698.783 216.192 706.719 201.088C714.911 185.728 726.431 173.824 741.279 165.376C756.127 156.672 773.407 152.32 793.119 152.32C812.831 152.32 829.983 156.672 844.575 165.376C859.423 173.824 870.943 185.728 879.135 201.088C887.327 216.192 891.423 233.856 891.423 254.08C891.423 274.304 887.327 292.096 879.135 307.456C870.943 322.56 859.423 334.464 844.575 343.168C829.983 351.616 812.831 355.84 793.119 355.84ZM793.119 323.968C802.847 323.968 812.575 321.664 822.303 317.056C832.031 312.448 840.095 305.024 846.495 294.784C853.151 284.288 856.479 270.592 856.479 253.696C856.479 236.8 853.151 223.232 846.495 212.992C840.095 202.752 832.031 195.456 822.303 191.104C812.575 186.496 802.847 184.192 793.119 184.192C783.391 184.192 773.535 186.496 763.551 191.104C753.823 195.456 745.759 202.752 739.359 212.992C732.959 223.232 729.759 236.8 729.759 253.696C729.759 270.592 732.959 284.288 739.359 294.784C745.759 305.024 753.823 312.448 763.551 317.056C773.535 321.664 783.391 323.968 793.119 323.968ZM1003.7 355.84C989.624 355.84 976.824 354.304 965.304 351.232C954.04 348.16 943.544 343.936 933.816 338.56C929.464 335.488 927.288 331.264 927.288 325.888C927.288 322.048 928.696 318.592 931.512 315.52C934.328 312.192 937.912 310.528 942.264 310.528C944.568 310.528 946.872 311.04 949.176 312.064C956.088 315.136 963.64 317.824 971.832 320.128C980.28 322.432 990.136 323.584 1001.4 323.584C1016.25 323.584 1027 321.28 1033.66 316.672C1040.57 311.808 1044.02 305.024 1044.02 296.32C1044.02 290.688 1041.21 286.336 1035.58 283.264C1030.2 280.192 1023.03 277.632 1014.07 275.584C1005.37 273.28 996.152 270.976 986.424 268.672C976.696 266.112 967.352 262.784 958.392 258.688C949.688 254.336 942.52 248.576 936.888 241.408C931.512 233.984 928.824 224.512 928.824 212.992C928.824 195.584 935.096 181.12 947.64 169.6C960.184 158.08 978.872 152.32 1003.7 152.32C1014.2 152.32 1024.06 153.216 1033.27 155.008C1042.74 156.8 1051.45 159.104 1059.38 161.92C1062.97 162.944 1065.66 164.992 1067.45 168.064C1069.5 170.88 1070.52 173.696 1070.52 176.512C1070.52 180.608 1068.98 184.192 1065.91 187.264C1063.1 190.336 1059.51 191.872 1055.16 191.872C1054.14 191.872 1053.24 191.872 1052.47 191.872C1051.7 191.616 1050.94 191.36 1050.17 191.104C1044.02 189.056 1037.24 187.392 1029.82 186.112C1022.65 184.832 1014.84 184.192 1006.39 184.192C992.312 184.192 981.432 186.752 973.752 191.872C966.072 196.992 962.232 203.392 962.232 211.072C962.232 217.728 964.92 222.848 970.296 226.432C975.928 230.016 983.096 232.96 991.8 235.264C1000.76 237.312 1010.1 239.488 1019.83 241.792C1029.82 244.096 1039.16 247.424 1047.86 251.776C1056.82 255.872 1063.99 261.632 1069.37 269.056C1075 276.48 1077.82 286.464 1077.82 299.008C1077.82 314.624 1071.54 328.064 1059 339.328C1046.71 350.336 1028.28 355.84 1003.7 355.84ZM1142.12 353.92C1137.26 353.92 1133.16 352.256 1129.84 348.928C1126.51 345.6 1124.84 341.504 1124.84 336.64V87.424C1124.84 82.304 1126.51 78.08 1129.84 74.752C1133.16 71.424 1137.26 69.76 1142.12 69.76C1146.99 69.76 1151.08 71.424 1154.41 74.752C1158 78.08 1159.79 82.304 1159.79 87.424V187.648C1167.98 178.688 1177.58 170.624 1188.59 163.456C1199.85 156.032 1214.06 152.32 1231.21 152.32C1245.8 152.32 1258.22 155.776 1268.46 162.688C1278.7 169.344 1286.51 178.432 1291.88 189.952C1297.26 201.216 1299.95 213.76 1299.95 227.584V336.64C1299.95 341.504 1298.16 345.6 1294.57 348.928C1291.24 352.256 1287.15 353.92 1282.28 353.92C1277.42 353.92 1273.32 352.256 1270 348.928C1266.67 345.6 1265 341.504 1265 336.64V231.424C1265 216.832 1261.68 205.44 1255.02 197.248C1248.62 188.8 1237.87 184.576 1222.76 184.576C1208.94 184.576 1196.91 188.288 1186.67 195.712C1176.43 203.136 1167.47 211.712 1159.79 221.44V336.64C1159.79 341.504 1158 345.6 1154.41 348.928C1151.08 352.256 1146.99 353.92 1142.12 353.92Z"/>
</mask>
<path d="M518.124 353.92C513.26 353.92 509.164 352.256 505.836 348.928C502.508 345.6 500.844 341.504 500.844 336.64V87.424C500.844 82.56 502.508 78.464 505.836 75.136C509.164 71.552 513.26 69.76 518.124 69.76C522.988 69.76 527.084 71.552 530.412 75.136C533.996 78.464 535.788 82.56 535.788 87.424V244.48L627.18 160C628.716 158.72 630.38 157.568 632.172 156.544C634.22 155.52 636.396 155.008 638.7 155.008C645.356 155.008 649.836 156.928 652.14 160.768C654.444 164.352 655.596 168.064 655.596 171.904C655.596 173.44 655.212 175.36 654.444 177.664C653.676 179.712 651.884 182.144 649.068 184.96L593.772 234.496L663.276 326.656C665.836 329.984 667.116 333.44 667.116 337.024C667.116 342.144 665.452 346.24 662.124 349.312C658.796 352.384 654.572 353.92 649.452 353.92C644.076 353.92 639.34 351.488 635.244 346.624L569.196 256.768L535.788 287.104V336.64C535.788 341.504 533.996 345.6 530.412 348.928C527.084 352.256 522.988 353.92 518.124 353.92ZM793.119 355.84C773.407 355.84 756.127 351.616 741.279 343.168C726.431 334.464 714.911 322.56 706.719 307.456C698.783 292.096 694.815 274.304 694.815 254.08C694.815 233.856 698.783 216.192 706.719 201.088C714.911 185.728 726.431 173.824 741.279 165.376C756.127 156.672 773.407 152.32 793.119 152.32C812.831 152.32 829.983 156.672 844.575 165.376C859.423 173.824 870.943 185.728 879.135 201.088C887.327 216.192 891.423 233.856 891.423 254.08C891.423 274.304 887.327 292.096 879.135 307.456C870.943 322.56 859.423 334.464 844.575 343.168C829.983 351.616 812.831 355.84 793.119 355.84ZM793.119 323.968C802.847 323.968 812.575 321.664 822.303 317.056C832.031 312.448 840.095 305.024 846.495 294.784C853.151 284.288 856.479 270.592 856.479 253.696C856.479 236.8 853.151 223.232 846.495 212.992C840.095 202.752 832.031 195.456 822.303 191.104C812.575 186.496 802.847 184.192 793.119 184.192C783.391 184.192 773.535 186.496 763.551 191.104C753.823 195.456 745.759 202.752 739.359 212.992C732.959 223.232 729.759 236.8 729.759 253.696C729.759 270.592 732.959 284.288 739.359 294.784C745.759 305.024 753.823 312.448 763.551 317.056C773.535 321.664 783.391 323.968 793.119 323.968ZM1003.7 355.84C989.624 355.84 976.824 354.304 965.304 351.232C954.04 348.16 943.544 343.936 933.816 338.56C929.464 335.488 927.288 331.264 927.288 325.888C927.288 322.048 928.696 318.592 931.512 315.52C934.328 312.192 937.912 310.528 942.264 310.528C944.568 310.528 946.872 311.04 949.176 312.064C956.088 315.136 963.64 317.824 971.832 320.128C980.28 322.432 990.136 323.584 1001.4 323.584C1016.25 323.584 1027 321.28 1033.66 316.672C1040.57 311.808 1044.02 305.024 1044.02 296.32C1044.02 290.688 1041.21 286.336 1035.58 283.264C1030.2 280.192 1023.03 277.632 1014.07 275.584C1005.37 273.28 996.152 270.976 986.424 268.672C976.696 266.112 967.352 262.784 958.392 258.688C949.688 254.336 942.52 248.576 936.888 241.408C931.512 233.984 928.824 224.512 928.824 212.992C928.824 195.584 935.096 181.12 947.64 169.6C960.184 158.08 978.872 152.32 1003.7 152.32C1014.2 152.32 1024.06 153.216 1033.27 155.008C1042.74 156.8 1051.45 159.104 1059.38 161.92C1062.97 162.944 1065.66 164.992 1067.45 168.064C1069.5 170.88 1070.52 173.696 1070.52 176.512C1070.52 180.608 1068.98 184.192 1065.91 187.264C1063.1 190.336 1059.51 191.872 1055.16 191.872C1054.14 191.872 1053.24 191.872 1052.47 191.872C1051.7 191.616 1050.94 191.36 1050.17 191.104C1044.02 189.056 1037.24 187.392 1029.82 186.112C1022.65 184.832 1014.84 184.192 1006.39 184.192C992.312 184.192 981.432 186.752 973.752 191.872C966.072 196.992 962.232 203.392 962.232 211.072C962.232 217.728 964.92 222.848 970.296 226.432C975.928 230.016 983.096 232.96 991.8 235.264C1000.76 237.312 1010.1 239.488 1019.83 241.792C1029.82 244.096 1039.16 247.424 1047.86 251.776C1056.82 255.872 1063.99 261.632 1069.37 269.056C1075 276.48 1077.82 286.464 1077.82 299.008C1077.82 314.624 1071.54 328.064 1059 339.328C1046.71 350.336 1028.28 355.84 1003.7 355.84ZM1142.12 353.92C1137.26 353.92 1133.16 352.256 1129.84 348.928C1126.51 345.6 1124.84 341.504 1124.84 336.64V87.424C1124.84 82.304 1126.51 78.08 1129.84 74.752C1133.16 71.424 1137.26 69.76 1142.12 69.76C1146.99 69.76 1151.08 71.424 1154.41 74.752C1158 78.08 1159.79 82.304 1159.79 87.424V187.648C1167.98 178.688 1177.58 170.624 1188.59 163.456C1199.85 156.032 1214.06 152.32 1231.21 152.32C1245.8 152.32 1258.22 155.776 1268.46 162.688C1278.7 169.344 1286.51 178.432 1291.88 189.952C1297.26 201.216 1299.95 213.76 1299.95 227.584V336.64C1299.95 341.504 1298.16 345.6 1294.57 348.928C1291.24 352.256 1287.15 353.92 1282.28 353.92C1277.42 353.92 1273.32 352.256 1270 348.928C1266.67 345.6 1265 341.504 1265 336.64V231.424C1265 216.832 1261.68 205.44 1255.02 197.248C1248.62 188.8 1237.87 184.576 1222.76 184.576C1208.94 184.576 1196.91 188.288 1186.67 195.712C1176.43 203.136 1167.47 211.712 1159.79 221.44V336.64C1159.79 341.504 1158 345.6 1154.41 348.928C1151.08 352.256 1146.99 353.92 1142.12 353.92Z" fill="#FABD2F"/>
<path d="M505.836 348.928L510.078 344.685L505.836 348.928ZM505.836 75.136L510.078 79.3786L510.157 79.3001L510.232 79.2187L505.836 75.136ZM530.412 75.136L526.015 79.2187L526.166 79.3815L526.329 79.5328L530.412 75.136ZM535.788 244.48H529.788V258.197L539.86 248.886L535.788 244.48ZM627.18 160L623.338 155.391L623.22 155.489L623.107 155.594L627.18 160ZM632.172 156.544L629.488 151.177L629.339 151.252L629.195 151.335L632.172 156.544ZM652.14 160.768L646.995 163.855L647.042 163.935L647.092 164.013L652.14 160.768ZM654.444 177.664L660.062 179.771L660.101 179.667L660.136 179.561L654.444 177.664ZM649.068 184.96L653.071 189.429L653.194 189.319L653.31 189.203L649.068 184.96ZM593.772 234.496L589.768 230.027L585.661 233.706L588.981 238.109L593.772 234.496ZM663.276 326.656L658.485 330.269L658.502 330.292L658.52 330.314L663.276 326.656ZM662.124 349.312L658.054 344.903L662.124 349.312ZM635.244 346.624L630.409 350.178L630.526 350.337L630.654 350.489L635.244 346.624ZM569.196 256.768L574.03 253.214L570.089 247.852L565.162 252.326L569.196 256.768ZM535.788 287.104L531.754 282.662L529.788 284.448V287.104H535.788ZM530.412 348.928L526.329 344.531L526.247 344.607L526.169 344.685L530.412 348.928ZM518.124 353.92V347.92C514.791 347.92 512.24 346.847 510.078 344.685L505.836 348.928L501.593 353.171C506.088 357.665 511.728 359.92 518.124 359.92V353.92ZM505.836 348.928L510.078 344.685C507.917 342.524 506.844 339.972 506.844 336.64H500.844H494.844C494.844 343.036 497.098 348.676 501.593 353.171L505.836 348.928ZM500.844 336.64H506.844V87.424H500.844H494.844V336.64H500.844ZM500.844 87.424H506.844C506.844 84.0918 507.917 81.54 510.078 79.3786L505.836 75.136L501.593 70.8934C497.098 75.388 494.844 81.0282 494.844 87.424H500.844ZM505.836 75.136L510.232 79.2187C512.432 76.8496 514.938 75.76 518.124 75.76V69.76V63.76C511.581 63.76 505.895 66.2544 501.439 71.0533L505.836 75.136ZM518.124 69.76V75.76C521.309 75.76 523.815 76.8496 526.015 79.2187L530.412 75.136L534.808 71.0533C530.352 66.2544 524.666 63.76 518.124 63.76V69.76ZM530.412 75.136L526.329 79.5328C528.698 81.7326 529.788 84.2389 529.788 87.424H535.788H541.788C541.788 80.8811 539.293 75.1954 534.494 70.7392L530.412 75.136ZM535.788 87.424H529.788V244.48H535.788H541.788V87.424H535.788ZM535.788 244.48L539.86 248.886L631.252 164.406L627.18 160L623.107 155.594L531.715 240.074L535.788 244.48ZM627.18 160L631.021 164.609C632.278 163.561 633.652 162.609 635.148 161.753L632.172 156.544L629.195 151.335C627.107 152.527 625.153 153.879 623.338 155.391L627.18 160ZM632.172 156.544L634.855 161.911C636.064 161.306 637.321 161.008 638.7 161.008V155.008V149.008C635.47 149.008 632.375 149.734 629.488 151.177L632.172 156.544ZM638.7 155.008V161.008C644.359 161.008 646.245 162.605 646.995 163.855L652.14 160.768L657.285 157.681C653.426 151.251 646.353 149.008 638.7 149.008V155.008ZM652.14 160.768L647.092 164.013C648.845 166.738 649.596 169.338 649.596 171.904H655.596H661.596C661.596 166.79 660.042 161.965 657.187 157.523L652.14 160.768ZM655.596 171.904H649.596C649.596 172.532 649.42 173.762 648.751 175.767L654.444 177.664L660.136 179.561C661.004 176.958 661.596 174.348 661.596 171.904H655.596ZM654.444 177.664L648.826 175.557C648.513 176.391 647.452 178.09 644.825 180.717L649.068 184.96L653.31 189.203C656.315 186.198 658.838 183.033 660.062 179.771L654.444 177.664ZM649.068 184.96L645.064 180.491L589.768 230.027L593.772 234.496L597.775 238.965L653.071 189.429L649.068 184.96ZM593.772 234.496L588.981 238.109L658.485 330.269L663.276 326.656L668.066 323.043L598.562 230.883L593.772 234.496ZM663.276 326.656L658.52 330.314C660.417 332.78 661.116 334.981 661.116 337.024H667.116H673.116C673.116 331.899 671.254 327.188 668.031 322.998L663.276 326.656ZM667.116 337.024H661.116C661.116 340.711 659.985 343.121 658.054 344.903L662.124 349.312L666.193 353.721C670.918 349.359 673.116 343.577 673.116 337.024H667.116ZM662.124 349.312L658.054 344.903C655.981 346.817 653.275 347.92 649.452 347.92V353.92V359.92C655.868 359.92 661.61 357.951 666.193 353.721L662.124 349.312ZM649.452 353.92V347.92C646.175 347.92 643.02 346.543 639.833 342.759L635.244 346.624L630.654 350.489C635.66 356.433 641.977 359.92 649.452 359.92V353.92ZM635.244 346.624L640.078 343.07L574.03 253.214L569.196 256.768L564.361 260.322L630.409 350.178L635.244 346.624ZM569.196 256.768L565.162 252.326L531.754 282.662L535.788 287.104L539.821 291.546L573.229 261.21L569.196 256.768ZM535.788 287.104H529.788V336.64H535.788H541.788V287.104H535.788ZM535.788 336.64H529.788C529.788 339.825 528.698 342.331 526.329 344.531L530.412 348.928L534.494 353.325C539.293 348.869 541.788 343.183 541.788 336.64H535.788ZM530.412 348.928L526.169 344.685C524.008 346.847 521.456 347.92 518.124 347.92V353.92V359.92C524.519 359.92 530.16 357.665 534.654 353.171L530.412 348.928ZM741.279 343.168L738.244 348.344L738.278 348.364L738.311 348.383L741.279 343.168ZM706.719 307.456L701.388 310.21L701.416 310.264L701.444 310.317L706.719 307.456ZM706.719 201.088L701.424 198.264L701.416 198.281L701.407 198.297L706.719 201.088ZM741.279 165.376L744.246 170.591L744.279 170.572L744.313 170.552L741.279 165.376ZM844.575 165.376L841.501 170.529L841.554 170.56L841.607 170.591L844.575 165.376ZM879.135 201.088L873.84 203.912L873.85 203.93L873.86 203.949L879.135 201.088ZM879.135 307.456L884.409 310.317L884.419 310.298L884.429 310.28L879.135 307.456ZM844.575 343.168L847.581 348.361L847.595 348.352L847.609 348.344L844.575 343.168ZM822.303 317.056L824.871 322.478L822.303 317.056ZM846.495 294.784L841.428 291.571L841.417 291.587L841.407 291.604L846.495 294.784ZM846.495 212.992L841.407 216.172L841.435 216.217L841.464 216.262L846.495 212.992ZM822.303 191.104L819.734 196.526L819.793 196.554L819.852 196.581L822.303 191.104ZM763.551 191.104L766.001 196.581L766.033 196.567L766.065 196.552L763.551 191.104ZM739.359 212.992L734.271 209.812L739.359 212.992ZM739.359 294.784L734.236 297.908L734.253 297.936L734.271 297.964L739.359 294.784ZM763.551 317.056L760.982 322.478L761.009 322.491L761.036 322.504L763.551 317.056ZM793.119 355.84V349.84C774.285 349.84 758.058 345.812 744.246 337.953L741.279 343.168L738.311 348.383C754.195 357.42 772.528 361.84 793.119 361.84V355.84ZM741.279 343.168L744.313 337.992C730.407 329.84 719.662 318.736 711.993 304.595L706.719 307.456L701.444 310.317C710.159 326.384 722.454 339.088 738.244 348.344L741.279 343.168ZM706.719 307.456L712.049 304.702C704.622 290.327 700.815 273.508 700.815 254.08H694.815H688.815C688.815 275.1 692.943 293.865 701.388 310.21L706.719 307.456ZM694.815 254.08H700.815C700.815 234.649 704.623 217.976 712.03 203.879L706.719 201.088L701.407 198.297C692.942 214.408 688.815 233.063 688.815 254.08H694.815ZM706.719 201.088L712.013 203.912C719.681 189.533 730.404 178.467 744.246 170.591L741.279 165.376L738.311 160.161C722.458 169.181 710.14 181.923 701.424 198.264L706.719 201.088ZM741.279 165.376L744.313 170.552C758.114 162.462 774.316 158.32 793.119 158.32V152.32V146.32C772.497 146.32 754.14 150.882 738.244 160.2L741.279 165.376ZM793.119 152.32V158.32C811.924 158.32 827.979 162.463 841.501 170.529L844.575 165.376L847.648 160.223C831.987 150.881 813.737 146.32 793.119 146.32V152.32ZM844.575 165.376L841.607 170.591C855.45 178.467 866.172 189.533 873.84 203.912L879.135 201.088L884.429 198.264C875.714 181.923 863.396 169.181 847.542 160.161L844.575 165.376ZM879.135 201.088L873.86 203.949C881.498 218.031 885.423 234.678 885.423 254.08H891.423H897.423C897.423 233.034 893.155 214.353 884.409 198.227L879.135 201.088ZM891.423 254.08H885.423C885.423 273.479 881.499 290.272 873.84 304.632L879.135 307.456L884.429 310.28C893.154 293.92 897.423 275.129 897.423 254.08H891.423ZM879.135 307.456L873.86 304.595C866.191 318.736 855.446 329.84 841.54 337.992L844.575 343.168L847.609 348.344C863.399 339.088 875.694 326.384 884.409 310.317L879.135 307.456ZM844.575 343.168L841.568 337.975C828.034 345.811 811.955 349.84 793.119 349.84V355.84V361.84C813.706 361.84 831.931 357.421 847.581 348.361L844.575 343.168ZM793.119 323.968V329.968C803.826 329.968 814.427 327.426 824.871 322.478L822.303 317.056L819.734 311.634C810.723 315.902 801.867 317.968 793.119 317.968V323.968ZM822.303 317.056L824.871 322.478C835.759 317.321 844.651 309.055 851.583 297.964L846.495 294.784L841.407 291.604C835.538 300.993 828.302 307.575 819.734 311.634L822.303 317.056ZM846.495 294.784L851.562 297.997C859.009 286.253 862.479 271.334 862.479 253.696H856.479H850.479C850.479 269.85 847.292 282.323 841.428 291.571L846.495 294.784ZM856.479 253.696H862.479C862.479 236.069 859.013 221.242 851.525 209.722L846.495 212.992L841.464 216.262C847.288 225.222 850.479 237.531 850.479 253.696H856.479ZM846.495 212.992L851.583 209.812C844.638 198.7 835.709 190.529 824.753 185.627L822.303 191.104L819.852 196.581C828.352 200.383 835.551 206.804 841.407 216.172L846.495 212.992ZM822.303 191.104L824.871 185.682C814.427 180.734 803.826 178.192 793.119 178.192V184.192V190.192C801.867 190.192 810.723 192.258 819.734 196.526L822.303 191.104ZM793.119 184.192V178.192C782.416 178.192 771.706 180.732 761.036 185.656L763.551 191.104L766.065 196.552C775.364 192.26 784.365 190.192 793.119 190.192V184.192ZM763.551 191.104L761.1 185.627C750.144 190.529 741.215 198.7 734.271 209.812L739.359 212.992L744.447 216.172C750.302 206.804 757.501 200.383 766.001 196.581L763.551 191.104ZM739.359 212.992L734.271 209.812C727.082 221.314 723.759 236.105 723.759 253.696H729.759H735.759C735.759 237.495 738.835 225.15 744.447 216.172L739.359 212.992ZM729.759 253.696H723.759C723.759 271.297 727.086 286.182 734.236 297.908L739.359 294.784L744.481 291.66C738.831 282.394 735.759 269.887 735.759 253.696H729.759ZM739.359 294.784L734.271 297.964C741.202 309.055 750.094 317.321 760.982 322.478L763.551 317.056L766.119 311.634C757.551 307.575 750.315 300.993 744.447 291.604L739.359 294.784ZM763.551 317.056L761.036 322.504C771.706 327.428 782.416 329.968 793.119 329.968V323.968V317.968C784.365 317.968 775.364 315.9 766.065 311.608L763.551 317.056ZM965.304 351.232L963.725 357.021L963.741 357.025L963.758 357.029L965.304 351.232ZM933.816 338.56L930.355 343.462L930.625 343.652L930.913 343.811L933.816 338.56ZM931.512 315.52L935.935 319.574L936.015 319.487L936.092 319.396L931.512 315.52ZM949.176 312.064L946.739 317.547L949.176 312.064ZM971.832 320.128L970.207 325.904L970.23 325.91L970.253 325.917L971.832 320.128ZM1033.66 316.672L1037.07 321.605L1037.09 321.592L1037.11 321.579L1033.66 316.672ZM1035.58 283.264L1032.6 288.473L1032.65 288.503L1032.7 288.531L1035.58 283.264ZM1014.07 275.584L1012.54 281.384L1012.64 281.41L1012.73 281.433L1014.07 275.584ZM986.424 268.672L984.897 274.474L984.968 274.493L985.041 274.51L986.424 268.672ZM958.392 258.688L955.708 264.055L955.802 264.101L955.897 264.145L958.392 258.688ZM936.888 241.408L932.028 244.927L932.097 245.022L932.17 245.115L936.888 241.408ZM947.64 169.6L951.698 174.019L947.64 169.6ZM1033.27 155.008L1032.13 160.898L1032.14 160.901L1032.16 160.903L1033.27 155.008ZM1059.38 161.92L1057.38 167.575L1057.55 167.637L1057.74 167.689L1059.38 161.92ZM1067.45 168.064L1062.26 171.087L1062.42 171.348L1062.6 171.593L1067.45 168.064ZM1065.91 187.264L1061.67 183.021L1061.58 183.114L1061.49 183.21L1065.91 187.264ZM1052.47 191.872L1050.57 197.564L1051.5 197.872H1052.47V191.872ZM1050.17 191.104L1052.06 185.412L1050.17 191.104ZM1029.82 186.112L1028.76 192.019L1028.78 192.022L1028.8 192.025L1029.82 186.112ZM973.752 191.872L970.423 186.88L973.752 191.872ZM970.296 226.432L966.967 231.424L967.02 231.46L967.074 231.494L970.296 226.432ZM991.8 235.264L990.264 241.064L990.363 241.09L990.463 241.113L991.8 235.264ZM1019.83 241.792L1018.45 247.63L1018.47 247.634L1018.48 247.638L1019.83 241.792ZM1047.86 251.776L1045.18 257.143L1045.27 257.189L1045.37 257.233L1047.86 251.776ZM1069.37 269.056L1064.51 272.575L1064.55 272.629L1064.59 272.682L1069.37 269.056ZM1059 339.328L1063 343.797L1063.01 343.792L1059 339.328ZM1003.7 355.84V349.84C990.054 349.84 977.784 348.35 966.85 345.435L965.304 351.232L963.758 357.029C975.863 360.258 989.193 361.84 1003.7 361.84V355.84ZM965.304 351.232L966.882 345.443C956.056 342.491 946.007 338.442 936.718 333.309L933.816 338.56L930.913 343.811C941.08 349.43 952.023 353.829 963.725 357.021L965.304 351.232ZM933.816 338.56L937.276 333.658C934.534 331.723 933.288 329.336 933.288 325.888H927.288H921.288C921.288 333.192 924.393 339.253 930.355 343.462L933.816 338.56ZM927.288 325.888H933.288C933.288 323.683 934.039 321.642 935.935 319.574L931.512 315.52L927.089 311.466C923.352 315.542 921.288 320.413 921.288 325.888H927.288ZM931.512 315.52L936.092 319.396C937.77 317.412 939.68 316.528 942.264 316.528V310.528V304.528C936.143 304.528 930.885 306.972 926.931 311.644L931.512 315.52ZM942.264 310.528V316.528C943.652 316.528 945.129 316.831 946.739 317.547L949.176 312.064L951.612 306.581C948.614 305.249 945.483 304.528 942.264 304.528V310.528ZM949.176 312.064L946.739 317.547C953.944 320.749 961.771 323.531 970.207 325.904L971.832 320.128L973.456 314.352C965.508 312.117 958.231 309.523 951.612 306.581L949.176 312.064ZM971.832 320.128L970.253 325.917C979.338 328.394 989.746 329.584 1001.4 329.584V323.584V317.584C990.525 317.584 981.221 316.47 973.41 314.339L971.832 320.128ZM1001.4 323.584V329.584C1016.59 329.584 1028.87 327.28 1037.07 321.605L1033.66 316.672L1030.24 311.739C1025.13 315.28 1015.91 317.584 1001.4 317.584V323.584ZM1033.66 316.672L1037.11 321.579C1045.67 315.552 1050.02 306.907 1050.02 296.32H1044.02H1038.02C1038.02 303.141 1035.46 308.064 1030.2 311.765L1033.66 316.672ZM1044.02 296.32H1050.02C1050.02 288.145 1045.68 281.943 1038.45 277.997L1035.58 283.264L1032.7 288.531C1036.73 290.729 1038.02 293.231 1038.02 296.32H1044.02ZM1035.58 283.264L1038.55 278.055C1032.48 274.585 1024.69 271.857 1015.41 269.735L1014.07 275.584L1012.73 281.433C1021.37 283.407 1027.92 285.799 1032.6 288.473L1035.58 283.264ZM1014.07 275.584L1015.61 269.784C1006.85 267.465 997.58 265.148 987.806 262.834L986.424 268.672L985.041 274.51C994.723 276.804 1003.89 279.095 1012.54 281.384L1014.07 275.584ZM986.424 268.672L987.951 262.87C978.547 260.395 969.528 257.182 960.886 253.231L958.392 258.688L955.897 264.145C965.176 268.386 974.844 271.829 984.897 274.474L986.424 268.672ZM958.392 258.688L961.075 253.321C953.109 249.338 946.654 244.126 941.605 237.701L936.888 241.408L932.17 245.115C938.385 253.026 946.266 259.334 955.708 264.055L958.392 258.688ZM936.888 241.408L941.747 237.889C937.284 231.725 934.824 223.576 934.824 212.992H928.824H922.824C922.824 225.448 925.739 236.243 932.028 244.927L936.888 241.408ZM928.824 212.992H934.824C934.824 197.222 940.422 184.375 951.698 174.019L947.64 169.6L943.581 165.181C929.769 177.865 922.824 193.946 922.824 212.992H928.824ZM947.64 169.6L951.698 174.019C962.72 163.897 979.695 158.32 1003.7 158.32V152.32V146.32C978.048 146.32 957.647 152.263 943.581 165.181L947.64 169.6ZM1003.7 152.32V158.32C1013.86 158.32 1023.33 159.187 1032.13 160.898L1033.27 155.008L1034.42 149.118C1024.78 147.245 1014.54 146.32 1003.7 146.32V152.32ZM1033.27 155.008L1032.16 160.903C1041.37 162.646 1049.77 164.875 1057.38 167.575L1059.38 161.92L1061.39 156.265C1053.13 153.333 1044.12 150.954 1034.39 149.113L1033.27 155.008ZM1059.38 161.92L1057.74 167.689C1059.91 168.311 1061.29 169.422 1062.26 171.087L1067.45 168.064L1072.63 165.041C1070.02 160.562 1066.02 157.577 1061.03 156.151L1059.38 161.92ZM1067.45 168.064L1062.6 171.593C1064.08 173.63 1064.52 175.238 1064.52 176.512H1070.52H1076.52C1076.52 172.154 1074.91 168.13 1072.3 164.535L1067.45 168.064ZM1070.52 176.512H1064.52C1064.52 178.913 1063.69 180.999 1061.67 183.021L1065.91 187.264L1070.15 191.507C1074.28 187.385 1076.52 182.303 1076.52 176.512H1070.52ZM1065.91 187.264L1061.49 183.21C1059.86 184.981 1057.91 185.872 1055.16 185.872V191.872V197.872C1061.11 197.872 1066.33 195.691 1070.33 191.318L1065.91 187.264ZM1055.16 191.872V185.872C1055.16 185.872 1055.16 185.872 1055.15 185.872C1055.15 185.872 1055.15 185.872 1055.15 185.872C1055.15 185.872 1055.14 185.872 1055.14 185.872C1055.14 185.872 1055.14 185.872 1055.14 185.872C1055.13 185.872 1055.13 185.872 1055.13 185.872C1055.13 185.872 1055.13 185.872 1055.12 185.872C1055.12 185.872 1055.12 185.872 1055.12 185.872C1055.12 185.872 1055.11 185.872 1055.11 185.872C1055.11 185.872 1055.11 185.872 1055.11 185.872C1055.1 185.872 1055.1 185.872 1055.1 185.872C1055.1 185.872 1055.1 185.872 1055.09 185.872C1055.09 185.872 1055.09 185.872 1055.09 185.872C1055.09 185.872 1055.08 185.872 1055.08 185.872C1055.08 185.872 1055.08 185.872 1055.08 185.872C1055.07 185.872 1055.07 185.872 1055.07 185.872C1055.07 185.872 1055.07 185.872 1055.06 185.872C1055.06 185.872 1055.06 185.872 1055.06 185.872C1055.06 185.872 1055.05 185.872 1055.05 185.872C1055.05 185.872 1055.05 185.872 1055.05 185.872C1055.04 185.872 1055.04 185.872 1055.04 185.872C1055.04 185.872 1055.04 185.872 1055.03 185.872C1055.03 185.872 1055.03 185.872 1055.03 185.872C1055.03 185.872 1055.02 185.872 1055.02 185.872C1055.02 185.872 1055.02 185.872 1055.02 185.872C1055.01 185.872 1055.01 185.872 1055.01 185.872C1055.01 185.872 1055.01 185.872 1055 185.872C1055 185.872 1055 185.872 1055 185.872C1055 185.872 1054.99 185.872 1054.99 185.872C1054.99 185.872 1054.99 185.872 1054.99 185.872C1054.98 185.872 1054.98 185.872 1054.98 185.872C1054.98 185.872 1054.98 185.872 1054.97 185.872C1054.97 185.872 1054.97 185.872 1054.97 185.872C1054.97 185.872 1054.97 185.872 1054.96 185.872C1054.96 185.872 1054.96 185.872 1054.96 185.872C1054.96 185.872 1054.95 185.872 1054.95 185.872C1054.95 185.872 1054.95 185.872 1054.95 185.872C1054.94 185.872 1054.94 185.872 1054.94 185.872C1054.94 185.872 1054.94 185.872 1054.93 185.872C1054.93 185.872 1054.93 185.872 1054.93 185.872C1054.93 185.872 1054.92 185.872 1054.92 185.872C1054.92 185.872 1054.92 185.872 1054.92 185.872C1054.91 185.872 1054.91 185.872 1054.91 185.872C1054.91 185.872 1054.91 185.872 1054.9 185.872C1054.9 185.872 1054.9 185.872 1054.9 185.872C1054.9 185.872 1054.89 185.872 1054.89 185.872C1054.89 185.872 1054.89 185.872 1054.89 185.872C1054.88 185.872 1054.88 185.872 1054.88 185.872C1054.88 185.872 1054.88 185.872 1054.87 185.872C1054.87 185.872 1054.87 185.872 1054.87 185.872C1054.87 185.872 1054.87 185.872 1054.86 185.872C1054.86 185.872 1054.86 185.872 1054.86 185.872C1054.86 185.872 1054.85 185.872 1054.85 185.872C1054.85 185.872 1054.85 185.872 1054.85 185.872C1054.84 185.872 1054.84 185.872 1054.84 185.872C1054.84 185.872 1054.84 185.872 1054.83 185.872C1054.83 185.872 1054.83 185.872 1054.83 185.872C1054.83 185.872 1054.82 185.872 1054.82 185.872C1054.82 185.872 1054.82 185.872 1054.82 185.872C1054.81 185.872 1054.81 185.872 1054.81 185.872C1054.81 185.872 1054.81 185.872 1054.8 185.872C1054.8 185.872 1054.8 185.872 1054.8 185.872C1054.8 185.872 1054.8 185.872 1054.79 185.872C1054.79 185.872 1054.79 185.872 1054.79 185.872C1054.79 185.872 1054.78 185.872 1054.78 185.872C1054.78 185.872 1054.78 185.872 1054.78 185.872C1054.77 185.872 1054.77 185.872 1054.77 185.872C1054.77 185.872 1054.77 185.872 1054.76 185.872C1054.76 185.872 1054.76 185.872 1054.76 185.872C1054.76 185.872 1054.75 185.872 1054.75 185.872C1054.75 185.872 1054.75 185.872 1054.75 185.872C1054.74 185.872 1054.74 185.872 1054.74 185.872C1054.74 185.872 1054.74 185.872 1054.74 185.872C1054.73 185.872 1054.73 185.872 1054.73 185.872C1054.73 185.872 1054.73 185.872 1054.72 185.872C1054.72 185.872 1054.72 185.872 1054.72 185.872C1054.72 185.872 1054.71 185.872 1054.71 185.872C1054.71 185.872 1054.71 185.872 1054.71 185.872C1054.7 185.872 1054.7 185.872 1054.7 185.872C1054.7 185.872 1054.7 185.872 1054.69 185.872C1054.69 185.872 1054.69 185.872 1054.69 185.872C1054.69 185.872 1054.69 185.872 1054.68 185.872C1054.68 185.872 1054.68 185.872 1054.68 185.872C1054.68 185.872 1054.67 185.872 1054.67 185.872C1054.67 185.872 1054.67 185.872 1054.67 185.872C1054.66 185.872 1054.66 185.872 1054.66 185.872C1054.66 185.872 1054.66 185.872 1054.65 185.872C1054.65 185.872 1054.65 185.872 1054.65 185.872C1054.65 185.872 1054.64 185.872 1054.64 185.872C1054.64 185.872 1054.64 185.872 1054.64 185.872C1054.64 185.872 1054.63 185.872 1054.63 185.872C1054.63 185.872 1054.63 185.872 1054.63 185.872C1054.62 185.872 1054.62 185.872 1054.62 185.872C1054.62 185.872 1054.62 185.872 1054.61 185.872C1054.61 185.872 1054.61 185.872 1054.61 185.872C1054.61 185.872 1054.6 185.872 1054.6 185.872C1054.6 185.872 1054.6 185.872 1054.6 185.872C1054.6 185.872 1054.59 185.872 1054.59 185.872C1054.59 185.872 1054.59 185.872 1054.59 185.872C1054.58 185.872 1054.58 185.872 1054.58 185.872C1054.58 185.872 1054.58 185.872 1054.57 185.872C1054.57 185.872 1054.57 185.872 1054.57 185.872C1054.57 185.872 1054.56 185.872 1054.56 185.872C1054.56 185.872 1054.56 185.872 1054.56 185.872C1054.56 185.872 1054.55 185.872 1054.55 185.872C1054.55 185.872 1054.55 185.872 1054.55 185.872C1054.54 185.872 1054.54 185.872 1054.54 185.872C1054.54 185.872 1054.54 185.872 1054.53 185.872C1054.53 185.872 1054.53 185.872 1054.53 185.872C1054.53 185.872 1054.52 185.872 1054.52 185.872C1054.52 185.872 1054.52 185.872 1054.52 185.872C1054.52 185.872 1054.51 185.872 1054.51 185.872C1054.51 185.872 1054.51 185.872 1054.51 185.872C1054.5 185.872 1054.5 185.872 1054.5 185.872C1054.5 185.872 1054.5 185.872 1054.49 185.872C1054.49 185.872 1054.49 185.872 1054.49 185.872C1054.49 185.872 1054.49 185.872 1054.48 185.872C1054.48 185.872 1054.48 185.872 1054.48 185.872C1054.48 185.872 1054.47 185.872 1054.47 185.872C1054.47 185.872 1054.47 185.872 1054.47 185.872C1054.46 185.872 1054.46 185.872 1054.46 185.872C1054.46 185.872 1054.46 185.872 1054.46 185.872C1054.45 185.872 1054.45 185.872 1054.45 185.872C1054.45 185.872 1054.45 185.872 1054.44 185.872C1054.44 185.872 1054.44 185.872 1054.44 185.872C1054.44 185.872 1054.43 185.872 1054.43 185.872C1054.43 185.872 1054.43 185.872 1054.43 185.872C1054.42 185.872 1054.42 185.872 1054.42 185.872C1054.42 185.872 1054.42 185.872 1054.42 185.872C1054.41 185.872 1054.41 185.872 1054.41 185.872C1054.41 185.872 1054.41 185.872 1054.4 185.872C1054.4 185.872 1054.4 185.872 1054.4 185.872C1054.4 185.872 1054.39 185.872 1054.39 185.872C1054.39 185.872 1054.39 185.872 1054.39 185.872C1054.39 185.872 1054.38 185.872 1054.38 185.872C1054.38 185.872 1054.38 185.872 1054.38 185.872C1054.37 185.872 1054.37 185.872 1054.37 185.872C1054.37 185.872 1054.37 185.872 1054.37 185.872C1054.36 185.872 1054.36 185.872 1054.36 185.872C1054.36 185.872 1054.36 185.872 1054.35 185.872C1054.35 185.872 1054.35 185.872 1054.35 185.872C1054.35 185.872 1054.34 185.872 1054.34 185.872C1054.34 185.872 1054.34 185.872 1054.34 185.872C1054.34 185.872 1054.33 185.872 1054.33 185.872C1054.33 185.872 1054.33 185.872 1054.33 185.872C1054.32 185.872 1054.32 185.872 1054.32 185.872C1054.32 185.872 1054.32 185.872 1054.31 185.872C1054.31 185.872 1054.31 185.872 1054.31 185.872C1054.31 185.872 1054.31 185.872 1054.3 185.872C1054.3 185.872 1054.3 185.872 1054.3 185.872C1054.3 185.872 1054.29 185.872 1054.29 185.872C1054.29 185.872 1054.29 185.872 1054.29 185.872C1054.29 185.872 1054.28 185.872 1054.28 185.872C1054.28 185.872 1054.28 185.872 1054.28 185.872C1054.27 185.872 1054.27 185.872 1054.27 185.872C1054.27 185.872 1054.27 185.872 1054.26 185.872C1054.26 185.872 1054.26 185.872 1054.26 185.872C1054.26 185.872 1054.26 185.872 1054.25 185.872C1054.25 185.872 1054.25 185.872 1054.25 185.872C1054.25 185.872 1054.24 185.872 1054.24 185.872C1054.24 185.872 1054.24 185.872 1054.24 185.872C1054.24 185.872 1054.23 185.872 1054.23 185.872C1054.23 185.872 1054.23 185.872 1054.23 185.872C1054.22 185.872 1054.22 185.872 1054.22 185.872C1054.22 185.872 1054.22 185.872 1054.21 185.872C1054.21 185.872 1054.21 185.872 1054.21 185.872C1054.21 185.872 1054.21 185.872 1054.2 185.872C1054.2 185.872 1054.2 185.872 1054.2 185.872C1054.2 185.872 1054.19 185.872 1054.19 185.872C1054.19 185.872 1054.19 185.872 1054.19 185.872C1054.19 185.872 1054.18 185.872 1054.18 185.872C1054.18 185.872 1054.18 185.872 1054.18 185.872C1054.17 185.872 1054.17 185.872 1054.17 185.872C1054.17 185.872 1054.17 185.872 1054.17 185.872C1054.16 185.872 1054.16 185.872 1054.16 185.872C1054.16 185.872 1054.16 185.872 1054.15 185.872C1054.15 185.872 1054.15 185.872 1054.15 185.872C1054.15 185.872 1054.15 185.872 1054.14 185.872C1054.14 185.872 1054.14 185.872 1054.14 185.872C1054.14 185.872 1054.13 185.872 1054.13 185.872C1054.13 185.872 1054.13 185.872 1054.13 185.872C1054.13 185.872 1054.12 185.872 1054.12 185.872C1054.12 185.872 1054.12 185.872 1054.12 185.872C1054.11 185.872 1054.11 185.872 1054.11 185.872C1054.11 185.872 1054.11 185.872 1054.11 185.872C1054.1 185.872 1054.1 185.872 1054.1 185.872C1054.1 185.872 1054.1 185.872 1054.09 185.872C1054.09 185.872 1054.09 185.872 1054.09 185.872C1054.09 185.872 1054.09 185.872 1054.08 185.872C1054.08 185.872 1054.08 185.872 1054.08 185.872C1054.08 185.872 1054.07 185.872 1054.07 185.872C1054.07 185.872 1054.07 185.872 1054.07 185.872C1054.07 185.872 1054.06 185.872 1054.06 185.872C1054.06 185.872 1054.06 185.872 1054.06 185.872C1054.05 185.872 1054.05 185.872 1054.05 185.872C1054.05 185.872 1054.05 185.872 1054.05 185.872C1054.04 185.872 1054.04 185.872 1054.04 185.872C1054.04 185.872 1054.04 185.872 1054.03 185.872C1054.03 185.872 1054.03 185.872 1054.03 185.872C1054.03 185.872 1054.03 185.872 1054.02 185.872C1054.02 185.872 1054.02 185.872 1054.02 185.872C1054.02 185.872 1054.01 185.872 1054.01 185.872C1054.01 185.872 1054.01 185.872 1054.01 185.872C1054.01 185.872 1054 185.872 1054 185.872C1054 185.872 1054 185.872 1054 185.872C1053.99 185.872 1053.99 185.872 1053.99 185.872C1053.99 185.872 1053.99 185.872 1053.99 185.872C1053.98 185.872 1053.98 185.872 1053.98 185.872C1053.98 185.872 1053.98 185.872 1053.97 185.872C1053.97 185.872 1053.97 185.872 1053.97 185.872C1053.97 185.872 1053.97 185.872 1053.96 185.872C1053.96 185.872 1053.96 185.872 1053.96 185.872C1053.96 185.872 1053.96 185.872 1053.95 185.872C1053.95 185.872 1053.95 185.872 1053.95 185.872C1053.95 185.872 1053.94 185.872 1053.94 185.872C1053.94 185.872 1053.94 185.872 1053.94 185.872C1053.94 185.872 1053.93 185.872 1053.93 185.872C1053.93 185.872 1053.93 185.872 1053.93 185.872C1053.92 185.872 1053.92 185.872 1053.92 185.872C1053.92 185.872 1053.92 185.872 1053.92 185.872C1053.91 185.872 1053.91 185.872 1053.91 185.872C1053.91 185.872 1053.91 185.872 1053.91 185.872C1053.9 185.872 1053.9 185.872 1053.9 185.872C1053.9 185.872 1053.9 185.872 1053.89 185.872C1053.89 185.872 1053.89 185.872 1053.89 185.872C1053.89 185.872 1053.89 185.872 1053.88 185.872C1053.88 185.872 1053.88 185.872 1053.88 185.872C1053.88 185.872 1053.87 185.872 1053.87 185.872C1053.87 185.872 1053.87 185.872 1053.87 185.872C1053.87 185.872 1053.86 185.872 1053.86 185.872C1053.86 185.872 1053.86 185.872 1053.86 185.872C1053.86 185.872 1053.85 185.872 1053.85 185.872C1053.85 185.872 1053.85 185.872 1053.85 185.872C1053.84 185.872 1053.84 185.872 1053.84 185.872C1053.84 185.872 1053.84 185.872 1053.84 185.872C1053.83 185.872 1053.83 185.872 1053.83 185.872C1053.83 185.872 1053.83 185.872 1053.83 185.872C1053.82 185.872 1053.82 185.872 1053.82 185.872C1053.82 185.872 1053.82 185.872 1053.81 185.872C1053.81 185.872 1053.81 185.872 1053.81 185.872C1053.81 185.872 1053.81 185.872 1053.8 185.872C1053.8 185.872 1053.8 185.872 1053.8 185.872C1053.8 185.872 1053.8 185.872 1053.79 185.872C1053.79 185.872 1053.79 185.872 1053.79 185.872C1053.79 185.872 1053.78 185.872 1053.78 185.872C1053.78 185.872 1053.78 185.872 1053.78 185.872C1053.78 185.872 1053.77 185.872 1053.77 185.872C1053.77 185.872 1053.77 185.872 1053.77 185.872C1053.77 185.872 1053.76 185.872 1053.76 185.872C1053.76 185.872 1053.76 185.872 1053.76 185.872C1053.75 185.872 1053.75 185.872 1053.75 185.872C1053.75 185.872 1053.75 185.872 1053.75 185.872C1053.74 185.872 1053.74 185.872 1053.74 185.872C1053.74 185.872 1053.74 185.872 1053.74 185.872C1053.73 185.872 1053.73 185.872 1053.73 185.872C1053.73 185.872 1053.73 185.872 1053.72 185.872C1053.72 185.872 1053.72 185.872 1053.72 185.872C1053.72 185.872 1053.72 185.872 1053.71 185.872C1053.71 185.872 1053.71 185.872 1053.71 185.872C1053.71 185.872 1053.71 185.872 1053.7 185.872C1053.7 185.872 1053.7 185.872 1053.7 185.872C1053.7 185.872 1053.7 185.872 1053.69 185.872C1053.69 185.872 1053.69 185.872 1053.69 185.872C1053.69 185.872 1053.68 185.872 1053.68 185.872C1053.68 185.872 1053.68 185.872 1053.68 185.872C1053.68 185.872 1053.67 185.872 1053.67 185.872C1053.67 185.872 1053.67 185.872 1053.67 185.872C1053.67 185.872 1053.66 185.872 1053.66 185.872C1053.66 185.872 1053.66 185.872 1053.66 185.872C1053.66 185.872 1053.65 185.872 1053.65 185.872C1053.65 185.872 1053.65 185.872 1053.65 185.872C1053.64 185.872 1053.64 185.872 1053.64 185.872C1053.64 185.872 1053.64 185.872 1053.64 185.872C1053.63 185.872 1053.63 185.872 1053.63 185.872C1053.63 185.872 1053.63 185.872 1053.63 185.872C1053.62 185.872 1053.62 185.872 1053.62 185.872C1053.62 185.872 1053.62 185.872 1053.62 185.872C1053.61 185.872 1053.61 185.872 1053.61 185.872C1053.61 185.872 1053.61 185.872 1053.6 185.872C1053.6 185.872 1053.6 185.872 1053.6 185.872C1053.6 185.872 1053.6 185.872 1053.59 185.872C1053.59 185.872 1053.59 185.872 1053.59 185.872C1053.59 185.872 1053.59 185.872 1053.58 185.872C1053.58 185.872 1053.58 185.872 1053.58 185.872C1053.58 185.872 1053.58 185.872 1053.57 185.872C1053.57 185.872 1053.57 185.872 1053.57 185.872C1053.57 185.872 1053.57 185.872 1053.56 185.872C1053.56 185.872 1053.56 185.872 1053.56 185.872C1053.56 185.872 1053.55 185.872 1053.55 185.872C1053.55 185.872 1053.55 185.872 1053.55 185.872C1053.55 185.872 1053.54 185.872 1053.54 185.872C1053.54 185.872 1053.54 185.872 1053.54 185.872C1053.54 185.872 1053.53 185.872 1053.53 185.872C1053.53 185.872 1053.53 185.872 1053.53 185.872C1053.53 185.872 1053.52 185.872 1053.52 185.872C1053.52 185.872 1053.52 185.872 1053.52 185.872C1053.52 185.872 1053.51 185.872 1053.51 185.872C1053.51 185.872 1053.51 185.872 1053.51 185.872C1053.51 185.872 1053.5 185.872 1053.5 185.872C1053.5 185.872 1053.5 185.872 1053.5 185.872C1053.49 185.872 1053.49 185.872 1053.49 185.872C1053.49 185.872 1053.49 185.872 1053.49 185.872C1053.48 185.872 1053.48 185.872 1053.48 185.872C1053.48 185.872 1053.48 185.872 1053.48 185.872C1053.47 185.872 1053.47 185.872 1053.47 185.872C1053.47 185.872 1053.47 185.872 1053.47 185.872C1053.46 185.872 1053.46 185.872 1053.46 185.872C1053.46 185.872 1053.46 185.872 1053.46 185.872C1053.45 185.872 1053.45 185.872 1053.45 185.872C1053.45 185.872 1053.45 185.872 1053.45 185.872C1053.44 185.872 1053.44 185.872 1053.44 185.872C1053.44 185.872 1053.44 185.872 1053.44 185.872C1053.43 185.872 1053.43 185.872 1053.43 185.872C1053.43 185.872 1053.43 185.872 1053.43 185.872C1053.42 185.872 1053.42 185.872 1053.42 185.872C1053.42 185.872 1053.42 185.872 1053.41 185.872C1053.41 185.872 1053.41 185.872 1053.41 185.872C1053.41 185.872 1053.41 185.872 1053.4 185.872C1053.4 185.872 1053.4 185.872 1053.4 185.872C1053.4 185.872 1053.4 185.872 1053.39 185.872C1053.39 185.872 1053.39 185.872 1053.39 185.872C1053.39 185.872 1053.39 185.872 1053.38 185.872C1053.38 185.872 1053.38 185.872 1053.38 185.872C1053.38 185.872 1053.38 185.872 1053.37 185.872C1053.37 185.872 1053.37 185.872 1053.37 185.872C1053.37 185.872 1053.37 185.872 1053.36 185.872C1053.36 185.872 1053.36 185.872 1053.36 185.872C1053.36 185.872 1053.36 185.872 1053.35 185.872C1053.35 185.872 1053.35 185.872 1053.35 185.872C1053.35 185.872 1053.35 185.872 1053.34 185.872C1053.34 185.872 1053.34 185.872 1053.34 185.872C1053.34 185.872 1053.34 185.872 1053.33 185.872C1053.33 185.872 1053.33 185.872 1053.33 185.872C1053.33 185.872 1053.33 185.872 1053.32 185.872C1053.32 185.872 1053.32 185.872 1053.32 185.872C1053.32 185.872 1053.32 185.872 1053.31 185.872C1053.31 185.872 1053.31 185.872 1053.31 185.872C1053.31 185.872 1053.31 185.872 1053.3 185.872C1053.3 185.872 1053.3 185.872 1053.3 185.872C1053.3 185.872 1053.3 185.872 1053.29 185.872C1053.29 185.872 1053.29 185.872 1053.29 185.872C1053.29 185.872 1053.29 185.872 1053.28 185.872C1053.28 185.872 1053.28 185.872 1053.28 185.872C1053.28 185.872 1053.28 185.872 1053.27 185.872C1053.27 185.872 1053.27 185.872 1053.27 185.872C1053.27 185.872 1053.27 185.872 1053.26 185.872C1053.26 185.872 1053.26 185.872 1053.26 185.872C1053.26 185.872 1053.26 185.872 1053.25 185.872C1053.25 185.872 1053.25 185.872 1053.25 185.872C1053.25 185.872 1053.25 185.872 1053.24 185.872C1053.24 185.872 1053.24 185.872 1053.24 185.872C1053.24 185.872 1053.24 185.872 1053.23 185.872C1053.23 185.872 1053.23 185.872 1053.23 185.872C1053.23 185.872 1053.23 185.872 1053.22 185.872C1053.22 185.872 1053.22 185.872 1053.22 185.872C1053.22 185.872 1053.22 185.872 1053.21 185.872C1053.21 185.872 1053.21 185.872 1053.21 185.872C1053.21 185.872 1053.21 185.872 1053.2 185.872C1053.2 185.872 1053.2 185.872 1053.2 185.872C1053.2 185.872 1053.2 185.872 1053.19 185.872C1053.19 185.872 1053.19 185.872 1053.19 185.872C1053.19 185.872 1053.19 185.872 1053.18 185.872C1053.18 185.872 1053.18 185.872 1053.18 185.872C1053.18 185.872 1053.18 185.872 1053.17 185.872C1053.17 185.872 1053.17 185.872 1053.17 185.872C1053.17 185.872 1053.17 185.872 1053.16 185.872C1053.16 185.872 1053.16 185.872 1053.16 185.872C1053.16 185.872 1053.16 185.872 1053.15 185.872C1053.15 185.872 1053.15 185.872 1053.15 185.872C1053.15 185.872 1053.15 185.872 1053.15 185.872C1053.14 185.872 1053.14 185.872 1053.14 185.872C1053.14 185.872 1053.14 185.872 1053.14 185.872C1053.13 185.872 1053.13 185.872 1053.13 185.872C1053.13 185.872 1053.13 185.872 1053.13 185.872C1053.12 185.872 1053.12 185.872 1053.12 185.872C1053.12 185.872 1053.12 185.872 1053.12 185.872C1053.11 185.872 1053.11 185.872 1053.11 185.872C1053.11 185.872 1053.11 185.872 1053.11 185.872C1053.1 185.872 1053.1 185.872 1053.1 185.872C1053.1 185.872 1053.1 185.872 1053.1 185.872C1053.09 185.872 1053.09 185.872 1053.09 185.872C1053.09 185.872 1053.09 185.872 1053.09 185.872C1053.08 185.872 1053.08 185.872 1053.08 185.872C1053.08 185.872 1053.08 185.872 1053.08 185.872C1053.07 185.872 1053.07 185.872 1053.07 185.872C1053.07 185.872 1053.07 185.872 1053.07 185.872C1053.07 185.872 1053.06 185.872 1053.06 185.872C1053.06 185.872 1053.06 185.872 1053.06 185.872C1053.06 185.872 1053.05 185.872 1053.05 185.872C1053.05 185.872 1053.05 185.872 1053.05 185.872C1053.05 185.872 1053.04 185.872 1053.04 185.872C1053.04 185.872 1053.04 185.872 1053.04 185.872C1053.04 185.872 1053.03 185.872 1053.03 185.872C1053.03 185.872 1053.03 185.872 1053.03 185.872C1053.03 185.872 1053.02 185.872 1053.02 185.872C1053.02 185.872 1053.02 185.872 1053.02 185.872C1053.02 185.872 1053.01 185.872 1053.01 185.872C1053.01 185.872 1053.01 185.872 1053.01 185.872C1053.01 185.872 1053.01 185.872 1053 185.872C1053 185.872 1053 185.872 1053 185.872C1053 185.872 1053 185.872 1052.99 185.872C1052.99 185.872 1052.99 185.872 1052.99 185.872C1052.99 185.872 1052.99 185.872 1052.98 185.872C1052.98 185.872 1052.98 185.872 1052.98 185.872C1052.98 185.872 1052.98 185.872 1052.97 185.872C1052.97 185.872 1052.97 185.872 1052.97 185.872C1052.97 185.872 1052.97 185.872 1052.97 185.872C1052.96 185.872 1052.96 185.872 1052.96 185.872C1052.96 185.872 1052.96 185.872 1052.96 185.872C1052.95 185.872 1052.95 185.872 1052.95 185.872C1052.95 185.872 1052.95 185.872 1052.95 185.872C1052.94 185.872 1052.94 185.872 1052.94 185.872C1052.94 185.872 1052.94 185.872 1052.94 185.872C1052.93 185.872 1052.93 185.872 1052.93 185.872C1052.93 185.872 1052.93 185.872 1052.93 185.872C1052.93 185.872 1052.92 185.872 1052.92 185.872C1052.92 185.872 1052.92 185.872 1052.92 185.872C1052.92 185.872 1052.91 185.872 1052.91 185.872C1052.91 185.872 1052.91 185.872 1052.91 185.872C1052.91 185.872 1052.9 185.872 1052.9 185.872C1052.9 185.872 1052.9 185.872 1052.9 185.872C1052.9 185.872 1052.89 185.872 1052.89 185.872C1052.89 185.872 1052.89 185.872 1052.89 185.872C1052.89 185.872 1052.89 185.872 1052.88 185.872C1052.88 185.872 1052.88 185.872 1052.88 185.872C1052.88 185.872 1052.88 185.872 1052.87 185.872C1052.87 185.872 1052.87 185.872 1052.87 185.872C1052.87 185.872 1052.87 185.872 1052.86 185.872C1052.86 185.872 1052.86 185.872 1052.86 185.872C1052.86 185.872 1052.86 185.872 1052.86 185.872C1052.85 185.872 1052.85 185.872 1052.85 185.872C1052.85 185.872 1052.85 185.872 1052.85 185.872C1052.84 185.872 1052.84 185.872 1052.84 185.872C1052.84 185.872 1052.84 185.872 1052.84 185.872C1052.83 185.872 1052.83 185.872 1052.83 185.872C1052.83 185.872 1052.83 185.872 1052.83 185.872C1052.83 185.872 1052.82 185.872 1052.82 185.872C1052.82 185.872 1052.82 185.872 1052.82 185.872C1052.82 185.872 1052.81 185.872 1052.81 185.872C1052.81 185.872 1052.81 185.872 1052.81 185.872C1052.81 185.872 1052.8 185.872 1052.8 185.872C1052.8 185.872 1052.8 185.872 1052.8 185.872C1052.8 185.872 1052.8 185.872 1052.79 185.872C1052.79 185.872 1052.79 185.872 1052.79 185.872C1052.79 185.872 1052.79 185.872 1052.78 185.872C1052.78 185.872 1052.78 185.872 1052.78 185.872C1052.78 185.872 1052.78 185.872 1052.77 185.872C1052.77 185.872 1052.77 185.872 1052.77 185.872C1052.77 185.872 1052.77 185.872 1052.77 185.872C1052.76 185.872 1052.76 185.872 1052.76 185.872C1052.76 185.872 1052.76 185.872 1052.76 185.872C1052.75 185.872 1052.75 185.872 1052.75 185.872C1052.75 185.872 1052.75 185.872 1052.75 185.872C1052.75 185.872 1052.74 185.872 1052.74 185.872C1052.74 185.872 1052.74 185.872 1052.74 185.872C1052.74 185.872 1052.73 185.872 1052.73 185.872C1052.73 185.872 1052.73 185.872 1052.73 185.872C1052.73 185.872 1052.73 185.872 1052.72 185.872C1052.72 185.872 1052.72 185.872 1052.72 185.872C1052.72 185.872 1052.72 185.872 1052.71 185.872C1052.71 185.872 1052.71 185.872 1052.71 185.872C1052.71 185.872 1052.71 185.872 1052.7 185.872C1052.7 185.872 1052.7 185.872 1052.7 185.872C1052.7 185.872 1052.7 185.872 1052.7 185.872C1052.69 185.872 1052.69 185.872 1052.69 185.872C1052.69 185.872 1052.69 185.872 1052.69 185.872C1052.68 185.872 1052.68 185.872 1052.68 185.872C1052.68 185.872 1052.68 185.872 1052.68 185.872C1052.68 185.872 1052.67 185.872 1052.67 185.872C1052.67 185.872 1052.67 185.872 1052.67 185.872C1052.67 185.872 1052.66 185.872 1052.66 185.872C1052.66 185.872 1052.66 185.872 1052.66 185.872C1052.66 185.872 1052.66 185.872 1052.65 185.872C1052.65 185.872 1052.65 185.872 1052.65 185.872C1052.65 185.872 1052.65 185.872 1052.64 185.872C1052.64 185.872 1052.64 185.872 1052.64 185.872C1052.64 185.872 1052.64 185.872 1052.64 185.872C1052.63 185.872 1052.63 185.872 1052.63 185.872C1052.63 185.872 1052.63 185.872 1052.63 185.872C1052.62 185.872 1052.62 185.872 1052.62 185.872C1052.62 185.872 1052.62 185.872 1052.62 185.872C1052.62 185.872 1052.61 185.872 1052.61 185.872C1052.61 185.872 1052.61 185.872 1052.61 185.872C1052.61 185.872 1052.6 185.872 1052.6 185.872C1052.6 185.872 1052.6 185.872 1052.6 185.872C1052.6 185.872 1052.6 185.872 1052.59 185.872C1052.59 185.872 1052.59 185.872 1052.59 185.872C1052.59 185.872 1052.59 185.872 1052.59 185.872C1052.58 185.872 1052.58 185.872 1052.58 185.872C1052.58 185.872 1052.58 185.872 1052.58 185.872C1052.57 185.872 1052.57 185.872 1052.57 185.872C1052.57 185.872 1052.57 185.872 1052.57 185.872C1052.57 185.872 1052.56 185.872 1052.56 185.872C1052.56 185.872 1052.56 185.872 1052.56 185.872C1052.56 185.872 1052.55 185.872 1052.55 185.872C1052.55 185.872 1052.55 185.872 1052.55 185.872C1052.55 185.872 1052.55 185.872 1052.54 185.872C1052.54 185.872 1052.54 185.872 1052.54 185.872C1052.54 185.872 1052.54 185.872 1052.53 185.872C1052.53 185.872 1052.53 185.872 1052.53 185.872C1052.53 185.872 1052.53 185.872 1052.53 185.872C1052.52 185.872 1052.52 185.872 1052.52 185.872C1052.52 185.872 1052.52 185.872 1052.52 185.872C1052.52 185.872 1052.51 185.872 1052.51 185.872C1052.51 185.872 1052.51 185.872 1052.51 185.872C1052.51 185.872 1052.5 185.872 1052.5 185.872C1052.5 185.872 1052.5 185.872 1052.5 185.872C1052.5 185.872 1052.5 185.872 1052.49 185.872C1052.49 185.872 1052.49 185.872 1052.49 185.872C1052.49 185.872 1052.49 185.872 1052.49 185.872C1052.48 185.872 1052.48 185.872 1052.48 185.872C1052.48 185.872 1052.48 185.872 1052.48 185.872C1052.47 185.872 1052.47 185.872 1052.47 185.872V191.872V197.872C1052.47 197.872 1052.47 197.872 1052.48 197.872C1052.48 197.872 1052.48 197.872 1052.48 197.872C1052.48 197.872 1052.48 197.872 1052.49 197.872C1052.49 197.872 1052.49 197.872 1052.49 197.872C1052.49 197.872 1052.49 197.872 1052.49 197.872C1052.5 197.872 1052.5 197.872 1052.5 197.872C1052.5 197.872 1052.5 197.872 1052.5 197.872C1052.5 197.872 1052.51 197.872 1052.51 197.872C1052.51 197.872 1052.51 197.872 1052.51 197.872C1052.51 197.872 1052.52 197.872 1052.52 197.872C1052.52 197.872 1052.52 197.872 1052.52 197.872C1052.52 197.872 1052.52 197.872 1052.53 197.872C1052.53 197.872 1052.53 197.872 1052.53 197.872C1052.53 197.872 1052.53 197.872 1052.53 197.872C1052.54 197.872 1052.54 197.872 1052.54 197.872C1052.54 197.872 1052.54 197.872 1052.54 197.872C1052.55 197.872 1052.55 197.872 1052.55 197.872C1052.55 197.872 1052.55 197.872 1052.55 197.872C1052.55 197.872 1052.56 197.872 1052.56 197.872C1052.56 197.872 1052.56 197.872 1052.56 197.872C1052.56 197.872 1052.57 197.872 1052.57 197.872C1052.57 197.872 1052.57 197.872 1052.57 197.872C1052.57 197.872 1052.57 197.872 1052.58 197.872C1052.58 197.872 1052.58 197.872 1052.58 197.872C1052.58 197.872 1052.58 197.872 1052.59 197.872C1052.59 197.872 1052.59 197.872 1052.59 197.872C1052.59 197.872 1052.59 197.872 1052.59 197.872C1052.6 197.872 1052.6 197.872 1052.6 197.872C1052.6 197.872 1052.6 197.872 1052.6 197.872C1052.6 197.872 1052.61 197.872 1052.61 197.872C1052.61 197.872 1052.61 197.872 1052.61 197.872C1052.61 197.872 1052.62 197.872 1052.62 197.872C1052.62 197.872 1052.62 197.872 1052.62 197.872C1052.62 197.872 1052.62 197.872 1052.63 197.872C1052.63 197.872 1052.63 197.872 1052.63 197.872C1052.63 197.872 1052.63 197.872 1052.64 197.872C1052.64 197.872 1052.64 197.872 1052.64 197.872C1052.64 197.872 1052.64 197.872 1052.64 197.872C1052.65 197.872 1052.65 197.872 1052.65 197.872C1052.65 197.872 1052.65 197.872 1052.65 197.872C1052.66 197.872 1052.66 197.872 1052.66 197.872C1052.66 197.872 1052.66 197.872 1052.66 197.872C1052.66 197.872 1052.67 197.872 1052.67 197.872C1052.67 197.872 1052.67 197.872 1052.67 197.872C1052.67 197.872 1052.68 197.872 1052.68 197.872C1052.68 197.872 1052.68 197.872 1052.68 197.872C1052.68 197.872 1052.68 197.872 1052.69 197.872C1052.69 197.872 1052.69 197.872 1052.69 197.872C1052.69 197.872 1052.69 197.872 1052.7 197.872C1052.7 197.872 1052.7 197.872 1052.7 197.872C1052.7 197.872 1052.7 197.872 1052.7 197.872C1052.71 197.872 1052.71 197.872 1052.71 197.872C1052.71 197.872 1052.71 197.872 1052.71 197.872C1052.72 197.872 1052.72 197.872 1052.72 197.872C1052.72 197.872 1052.72 197.872 1052.72 197.872C1052.73 197.872 1052.73 197.872 1052.73 197.872C1052.73 197.872 1052.73 197.872 1052.73 197.872C1052.73 197.872 1052.74 197.872 1052.74 197.872C1052.74 197.872 1052.74 197.872 1052.74 197.872C1052.74 197.872 1052.75 197.872 1052.75 197.872C1052.75 197.872 1052.75 197.872 1052.75 197.872C1052.75 197.872 1052.75 197.872 1052.76 197.872C1052.76 197.872 1052.76 197.872 1052.76 197.872C1052.76 197.872 1052.76 197.872 1052.77 197.872C1052.77 197.872 1052.77 197.872 1052.77 197.872C1052.77 197.872 1052.77 197.872 1052.77 197.872C1052.78 197.872 1052.78 197.872 1052.78 197.872C1052.78 197.872 1052.78 197.872 1052.78 197.872C1052.79 197.872 1052.79 197.872 1052.79 197.872C1052.79 197.872 1052.79 197.872 1052.79 197.872C1052.8 197.872 1052.8 197.872 1052.8 197.872C1052.8 197.872 1052.8 197.872 1052.8 197.872C1052.8 197.872 1052.81 197.872 1052.81 197.872C1052.81 197.872 1052.81 197.872 1052.81 197.872C1052.81 197.872 1052.82 197.872 1052.82 197.872C1052.82 197.872 1052.82 197.872 1052.82 197.872C1052.82 197.872 1052.83 197.872 1052.83 197.872C1052.83 197.872 1052.83 197.872 1052.83 197.872C1052.83 197.872 1052.83 197.872 1052.84 197.872C1052.84 197.872 1052.84 197.872 1052.84 197.872C1052.84 197.872 1052.84 197.872 1052.85 197.872C1052.85 197.872 1052.85 197.872 1052.85 197.872C1052.85 197.872 1052.85 197.872 1052.86 197.872C1052.86 197.872 1052.86 197.872 1052.86 197.872C1052.86 197.872 1052.86 197.872 1052.86 197.872C1052.87 197.872 1052.87 197.872 1052.87 197.872C1052.87 197.872 1052.87 197.872 1052.87 197.872C1052.88 197.872 1052.88 197.872 1052.88 197.872C1052.88 197.872 1052.88 197.872 1052.88 197.872C1052.89 197.872 1052.89 197.872 1052.89 197.872C1052.89 197.872 1052.89 197.872 1052.89 197.872C1052.89 197.872 1052.9 197.872 1052.9 197.872C1052.9 197.872 1052.9 197.872 1052.9 197.872C1052.9 197.872 1052.91 197.872 1052.91 197.872C1052.91 197.872 1052.91 197.872 1052.91 197.872C1052.91 197.872 1052.92 197.872 1052.92 197.872C1052.92 197.872 1052.92 197.872 1052.92 197.872C1052.92 197.872 1052.93 197.872 1052.93 197.872C1052.93 197.872 1052.93 197.872 1052.93 197.872C1052.93 197.872 1052.93 197.872 1052.94 197.872C1052.94 197.872 1052.94 197.872 1052.94 197.872C1052.94 197.872 1052.94 197.872 1052.95 197.872C1052.95 197.872 1052.95 197.872 1052.95 197.872C1052.95 197.872 1052.95 197.872 1052.96 197.872C1052.96 197.872 1052.96 197.872 1052.96 197.872C1052.96 197.872 1052.96 197.872 1052.97 197.872C1052.97 197.872 1052.97 197.872 1052.97 197.872C1052.97 197.872 1052.97 197.872 1052.97 197.872C1052.98 197.872 1052.98 197.872 1052.98 197.872C1052.98 197.872 1052.98 197.872 1052.98 197.872C1052.99 197.872 1052.99 197.872 1052.99 197.872C1052.99 197.872 1052.99 197.872 1052.99 197.872C1053 197.872 1053 197.872 1053 197.872C1053 197.872 1053 197.872 1053 197.872C1053.01 197.872 1053.01 197.872 1053.01 197.872C1053.01 197.872 1053.01 197.872 1053.01 197.872C1053.01 197.872 1053.02 197.872 1053.02 197.872C1053.02 197.872 1053.02 197.872 1053.02 197.872C1053.02 197.872 1053.03 197.872 1053.03 197.872C1053.03 197.872 1053.03 197.872 1053.03 197.872C1053.03 197.872 1053.04 197.872 1053.04 197.872C1053.04 197.872 1053.04 197.872 1053.04 197.872C1053.04 197.872 1053.05 197.872 1053.05 197.872C1053.05 197.872 1053.05 197.872 1053.05 197.872C1053.05 197.872 1053.06 197.872 1053.06 197.872C1053.06 197.872 1053.06 197.872 1053.06 197.872C1053.06 197.872 1053.07 197.872 1053.07 197.872C1053.07 197.872 1053.07 197.872 1053.07 197.872C1053.07 197.872 1053.07 197.872 1053.08 197.872C1053.08 197.872 1053.08 197.872 1053.08 197.872C1053.08 197.872 1053.08 197.872 1053.09 197.872C1053.09 197.872 1053.09 197.872 1053.09 197.872C1053.09 197.872 1053.09 197.872 1053.1 197.872C1053.1 197.872 1053.1 197.872 1053.1 197.872C1053.1 197.872 1053.1 197.872 1053.11 197.872C1053.11 197.872 1053.11 197.872 1053.11 197.872C1053.11 197.872 1053.11 197.872 1053.12 197.872C1053.12 197.872 1053.12 197.872 1053.12 197.872C1053.12 197.872 1053.12 197.872 1053.13 197.872C1053.13 197.872 1053.13 197.872 1053.13 197.872C1053.13 197.872 1053.13 197.872 1053.14 197.872C1053.14 197.872 1053.14 197.872 1053.14 197.872C1053.14 197.872 1053.14 197.872 1053.15 197.872C1053.15 197.872 1053.15 197.872 1053.15 197.872C1053.15 197.872 1053.15 197.872 1053.15 197.872C1053.16 197.872 1053.16 197.872 1053.16 197.872C1053.16 197.872 1053.16 197.872 1053.16 197.872C1053.17 197.872 1053.17 197.872 1053.17 197.872C1053.17 197.872 1053.17 197.872 1053.17 197.872C1053.18 197.872 1053.18 197.872 1053.18 197.872C1053.18 197.872 1053.18 197.872 1053.18 197.872C1053.19 197.872 1053.19 197.872 1053.19 197.872C1053.19 197.872 1053.19 197.872 1053.19 197.872C1053.2 197.872 1053.2 197.872 1053.2 197.872C1053.2 197.872 1053.2 197.872 1053.2 197.872C1053.21 197.872 1053.21 197.872 1053.21 197.872C1053.21 197.872 1053.21 197.872 1053.21 197.872C1053.22 197.872 1053.22 197.872 1053.22 197.872C1053.22 197.872 1053.22 197.872 1053.22 197.872C1053.23 197.872 1053.23 197.872 1053.23 197.872C1053.23 197.872 1053.23 197.872 1053.23 197.872C1053.24 197.872 1053.24 197.872 1053.24 197.872C1053.24 197.872 1053.24 197.872 1053.24 197.872C1053.25 197.872 1053.25 197.872 1053.25 197.872C1053.25 197.872 1053.25 197.872 1053.25 197.872C1053.26 197.872 1053.26 197.872 1053.26 197.872C1053.26 197.872 1053.26 197.872 1053.26 197.872C1053.27 197.872 1053.27 197.872 1053.27 197.872C1053.27 197.872 1053.27 197.872 1053.27 197.872C1053.28 197.872 1053.28 197.872 1053.28 197.872C1053.28 197.872 1053.28 197.872 1053.28 197.872C1053.29 197.872 1053.29 197.872 1053.29 197.872C1053.29 197.872 1053.29 197.872 1053.29 197.872C1053.3 197.872 1053.3 197.872 1053.3 197.872C1053.3 197.872 1053.3 197.872 1053.3 197.872C1053.31 197.872 1053.31 197.872 1053.31 197.872C1053.31 197.872 1053.31 197.872 1053.31 197.872C1053.32 197.872 1053.32 197.872 1053.32 197.872C1053.32 197.872 1053.32 197.872 1053.32 197.872C1053.33 197.872 1053.33 197.872 1053.33 197.872C1053.33 197.872 1053.33 197.872 1053.33 197.872C1053.34 197.872 1053.34 197.872 1053.34 197.872C1053.34 197.872 1053.34 197.872 1053.34 197.872C1053.35 197.872 1053.35 197.872 1053.35 197.872C1053.35 197.872 1053.35 197.872 1053.35 197.872C1053.36 197.872 1053.36 197.872 1053.36 197.872C1053.36 197.872 1053.36 197.872 1053.36 197.872C1053.37 197.872 1053.37 197.872 1053.37 197.872C1053.37 197.872 1053.37 197.872 1053.37 197.872C1053.38 197.872 1053.38 197.872 1053.38 197.872C1053.38 197.872 1053.38 197.872 1053.38 197.872C1053.39 197.872 1053.39 197.872 1053.39 197.872C1053.39 197.872 1053.39 197.872 1053.39 197.872C1053.4 197.872 1053.4 197.872 1053.4 197.872C1053.4 197.872 1053.4 197.872 1053.4 197.872C1053.41 197.872 1053.41 197.872 1053.41 197.872C1053.41 197.872 1053.41 197.872 1053.41 197.872C1053.42 197.872 1053.42 197.872 1053.42 197.872C1053.42 197.872 1053.42 197.872 1053.43 197.872C1053.43 197.872 1053.43 197.872 1053.43 197.872C1053.43 197.872 1053.43 197.872 1053.44 197.872C1053.44 197.872 1053.44 197.872 1053.44 197.872C1053.44 197.872 1053.44 197.872 1053.45 197.872C1053.45 197.872 1053.45 197.872 1053.45 197.872C1053.45 197.872 1053.45 197.872 1053.46 197.872C1053.46 197.872 1053.46 197.872 1053.46 197.872C1053.46 197.872 1053.46 197.872 1053.47 197.872C1053.47 197.872 1053.47 197.872 1053.47 197.872C1053.47 197.872 1053.47 197.872 1053.48 197.872C1053.48 197.872 1053.48 197.872 1053.48 197.872C1053.48 197.872 1053.48 197.872 1053.49 197.872C1053.49 197.872 1053.49 197.872 1053.49 197.872C1053.49 197.872 1053.49 197.872 1053.5 197.872C1053.5 197.872 1053.5 197.872 1053.5 197.872C1053.5 197.872 1053.51 197.872 1053.51 197.872C1053.51 197.872 1053.51 197.872 1053.51 197.872C1053.51 197.872 1053.52 197.872 1053.52 197.872C1053.52 197.872 1053.52 197.872 1053.52 197.872C1053.52 197.872 1053.53 197.872 1053.53 197.872C1053.53 197.872 1053.53 197.872 1053.53 197.872C1053.53 197.872 1053.54 197.872 1053.54 197.872C1053.54 197.872 1053.54 197.872 1053.54 197.872C1053.54 197.872 1053.55 197.872 1053.55 197.872C1053.55 197.872 1053.55 197.872 1053.55 197.872C1053.55 197.872 1053.56 197.872 1053.56 197.872C1053.56 197.872 1053.56 197.872 1053.56 197.872C1053.57 197.872 1053.57 197.872 1053.57 197.872C1053.57 197.872 1053.57 197.872 1053.57 197.872C1053.58 197.872 1053.58 197.872 1053.58 197.872C1053.58 197.872 1053.58 197.872 1053.58 197.872C1053.59 197.872 1053.59 197.872 1053.59 197.872C1053.59 197.872 1053.59 197.872 1053.59 197.872C1053.6 197.872 1053.6 197.872 1053.6 197.872C1053.6 197.872 1053.6 197.872 1053.6 197.872C1053.61 197.872 1053.61 197.872 1053.61 197.872C1053.61 197.872 1053.61 197.872 1053.62 197.872C1053.62 197.872 1053.62 197.872 1053.62 197.872C1053.62 197.872 1053.62 197.872 1053.63 197.872C1053.63 197.872 1053.63 197.872 1053.63 197.872C1053.63 197.872 1053.63 197.872 1053.64 197.872C1053.64 197.872 1053.64 197.872 1053.64 197.872C1053.64 197.872 1053.64 197.872 1053.65 197.872C1053.65 197.872 1053.65 197.872 1053.65 197.872C1053.65 197.872 1053.66 197.872 1053.66 197.872C1053.66 197.872 1053.66 197.872 1053.66 197.872C1053.66 197.872 1053.67 197.872 1053.67 197.872C1053.67 197.872 1053.67 197.872 1053.67 197.872C1053.67 197.872 1053.68 197.872 1053.68 197.872C1053.68 197.872 1053.68 197.872 1053.68 197.872C1053.68 197.872 1053.69 197.872 1053.69 197.872C1053.69 197.872 1053.69 197.872 1053.69 197.872C1053.7 197.872 1053.7 197.872 1053.7 197.872C1053.7 197.872 1053.7 197.872 1053.7 197.872C1053.71 197.872 1053.71 197.872 1053.71 197.872C1053.71 197.872 1053.71 197.872 1053.71 197.872C1053.72 197.872 1053.72 197.872 1053.72 197.872C1053.72 197.872 1053.72 197.872 1053.72 197.872C1053.73 197.872 1053.73 197.872 1053.73 197.872C1053.73 197.872 1053.73 197.872 1053.74 197.872C1053.74 197.872 1053.74 197.872 1053.74 197.872C1053.74 197.872 1053.74 197.872 1053.75 197.872C1053.75 197.872 1053.75 197.872 1053.75 197.872C1053.75 197.872 1053.75 197.872 1053.76 197.872C1053.76 197.872 1053.76 197.872 1053.76 197.872C1053.76 197.872 1053.77 197.872 1053.77 197.872C1053.77 197.872 1053.77 197.872 1053.77 197.872C1053.77 197.872 1053.78 197.872 1053.78 197.872C1053.78 197.872 1053.78 197.872 1053.78 197.872C1053.78 197.872 1053.79 197.872 1053.79 197.872C1053.79 197.872 1053.79 197.872 1053.79 197.872C1053.8 197.872 1053.8 197.872 1053.8 197.872C1053.8 197.872 1053.8 197.872 1053.8 197.872C1053.81 197.872 1053.81 197.872 1053.81 197.872C1053.81 197.872 1053.81 197.872 1053.81 197.872C1053.82 197.872 1053.82 197.872 1053.82 197.872C1053.82 197.872 1053.82 197.872 1053.83 197.872C1053.83 197.872 1053.83 197.872 1053.83 197.872C1053.83 197.872 1053.83 197.872 1053.84 197.872C1053.84 197.872 1053.84 197.872 1053.84 197.872C1053.84 197.872 1053.84 197.872 1053.85 197.872C1053.85 197.872 1053.85 197.872 1053.85 197.872C1053.85 197.872 1053.86 197.872 1053.86 197.872C1053.86 197.872 1053.86 197.872 1053.86 197.872C1053.86 197.872 1053.87 197.872 1053.87 197.872C1053.87 197.872 1053.87 197.872 1053.87 197.872C1053.87 197.872 1053.88 197.872 1053.88 197.872C1053.88 197.872 1053.88 197.872 1053.88 197.872C1053.89 197.872 1053.89 197.872 1053.89 197.872C1053.89 197.872 1053.89 197.872 1053.89 197.872C1053.9 197.872 1053.9 197.872 1053.9 197.872C1053.9 197.872 1053.9 197.872 1053.91 197.872C1053.91 197.872 1053.91 197.872 1053.91 197.872C1053.91 197.872 1053.91 197.872 1053.92 197.872C1053.92 197.872 1053.92 197.872 1053.92 197.872C1053.92 197.872 1053.92 197.872 1053.93 197.872C1053.93 197.872 1053.93 197.872 1053.93 197.872C1053.93 197.872 1053.94 197.872 1053.94 197.872C1053.94 197.872 1053.94 197.872 1053.94 197.872C1053.94 197.872 1053.95 197.872 1053.95 197.872C1053.95 197.872 1053.95 197.872 1053.95 197.872C1053.96 197.872 1053.96 197.872 1053.96 197.872C1053.96 197.872 1053.96 197.872 1053.96 197.872C1053.97 197.872 1053.97 197.872 1053.97 197.872C1053.97 197.872 1053.97 197.872 1053.97 197.872C1053.98 197.872 1053.98 197.872 1053.98 197.872C1053.98 197.872 1053.98 197.872 1053.99 197.872C1053.99 197.872 1053.99 197.872 1053.99 197.872C1053.99 197.872 1053.99 197.872 1054 197.872C1054 197.872 1054 197.872 1054 197.872C1054 197.872 1054.01 197.872 1054.01 197.872C1054.01 197.872 1054.01 197.872 1054.01 197.872C1054.01 197.872 1054.02 197.872 1054.02 197.872C1054.02 197.872 1054.02 197.872 1054.02 197.872C1054.03 197.872 1054.03 197.872 1054.03 197.872C1054.03 197.872 1054.03 197.872 1054.03 197.872C1054.04 197.872 1054.04 197.872 1054.04 197.872C1054.04 197.872 1054.04 197.872 1054.05 197.872C1054.05 197.872 1054.05 197.872 1054.05 197.872C1054.05 197.872 1054.05 197.872 1054.06 197.872C1054.06 197.872 1054.06 197.872 1054.06 197.872C1054.06 197.872 1054.07 197.872 1054.07 197.872C1054.07 197.872 1054.07 197.872 1054.07 197.872C1054.07 197.872 1054.08 197.872 1054.08 197.872C1054.08 197.872 1054.08 197.872 1054.08 197.872C1054.09 197.872 1054.09 197.872 1054.09 197.872C1054.09 197.872 1054.09 197.872 1054.09 197.872C1054.1 197.872 1054.1 197.872 1054.1 197.872C1054.1 197.872 1054.1 197.872 1054.11 197.872C1054.11 197.872 1054.11 197.872 1054.11 197.872C1054.11 197.872 1054.11 197.872 1054.12 197.872C1054.12 197.872 1054.12 197.872 1054.12 197.872C1054.12 197.872 1054.13 197.872 1054.13 197.872C1054.13 197.872 1054.13 197.872 1054.13 197.872C1054.13 197.872 1054.14 197.872 1054.14 197.872C1054.14 197.872 1054.14 197.872 1054.14 197.872C1054.15 197.872 1054.15 197.872 1054.15 197.872C1054.15 197.872 1054.15 197.872 1054.15 197.872C1054.16 197.872 1054.16 197.872 1054.16 197.872C1054.16 197.872 1054.16 197.872 1054.17 197.872C1054.17 197.872 1054.17 197.872 1054.17 197.872C1054.17 197.872 1054.17 197.872 1054.18 197.872C1054.18 197.872 1054.18 197.872 1054.18 197.872C1054.18 197.872 1054.19 197.872 1054.19 197.872C1054.19 197.872 1054.19 197.872 1054.19 197.872C1054.19 197.872 1054.2 197.872 1054.2 197.872C1054.2 197.872 1054.2 197.872 1054.2 197.872C1054.21 197.872 1054.21 197.872 1054.21 197.872C1054.21 197.872 1054.21 197.872 1054.21 197.872C1054.22 197.872 1054.22 197.872 1054.22 197.872C1054.22 197.872 1054.22 197.872 1054.23 197.872C1054.23 197.872 1054.23 197.872 1054.23 197.872C1054.23 197.872 1054.24 197.872 1054.24 197.872C1054.24 197.872 1054.24 197.872 1054.24 197.872C1054.24 197.872 1054.25 197.872 1054.25 197.872C1054.25 197.872 1054.25 197.872 1054.25 197.872C1054.26 197.872 1054.26 197.872 1054.26 197.872C1054.26 197.872 1054.26 197.872 1054.26 197.872C1054.27 197.872 1054.27 197.872 1054.27 197.872C1054.27 197.872 1054.27 197.872 1054.28 197.872C1054.28 197.872 1054.28 197.872 1054.28 197.872C1054.28 197.872 1054.29 197.872 1054.29 197.872C1054.29 197.872 1054.29 197.872 1054.29 197.872C1054.29 197.872 1054.3 197.872 1054.3 197.872C1054.3 197.872 1054.3 197.872 1054.3 197.872C1054.31 197.872 1054.31 197.872 1054.31 197.872C1054.31 197.872 1054.31 197.872 1054.31 197.872C1054.32 197.872 1054.32 197.872 1054.32 197.872C1054.32 197.872 1054.32 197.872 1054.33 197.872C1054.33 197.872 1054.33 197.872 1054.33 197.872C1054.33 197.872 1054.34 197.872 1054.34 197.872C1054.34 197.872 1054.34 197.872 1054.34 197.872C1054.34 197.872 1054.35 197.872 1054.35 197.872C1054.35 197.872 1054.35 197.872 1054.35 197.872C1054.36 197.872 1054.36 197.872 1054.36 197.872C1054.36 197.872 1054.36 197.872 1054.37 197.872C1054.37 197.872 1054.37 197.872 1054.37 197.872C1054.37 197.872 1054.37 197.872 1054.38 197.872C1054.38 197.872 1054.38 197.872 1054.38 197.872C1054.38 197.872 1054.39 197.872 1054.39 197.872C1054.39 197.872 1054.39 197.872 1054.39 197.872C1054.39 197.872 1054.4 197.872 1054.4 197.872C1054.4 197.872 1054.4 197.872 1054.4 197.872C1054.41 197.872 1054.41 197.872 1054.41 197.872C1054.41 197.872 1054.41 197.872 1054.42 197.872C1054.42 197.872 1054.42 197.872 1054.42 197.872C1054.42 197.872 1054.42 197.872 1054.43 197.872C1054.43 197.872 1054.43 197.872 1054.43 197.872C1054.43 197.872 1054.44 197.872 1054.44 197.872C1054.44 197.872 1054.44 197.872 1054.44 197.872C1054.45 197.872 1054.45 197.872 1054.45 197.872C1054.45 197.872 1054.45 197.872 1054.46 197.872C1054.46 197.872 1054.46 197.872 1054.46 197.872C1054.46 197.872 1054.46 197.872 1054.47 197.872C1054.47 197.872 1054.47 197.872 1054.47 197.872C1054.47 197.872 1054.48 197.872 1054.48 197.872C1054.48 197.872 1054.48 197.872 1054.48 197.872C1054.49 197.872 1054.49 197.872 1054.49 197.872C1054.49 197.872 1054.49 197.872 1054.49 197.872C1054.5 197.872 1054.5 197.872 1054.5 197.872C1054.5 197.872 1054.5 197.872 1054.51 197.872C1054.51 197.872 1054.51 197.872 1054.51 197.872C1054.51 197.872 1054.52 197.872 1054.52 197.872C1054.52 197.872 1054.52 197.872 1054.52 197.872C1054.52 197.872 1054.53 197.872 1054.53 197.872C1054.53 197.872 1054.53 197.872 1054.53 197.872C1054.54 197.872 1054.54 197.872 1054.54 197.872C1054.54 197.872 1054.54 197.872 1054.55 197.872C1054.55 197.872 1054.55 197.872 1054.55 197.872C1054.55 197.872 1054.56 197.872 1054.56 197.872C1054.56 197.872 1054.56 197.872 1054.56 197.872C1054.56 197.872 1054.57 197.872 1054.57 197.872C1054.57 197.872 1054.57 197.872 1054.57 197.872C1054.58 197.872 1054.58 197.872 1054.58 197.872C1054.58 197.872 1054.58 197.872 1054.59 197.872C1054.59 197.872 1054.59 197.872 1054.59 197.872C1054.59 197.872 1054.6 197.872 1054.6 197.872C1054.6 197.872 1054.6 197.872 1054.6 197.872C1054.6 197.872 1054.61 197.872 1054.61 197.872C1054.61 197.872 1054.61 197.872 1054.61 197.872C1054.62 197.872 1054.62 197.872 1054.62 197.872C1054.62 197.872 1054.62 197.872 1054.63 197.872C1054.63 197.872 1054.63 197.872 1054.63 197.872C1054.63 197.872 1054.64 197.872 1054.64 197.872C1054.64 197.872 1054.64 197.872 1054.64 197.872C1054.64 197.872 1054.65 197.872 1054.65 197.872C1054.65 197.872 1054.65 197.872 1054.65 197.872C1054.66 197.872 1054.66 197.872 1054.66 197.872C1054.66 197.872 1054.66 197.872 1054.67 197.872C1054.67 197.872 1054.67 197.872 1054.67 197.872C1054.67 197.872 1054.68 197.872 1054.68 197.872C1054.68 197.872 1054.68 197.872 1054.68 197.872C1054.69 197.872 1054.69 197.872 1054.69 197.872C1054.69 197.872 1054.69 197.872 1054.69 197.872C1054.7 197.872 1054.7 197.872 1054.7 197.872C1054.7 197.872 1054.7 197.872 1054.71 197.872C1054.71 197.872 1054.71 197.872 1054.71 197.872C1054.71 197.872 1054.72 197.872 1054.72 197.872C1054.72 197.872 1054.72 197.872 1054.72 197.872C1054.73 197.872 1054.73 197.872 1054.73 197.872C1054.73 197.872 1054.73 197.872 1054.74 197.872C1054.74 197.872 1054.74 197.872 1054.74 197.872C1054.74 197.872 1054.74 197.872 1054.75 197.872C1054.75 197.872 1054.75 197.872 1054.75 197.872C1054.75 197.872 1054.76 197.872 1054.76 197.872C1054.76 197.872 1054.76 197.872 1054.76 197.872C1054.77 197.872 1054.77 197.872 1054.77 197.872C1054.77 197.872 1054.77 197.872 1054.78 197.872C1054.78 197.872 1054.78 197.872 1054.78 197.872C1054.78 197.872 1054.79 197.872 1054.79 197.872C1054.79 197.872 1054.79 197.872 1054.79 197.872C1054.8 197.872 1054.8 197.872 1054.8 197.872C1054.8 197.872 1054.8 197.872 1054.8 197.872C1054.81 197.872 1054.81 197.872 1054.81 197.872C1054.81 197.872 1054.81 197.872 1054.82 197.872C1054.82 197.872 1054.82 197.872 1054.82 197.872C1054.82 197.872 1054.83 197.872 1054.83 197.872C1054.83 197.872 1054.83 197.872 1054.83 197.872C1054.84 197.872 1054.84 197.872 1054.84 197.872C1054.84 197.872 1054.84 197.872 1054.85 197.872C1054.85 197.872 1054.85 197.872 1054.85 197.872C1054.85 197.872 1054.86 197.872 1054.86 197.872C1054.86 197.872 1054.86 197.872 1054.86 197.872C1054.87 197.872 1054.87 197.872 1054.87 197.872C1054.87 197.872 1054.87 197.872 1054.87 197.872C1054.88 197.872 1054.88 197.872 1054.88 197.872C1054.88 197.872 1054.88 197.872 1054.89 197.872C1054.89 197.872 1054.89 197.872 1054.89 197.872C1054.89 197.872 1054.9 197.872 1054.9 197.872C1054.9 197.872 1054.9 197.872 1054.9 197.872C1054.91 197.872 1054.91 197.872 1054.91 197.872C1054.91 197.872 1054.91 197.872 1054.92 197.872C1054.92 197.872 1054.92 197.872 1054.92 197.872C1054.92 197.872 1054.93 197.872 1054.93 197.872C1054.93 197.872 1054.93 197.872 1054.93 197.872C1054.94 197.872 1054.94 197.872 1054.94 197.872C1054.94 197.872 1054.94 197.872 1054.95 197.872C1054.95 197.872 1054.95 197.872 1054.95 197.872C1054.95 197.872 1054.96 197.872 1054.96 197.872C1054.96 197.872 1054.96 197.872 1054.96 197.872C1054.97 197.872 1054.97 197.872 1054.97 197.872C1054.97 197.872 1054.97 197.872 1054.97 197.872C1054.98 197.872 1054.98 197.872 1054.98 197.872C1054.98 197.872 1054.98 197.872 1054.99 197.872C1054.99 197.872 1054.99 197.872 1054.99 197.872C1054.99 197.872 1055 197.872 1055 197.872C1055 197.872 1055 197.872 1055 197.872C1055.01 197.872 1055.01 197.872 1055.01 197.872C1055.01 197.872 1055.01 197.872 1055.02 197.872C1055.02 197.872 1055.02 197.872 1055.02 197.872C1055.02 197.872 1055.03 197.872 1055.03 197.872C1055.03 197.872 1055.03 197.872 1055.03 197.872C1055.04 197.872 1055.04 197.872 1055.04 197.872C1055.04 197.872 1055.04 197.872 1055.05 197.872C1055.05 197.872 1055.05 197.872 1055.05 197.872C1055.05 197.872 1055.06 197.872 1055.06 197.872C1055.06 197.872 1055.06 197.872 1055.06 197.872C1055.07 197.872 1055.07 197.872 1055.07 197.872C1055.07 197.872 1055.07 197.872 1055.08 197.872C1055.08 197.872 1055.08 197.872 1055.08 197.872C1055.08 197.872 1055.09 197.872 1055.09 197.872C1055.09 197.872 1055.09 197.872 1055.09 197.872C1055.1 197.872 1055.1 197.872 1055.1 197.872C1055.1 197.872 1055.1 197.872 1055.11 197.872C1055.11 197.872 1055.11 197.872 1055.11 197.872C1055.11 197.872 1055.12 197.872 1055.12 197.872C1055.12 197.872 1055.12 197.872 1055.12 197.872C1055.13 197.872 1055.13 197.872 1055.13 197.872C1055.13 197.872 1055.13 197.872 1055.14 197.872C1055.14 197.872 1055.14 197.872 1055.14 197.872C1055.14 197.872 1055.15 197.872 1055.15 197.872C1055.15 197.872 1055.15 197.872 1055.15 197.872C1055.16 197.872 1055.16 197.872 1055.16 197.872V191.872ZM1052.47 191.872L1054.37 186.18C1053.6 185.924 1052.83 185.668 1052.06 185.412L1050.17 191.104L1048.27 196.796C1049.04 197.052 1049.81 197.308 1050.57 197.564L1052.47 191.872ZM1050.17 191.104L1052.06 185.412C1045.59 183.254 1038.51 181.523 1030.84 180.199L1029.82 186.112L1028.8 192.025C1035.97 193.261 1042.45 194.858 1048.27 196.796L1050.17 191.104ZM1029.82 186.112L1030.87 180.205C1023.3 178.854 1015.14 178.192 1006.39 178.192V184.192V190.192C1014.54 190.192 1021.99 190.81 1028.76 192.019L1029.82 186.112ZM1006.39 184.192V178.192C991.707 178.192 979.481 180.841 970.423 186.88L973.752 191.872L977.08 196.864C983.382 192.663 992.916 190.192 1006.39 190.192V184.192ZM973.752 191.872L970.423 186.88C961.461 192.855 956.232 200.962 956.232 211.072H962.232H968.232C968.232 205.822 970.682 201.129 977.08 196.864L973.752 191.872ZM962.232 211.072H956.232C956.232 219.661 959.863 226.688 966.967 231.424L970.296 226.432L973.624 221.44C969.977 219.008 968.232 215.795 968.232 211.072H962.232ZM970.296 226.432L967.074 231.494C973.373 235.502 981.157 238.654 990.264 241.064L991.8 235.264L993.335 229.464C985.034 227.266 978.482 224.53 973.517 221.37L970.296 226.432ZM991.8 235.264L990.463 241.113C999.406 243.157 1008.73 245.33 1018.45 247.63L1019.83 241.792L1021.21 235.954C1011.47 233.646 1002.11 231.467 993.137 229.415L991.8 235.264ZM1019.83 241.792L1018.48 247.638C1028.03 249.841 1036.92 253.014 1045.18 257.143L1047.86 251.776L1050.55 246.409C1041.4 241.834 1031.6 238.351 1021.18 235.946L1019.83 241.792ZM1047.86 251.776L1045.37 257.233C1053.46 260.931 1059.78 266.053 1064.51 272.575L1069.37 269.056L1074.23 265.537C1068.2 257.211 1060.19 250.813 1050.36 246.319L1047.86 251.776ZM1069.37 269.056L1064.59 272.682C1069.19 278.754 1071.82 287.324 1071.82 299.008H1077.82H1083.82C1083.82 285.604 1080.81 274.206 1074.15 265.43L1069.37 269.056ZM1077.82 299.008H1071.82C1071.82 312.774 1066.38 324.636 1054.99 334.864L1059 339.328L1063.01 343.792C1076.71 331.492 1083.82 316.474 1083.82 299.008H1077.82ZM1059 339.328L1055 334.859C1044.24 344.495 1027.51 349.84 1003.7 349.84V355.84V361.84C1029.05 361.84 1049.18 356.177 1063 343.797L1059 339.328ZM1129.84 348.928L1134.08 344.685L1129.84 348.928ZM1129.84 74.752L1125.59 70.5093V70.5093L1129.84 74.752ZM1154.41 74.752L1150.17 78.9946L1150.25 79.0732L1150.33 79.1487L1154.41 74.752ZM1159.79 187.648H1153.79V203.102L1164.22 191.697L1159.79 187.648ZM1188.59 163.456L1191.86 168.484L1191.88 168.475L1191.89 168.466L1188.59 163.456ZM1268.46 162.688L1265.1 167.661L1265.15 167.69L1265.19 167.719L1268.46 162.688ZM1291.88 189.952L1286.45 192.489L1286.46 192.513L1286.47 192.536L1291.88 189.952ZM1294.57 348.928L1290.49 344.531L1290.41 344.607L1290.33 344.685L1294.57 348.928ZM1270 348.928L1265.75 353.171V353.171L1270 348.928ZM1255.02 197.248L1250.24 200.871L1250.3 200.952L1250.36 201.032L1255.02 197.248ZM1186.67 195.712L1190.19 200.57L1186.67 195.712ZM1159.79 221.44L1155.08 217.722L1153.79 219.357V221.44H1159.79ZM1154.41 348.928L1150.33 344.531L1150.25 344.607L1150.17 344.685L1154.41 348.928ZM1142.12 353.92V347.92C1138.79 347.92 1136.24 346.847 1134.08 344.685L1129.84 348.928L1125.59 353.171C1130.09 357.665 1135.73 359.92 1142.12 359.92V353.92ZM1129.84 348.928L1134.08 344.685C1131.92 342.524 1130.84 339.972 1130.84 336.64H1124.84H1118.84C1118.84 343.036 1121.1 348.676 1125.59 353.171L1129.84 348.928ZM1124.84 336.64H1130.84V87.424H1124.84H1118.84V336.64H1124.84ZM1124.84 87.424H1130.84C1130.84 83.7412 1131.98 81.0929 1134.08 78.9946L1129.84 74.752L1125.59 70.5093C1121.04 75.067 1118.84 80.8668 1118.84 87.424H1124.84ZM1129.84 74.752L1134.08 78.9946C1136.24 76.8332 1138.79 75.76 1142.12 75.76V69.76V63.76C1135.73 63.76 1130.09 66.0147 1125.59 70.5093L1129.84 74.752ZM1142.12 69.76V75.76C1145.46 75.76 1148.01 76.8332 1150.17 78.9946L1154.41 74.752L1158.65 70.5093C1154.16 66.0147 1148.52 63.76 1142.12 63.76V69.76ZM1154.41 74.752L1150.33 79.1487C1152.63 81.2829 1153.79 83.8843 1153.79 87.424H1159.79H1165.79C1165.79 80.7237 1163.36 74.8771 1158.49 70.3552L1154.41 74.752ZM1159.79 87.424H1153.79V187.648H1159.79H1165.79V87.424H1159.79ZM1159.79 187.648L1164.22 191.697C1172.04 183.14 1181.24 175.398 1191.86 168.484L1188.59 163.456L1185.31 158.428C1173.92 165.85 1163.92 174.236 1155.36 183.599L1159.79 187.648ZM1188.59 163.456L1191.89 168.466C1201.94 161.842 1214.92 158.32 1231.21 158.32V152.32V146.32C1213.2 146.32 1197.76 150.222 1185.29 158.446L1188.59 163.456ZM1231.21 152.32V158.32C1244.83 158.32 1256.02 161.532 1265.1 167.661L1268.46 162.688L1271.82 157.715C1260.42 150.02 1246.78 146.32 1231.21 146.32V152.32ZM1268.46 162.688L1265.19 167.719C1274.45 173.737 1281.52 181.943 1286.45 192.489L1291.88 189.952L1297.32 187.415C1291.49 174.921 1282.95 164.951 1271.73 157.657L1268.46 162.688ZM1291.88 189.952L1286.47 192.536C1291.42 202.91 1293.95 214.557 1293.95 227.584H1299.95H1305.95C1305.95 212.963 1303.1 199.522 1297.3 187.368L1291.88 189.952ZM1299.95 227.584H1293.95V336.64H1299.95H1305.95V227.584H1299.95ZM1299.95 336.64H1293.95C1293.95 339.825 1292.86 342.331 1290.49 344.531L1294.57 348.928L1298.65 353.325C1303.45 348.869 1305.95 343.183 1305.95 336.64H1299.95ZM1294.57 348.928L1290.33 344.685C1288.17 346.847 1285.62 347.92 1282.28 347.92V353.92V359.92C1288.68 359.92 1294.32 357.665 1298.81 353.171L1294.57 348.928ZM1282.28 353.92V347.92C1278.95 347.92 1276.4 346.847 1274.24 344.685L1270 348.928L1265.75 353.171C1270.25 357.665 1275.89 359.92 1282.28 359.92V353.92ZM1270 348.928L1274.24 344.685C1272.08 342.524 1271 339.972 1271 336.64H1265H1259C1259 343.036 1261.26 348.676 1265.75 353.171L1270 348.928ZM1265 336.64H1271V231.424H1265H1259V336.64H1265ZM1265 231.424H1271C1271 215.976 1267.48 203.071 1259.68 193.464L1255.02 197.248L1250.36 201.032C1255.87 207.809 1259 217.688 1259 231.424H1265ZM1255.02 197.248L1259.8 193.625C1251.84 183.116 1238.9 178.576 1222.76 178.576V184.576V190.576C1236.83 190.576 1245.4 194.484 1250.24 200.871L1255.02 197.248ZM1222.76 184.576V178.576C1207.8 178.576 1194.51 182.618 1183.15 190.854L1186.67 195.712L1190.19 200.57C1199.31 193.958 1210.08 190.576 1222.76 190.576V184.576ZM1186.67 195.712L1183.15 190.854C1172.47 198.595 1163.11 207.553 1155.08 217.722L1159.79 221.44L1164.5 225.158C1171.83 215.871 1180.39 207.677 1190.19 200.57L1186.67 195.712ZM1159.79 221.44H1153.79V336.64H1159.79H1165.79V221.44H1159.79ZM1159.79 336.64H1153.79C1153.79 339.825 1152.7 342.331 1150.33 344.531L1154.41 348.928L1158.49 353.325C1163.29 348.869 1165.79 343.183 1165.79 336.64H1159.79ZM1154.41 348.928L1150.17 344.685C1148.01 346.847 1145.46 347.92 1142.12 347.92V353.92V359.92C1148.52 359.92 1154.16 357.665 1158.65 353.171L1154.41 348.928Z" fill="#FABD2F" mask="url(#path-2-outside-1_6_340)"/>
</svg>
