<svg width="1329" height="462" viewBox="0 0 1329 462" fill="none" xmlns="http://www.w3.org/2000/svg">
<path d="M285 20C337.467 20 380 62.533 380 115V305C380 357.467 337.467 400 285 400H95C42.533 400 0 357.467 0 305V115C0 62.533 42.533 20 95 20H285ZM190 66.7578C167.56 66.7578 146.039 75.6718 130.172 91.5391C114.305 107.406 105.391 128.927 105.391 151.367V172.148H110.875C89.8695 180.222 74.961 200.589 74.9609 224.438V290.562C74.961 321.49 100.033 346.562 130.961 346.562H249.039C279.967 346.562 305.039 321.49 305.039 290.562V224.438C305.039 200.589 290.13 180.222 269.125 172.148H274.609V151.367C274.609 128.927 265.695 107.406 249.828 91.5391L249.08 90.8008C233.288 75.3957 212.089 66.7578 190 66.7578ZM190 210C205.576 210 218.203 222.461 218.203 237.832C218.203 246.595 214.097 254.41 207.683 259.512C206.543 260.778 205.784 262.394 205.59 264.18H205.586V289.414L205.581 289.816C205.368 298.238 198.473 305 190 305C181.527 305 174.632 298.238 174.419 289.816L174.414 289.414V264.18H174.41C174.216 262.393 173.456 260.778 172.316 259.512C165.902 254.41 161.797 246.595 161.797 237.832C161.797 222.461 174.424 210 190 210ZM190 100.897C203.176 100.897 215.821 106.05 225.241 115.239L225.688 115.68C235.152 125.145 240.47 137.982 240.47 151.367H240.469V168.438H139.531V151.367H139.53L139.534 150.74C139.697 137.582 144.996 124.997 154.312 115.68C163.777 106.215 176.615 100.897 190 100.897Z" fill="#282828"/>
<mask id="path-2-outside-1_6_342" maskUnits="userSpaceOnUse" x="495" y="63" width="812" height="299" fill="black">
<rect fill="white" x="495" y="63" width="812" height="299"/>
<path d="M518.616 353.92C513.752 353.92 509.656 352.256 506.328 348.928C503 345.6 501.336 341.504 501.336 336.64V87.424C501.336 82.56 503 78.464 506.328 75.136C509.656 71.552 513.752 69.76 518.616 69.76C523.48 69.76 527.576 71.552 530.904 75.136C534.488 78.464 536.28 82.56 536.28 87.424V244.48L627.672 160C629.208 158.72 630.872 157.568 632.664 156.544C634.712 155.52 636.888 155.008 639.192 155.008C645.848 155.008 650.328 156.928 652.632 160.768C654.936 164.352 656.088 168.064 656.088 171.904C656.088 173.44 655.704 175.36 654.936 177.664C654.168 179.712 652.376 182.144 649.56 184.96L594.264 234.496L663.768 326.656C666.328 329.984 667.608 333.44 667.608 337.024C667.608 342.144 665.944 346.24 662.616 349.312C659.288 352.384 655.064 353.92 649.944 353.92C644.568 353.92 639.832 351.488 635.736 346.624L569.688 256.768L536.28 287.104V336.64C536.28 341.504 534.488 345.6 530.904 348.928C527.576 352.256 523.48 353.92 518.616 353.92ZM793.611 355.84C773.899 355.84 756.619 351.616 741.771 343.168C726.923 334.464 715.403 322.56 707.211 307.456C699.275 292.096 695.307 274.304 695.307 254.08C695.307 233.856 699.275 216.192 707.211 201.088C715.403 185.728 726.923 173.824 741.771 165.376C756.619 156.672 773.899 152.32 793.611 152.32C813.323 152.32 830.475 156.672 845.067 165.376C859.915 173.824 871.435 185.728 879.627 201.088C887.819 216.192 891.915 233.856 891.915 254.08C891.915 274.304 887.819 292.096 879.627 307.456C871.435 322.56 859.915 334.464 845.067 343.168C830.475 351.616 813.323 355.84 793.611 355.84ZM793.611 323.968C803.339 323.968 813.067 321.664 822.795 317.056C832.523 312.448 840.587 305.024 846.987 294.784C853.643 284.288 856.971 270.592 856.971 253.696C856.971 236.8 853.643 223.232 846.987 212.992C840.587 202.752 832.523 195.456 822.795 191.104C813.067 186.496 803.339 184.192 793.611 184.192C783.883 184.192 774.027 186.496 764.043 191.104C754.315 195.456 746.251 202.752 739.851 212.992C733.451 223.232 730.251 236.8 730.251 253.696C730.251 270.592 733.451 284.288 739.851 294.784C746.251 305.024 754.315 312.448 764.043 317.056C774.027 321.664 783.883 323.968 793.611 323.968ZM1004.2 355.84C990.116 355.84 977.316 354.304 965.796 351.232C954.532 348.16 944.036 343.936 934.308 338.56C929.956 335.488 927.78 331.264 927.78 325.888C927.78 322.048 929.188 318.592 932.004 315.52C934.82 312.192 938.404 310.528 942.756 310.528C945.06 310.528 947.364 311.04 949.668 312.064C956.58 315.136 964.132 317.824 972.324 320.128C980.772 322.432 990.628 323.584 1001.89 323.584C1016.74 323.584 1027.49 321.28 1034.15 316.672C1041.06 311.808 1044.52 305.024 1044.52 296.32C1044.52 290.688 1041.7 286.336 1036.07 283.264C1030.69 280.192 1023.52 277.632 1014.56 275.584C1005.86 273.28 996.644 270.976 986.916 268.672C977.188 266.112 967.844 262.784 958.884 258.688C950.18 254.336 943.012 248.576 937.38 241.408C932.004 233.984 929.316 224.512 929.316 212.992C929.316 195.584 935.588 181.12 948.132 169.6C960.676 158.08 979.364 152.32 1004.2 152.32C1014.69 152.32 1024.55 153.216 1033.76 155.008C1043.24 156.8 1051.94 159.104 1059.88 161.92C1063.46 162.944 1066.15 164.992 1067.94 168.064C1069.99 170.88 1071.01 173.696 1071.01 176.512C1071.01 180.608 1069.48 184.192 1066.4 187.264C1063.59 190.336 1060 191.872 1055.65 191.872C1054.63 191.872 1053.73 191.872 1052.96 191.872C1052.2 191.616 1051.43 191.36 1050.66 191.104C1044.52 189.056 1037.73 187.392 1030.31 186.112C1023.14 184.832 1015.33 184.192 1006.88 184.192C992.804 184.192 981.924 186.752 974.244 191.872C966.564 196.992 962.724 203.392 962.724 211.072C962.724 217.728 965.412 222.848 970.788 226.432C976.42 230.016 983.588 232.96 992.292 235.264C1001.25 237.312 1010.6 239.488 1020.32 241.792C1030.31 244.096 1039.65 247.424 1048.36 251.776C1057.32 255.872 1064.48 261.632 1069.86 269.056C1075.49 276.48 1078.31 286.464 1078.31 299.008C1078.31 314.624 1072.04 328.064 1059.49 339.328C1047.2 350.336 1028.77 355.84 1004.2 355.84ZM1142.62 353.92C1137.75 353.92 1133.66 352.256 1130.33 348.928C1127 345.6 1125.34 341.504 1125.34 336.64V87.424C1125.34 82.304 1127 78.08 1130.33 74.752C1133.66 71.424 1137.75 69.76 1142.62 69.76C1147.48 69.76 1151.58 71.424 1154.9 74.752C1158.49 78.08 1160.28 82.304 1160.28 87.424V187.648C1168.47 178.688 1178.07 170.624 1189.08 163.456C1200.34 156.032 1214.55 152.32 1231.7 152.32C1246.3 152.32 1258.71 155.776 1268.95 162.688C1279.19 169.344 1287 178.432 1292.38 189.952C1297.75 201.216 1300.44 213.76 1300.44 227.584V336.64C1300.44 341.504 1298.65 345.6 1295.06 348.928C1291.74 352.256 1287.64 353.92 1282.78 353.92C1277.91 353.92 1273.82 352.256 1270.49 348.928C1267.16 345.6 1265.5 341.504 1265.5 336.64V231.424C1265.5 216.832 1262.17 205.44 1255.51 197.248C1249.11 188.8 1238.36 184.576 1223.26 184.576C1209.43 184.576 1197.4 188.288 1187.16 195.712C1176.92 203.136 1167.96 211.712 1160.28 221.44V336.64C1160.28 341.504 1158.49 345.6 1154.9 348.928C1151.58 352.256 1147.48 353.92 1142.62 353.92Z"/>
</mask>
<path d="M518.616 353.92C513.752 353.92 509.656 352.256 506.328 348.928C503 345.6 501.336 341.504 501.336 336.64V87.424C501.336 82.56 503 78.464 506.328 75.136C509.656 71.552 513.752 69.76 518.616 69.76C523.48 69.76 527.576 71.552 530.904 75.136C534.488 78.464 536.28 82.56 536.28 87.424V244.48L627.672 160C629.208 158.72 630.872 157.568 632.664 156.544C634.712 155.52 636.888 155.008 639.192 155.008C645.848 155.008 650.328 156.928 652.632 160.768C654.936 164.352 656.088 168.064 656.088 171.904C656.088 173.44 655.704 175.36 654.936 177.664C654.168 179.712 652.376 182.144 649.56 184.96L594.264 234.496L663.768 326.656C666.328 329.984 667.608 333.44 667.608 337.024C667.608 342.144 665.944 346.24 662.616 349.312C659.288 352.384 655.064 353.92 649.944 353.92C644.568 353.92 639.832 351.488 635.736 346.624L569.688 256.768L536.28 287.104V336.64C536.28 341.504 534.488 345.6 530.904 348.928C527.576 352.256 523.48 353.92 518.616 353.92ZM793.611 355.84C773.899 355.84 756.619 351.616 741.771 343.168C726.923 334.464 715.403 322.56 707.211 307.456C699.275 292.096 695.307 274.304 695.307 254.08C695.307 233.856 699.275 216.192 707.211 201.088C715.403 185.728 726.923 173.824 741.771 165.376C756.619 156.672 773.899 152.32 793.611 152.32C813.323 152.32 830.475 156.672 845.067 165.376C859.915 173.824 871.435 185.728 879.627 201.088C887.819 216.192 891.915 233.856 891.915 254.08C891.915 274.304 887.819 292.096 879.627 307.456C871.435 322.56 859.915 334.464 845.067 343.168C830.475 351.616 813.323 355.84 793.611 355.84ZM793.611 323.968C803.339 323.968 813.067 321.664 822.795 317.056C832.523 312.448 840.587 305.024 846.987 294.784C853.643 284.288 856.971 270.592 856.971 253.696C856.971 236.8 853.643 223.232 846.987 212.992C840.587 202.752 832.523 195.456 822.795 191.104C813.067 186.496 803.339 184.192 793.611 184.192C783.883 184.192 774.027 186.496 764.043 191.104C754.315 195.456 746.251 202.752 739.851 212.992C733.451 223.232 730.251 236.8 730.251 253.696C730.251 270.592 733.451 284.288 739.851 294.784C746.251 305.024 754.315 312.448 764.043 317.056C774.027 321.664 783.883 323.968 793.611 323.968ZM1004.2 355.84C990.116 355.84 977.316 354.304 965.796 351.232C954.532 348.16 944.036 343.936 934.308 338.56C929.956 335.488 927.78 331.264 927.78 325.888C927.78 322.048 929.188 318.592 932.004 315.52C934.82 312.192 938.404 310.528 942.756 310.528C945.06 310.528 947.364 311.04 949.668 312.064C956.58 315.136 964.132 317.824 972.324 320.128C980.772 322.432 990.628 323.584 1001.89 323.584C1016.74 323.584 1027.49 321.28 1034.15 316.672C1041.06 311.808 1044.52 305.024 1044.52 296.32C1044.52 290.688 1041.7 286.336 1036.07 283.264C1030.69 280.192 1023.52 277.632 1014.56 275.584C1005.86 273.28 996.644 270.976 986.916 268.672C977.188 266.112 967.844 262.784 958.884 258.688C950.18 254.336 943.012 248.576 937.38 241.408C932.004 233.984 929.316 224.512 929.316 212.992C929.316 195.584 935.588 181.12 948.132 169.6C960.676 158.08 979.364 152.32 1004.2 152.32C1014.69 152.32 1024.55 153.216 1033.76 155.008C1043.24 156.8 1051.94 159.104 1059.88 161.92C1063.46 162.944 1066.15 164.992 1067.94 168.064C1069.99 170.88 1071.01 173.696 1071.01 176.512C1071.01 180.608 1069.48 184.192 1066.4 187.264C1063.59 190.336 1060 191.872 1055.65 191.872C1054.63 191.872 1053.73 191.872 1052.96 191.872C1052.2 191.616 1051.43 191.36 1050.66 191.104C1044.52 189.056 1037.73 187.392 1030.31 186.112C1023.14 184.832 1015.33 184.192 1006.88 184.192C992.804 184.192 981.924 186.752 974.244 191.872C966.564 196.992 962.724 203.392 962.724 211.072C962.724 217.728 965.412 222.848 970.788 226.432C976.42 230.016 983.588 232.96 992.292 235.264C1001.25 237.312 1010.6 239.488 1020.32 241.792C1030.31 244.096 1039.65 247.424 1048.36 251.776C1057.32 255.872 1064.48 261.632 1069.86 269.056C1075.49 276.48 1078.31 286.464 1078.31 299.008C1078.31 314.624 1072.04 328.064 1059.49 339.328C1047.2 350.336 1028.77 355.84 1004.2 355.84ZM1142.62 353.92C1137.75 353.92 1133.66 352.256 1130.33 348.928C1127 345.6 1125.34 341.504 1125.34 336.64V87.424C1125.34 82.304 1127 78.08 1130.33 74.752C1133.66 71.424 1137.75 69.76 1142.62 69.76C1147.48 69.76 1151.58 71.424 1154.9 74.752C1158.49 78.08 1160.28 82.304 1160.28 87.424V187.648C1168.47 178.688 1178.07 170.624 1189.08 163.456C1200.34 156.032 1214.55 152.32 1231.7 152.32C1246.3 152.32 1258.71 155.776 1268.95 162.688C1279.19 169.344 1287 178.432 1292.38 189.952C1297.75 201.216 1300.44 213.76 1300.44 227.584V336.64C1300.44 341.504 1298.65 345.6 1295.06 348.928C1291.74 352.256 1287.64 353.92 1282.78 353.92C1277.91 353.92 1273.82 352.256 1270.49 348.928C1267.16 345.6 1265.5 341.504 1265.5 336.64V231.424C1265.5 216.832 1262.17 205.44 1255.51 197.248C1249.11 188.8 1238.36 184.576 1223.26 184.576C1209.43 184.576 1197.4 188.288 1187.16 195.712C1176.92 203.136 1167.96 211.712 1160.28 221.44V336.64C1160.28 341.504 1158.49 345.6 1154.9 348.928C1151.58 352.256 1147.48 353.92 1142.62 353.92Z" fill="#282828"/>
<path d="M506.328 348.928L510.571 344.685L506.328 348.928ZM506.328 75.136L510.571 79.3786L510.649 79.3001L510.725 79.2187L506.328 75.136ZM530.904 75.136L526.507 79.2187L526.658 79.3815L526.821 79.5328L530.904 75.136ZM536.28 244.48H530.28V258.197L540.353 248.886L536.28 244.48ZM627.672 160L623.831 155.391L623.712 155.489L623.599 155.594L627.672 160ZM632.664 156.544L629.981 151.177L629.832 151.252L629.687 151.335L632.664 156.544ZM652.632 160.768L647.487 163.855L647.535 163.935L647.585 164.013L652.632 160.768ZM654.936 177.664L660.554 179.771L660.593 179.667L660.628 179.561L654.936 177.664ZM649.56 184.96L653.564 189.429L653.686 189.319L653.803 189.203L649.56 184.96ZM594.264 234.496L590.261 230.027L586.153 233.706L589.474 238.109L594.264 234.496ZM663.768 326.656L658.978 330.269L658.995 330.292L659.012 330.314L663.768 326.656ZM662.616 349.312L658.546 344.903L662.616 349.312ZM635.736 346.624L630.902 350.178L631.019 350.337L631.147 350.489L635.736 346.624ZM569.688 256.768L574.522 253.214L570.581 247.852L565.655 252.326L569.688 256.768ZM536.28 287.104L532.247 282.662L530.28 284.448V287.104H536.28ZM530.904 348.928L526.821 344.531L526.74 344.607L526.661 344.685L530.904 348.928ZM518.616 353.92V347.92C515.284 347.92 512.732 346.847 510.571 344.685L506.328 348.928L502.085 353.171C506.58 357.665 512.22 359.92 518.616 359.92V353.92ZM506.328 348.928L510.571 344.685C508.409 342.524 507.336 339.972 507.336 336.64H501.336H495.336C495.336 343.036 497.591 348.676 502.085 353.171L506.328 348.928ZM501.336 336.64H507.336V87.424H501.336H495.336V336.64H501.336ZM501.336 87.424H507.336C507.336 84.0918 508.409 81.54 510.571 79.3786L506.328 75.136L502.085 70.8934C497.591 75.388 495.336 81.0282 495.336 87.424H501.336ZM506.328 75.136L510.725 79.2187C512.925 76.8496 515.431 75.76 518.616 75.76V69.76V63.76C512.073 63.76 506.387 66.2544 501.931 71.0533L506.328 75.136ZM518.616 69.76V75.76C521.801 75.76 524.307 76.8496 526.507 79.2187L530.904 75.136L535.301 71.0533C530.845 66.2544 525.159 63.76 518.616 63.76V69.76ZM530.904 75.136L526.821 79.5328C529.19 81.7326 530.28 84.2389 530.28 87.424H536.28H542.28C542.28 80.8811 539.786 75.1954 534.987 70.7392L530.904 75.136ZM536.28 87.424H530.28V244.48H536.28H542.28V87.424H536.28ZM536.28 244.48L540.353 248.886L631.745 164.406L627.672 160L623.599 155.594L532.207 240.074L536.28 244.48ZM627.672 160L631.513 164.609C632.771 163.561 634.144 162.609 635.641 161.753L632.664 156.544L629.687 151.335C627.6 152.527 625.645 153.879 623.831 155.391L627.672 160ZM632.664 156.544L635.347 161.911C636.557 161.306 637.813 161.008 639.192 161.008V155.008V149.008C635.963 149.008 632.867 149.734 629.981 151.177L632.664 156.544ZM639.192 155.008V161.008C644.851 161.008 646.737 162.605 647.487 163.855L652.632 160.768L657.777 157.681C653.919 151.251 646.845 149.008 639.192 149.008V155.008ZM652.632 160.768L647.585 164.013C649.337 166.738 650.088 169.338 650.088 171.904H656.088H662.088C662.088 166.79 660.535 161.965 657.679 157.523L652.632 160.768ZM656.088 171.904H650.088C650.088 172.532 649.912 173.762 649.244 175.767L654.936 177.664L660.628 179.561C661.496 176.958 662.088 174.348 662.088 171.904H656.088ZM654.936 177.664L649.318 175.557C649.005 176.391 647.945 178.09 645.317 180.717L649.56 184.96L653.803 189.203C656.807 186.198 659.331 183.033 660.554 179.771L654.936 177.664ZM649.56 184.96L645.557 180.491L590.261 230.027L594.264 234.496L598.267 238.965L653.564 189.429L649.56 184.96ZM594.264 234.496L589.474 238.109L658.978 330.269L663.768 326.656L668.558 323.043L599.054 230.883L594.264 234.496ZM663.768 326.656L659.012 330.314C660.909 332.78 661.608 334.981 661.608 337.024H667.608H673.608C673.608 331.899 671.747 327.188 668.524 322.998L663.768 326.656ZM667.608 337.024H661.608C661.608 340.711 660.477 343.121 658.546 344.903L662.616 349.312L666.686 353.721C671.411 349.359 673.608 343.577 673.608 337.024H667.608ZM662.616 349.312L658.546 344.903C656.473 346.817 653.768 347.92 649.944 347.92V353.92V359.92C656.36 359.92 662.103 357.951 666.686 353.721L662.616 349.312ZM649.944 353.92V347.92C646.667 347.92 643.512 346.543 640.325 342.759L635.736 346.624L631.147 350.489C636.152 356.433 642.469 359.92 649.944 359.92V353.92ZM635.736 346.624L640.57 343.07L574.522 253.214L569.688 256.768L564.854 260.322L630.902 350.178L635.736 346.624ZM569.688 256.768L565.655 252.326L532.247 282.662L536.28 287.104L540.313 291.546L573.721 261.21L569.688 256.768ZM536.28 287.104H530.28V336.64H536.28H542.28V287.104H536.28ZM536.28 336.64H530.28C530.28 339.825 529.19 342.331 526.821 344.531L530.904 348.928L534.987 353.325C539.786 348.869 542.28 343.183 542.28 336.64H536.28ZM530.904 348.928L526.661 344.685C524.5 346.847 521.948 347.92 518.616 347.92V353.92V359.92C525.012 359.92 530.652 357.665 535.147 353.171L530.904 348.928ZM741.771 343.168L738.737 348.344L738.77 348.364L738.804 348.383L741.771 343.168ZM707.211 307.456L701.88 310.21L701.908 310.264L701.937 310.317L707.211 307.456ZM707.211 201.088L701.917 198.264L701.908 198.281L701.9 198.297L707.211 201.088ZM741.771 165.376L744.738 170.591L744.772 170.572L744.805 170.552L741.771 165.376ZM845.067 165.376L841.993 170.529L842.046 170.56L842.1 170.591L845.067 165.376ZM879.627 201.088L874.333 203.912L874.343 203.93L874.353 203.949L879.627 201.088ZM879.627 307.456L884.901 310.317L884.911 310.298L884.921 310.28L879.627 307.456ZM845.067 343.168L848.073 348.361L848.087 348.352L848.101 348.344L845.067 343.168ZM822.795 317.056L825.364 322.478L822.795 317.056ZM846.987 294.784L841.92 291.571L841.909 291.587L841.899 291.604L846.987 294.784ZM846.987 212.992L841.899 216.172L841.927 216.217L841.956 216.262L846.987 212.992ZM822.795 191.104L820.227 196.526L820.285 196.554L820.345 196.581L822.795 191.104ZM764.043 191.104L766.493 196.581L766.525 196.567L766.557 196.552L764.043 191.104ZM739.851 212.992L734.763 209.812L739.851 212.992ZM739.851 294.784L734.728 297.908L734.745 297.936L734.763 297.964L739.851 294.784ZM764.043 317.056L761.474 322.478L761.501 322.491L761.529 322.504L764.043 317.056ZM793.611 355.84V349.84C774.777 349.84 758.551 345.812 744.738 337.953L741.771 343.168L738.804 348.383C754.687 357.42 773.021 361.84 793.611 361.84V355.84ZM741.771 343.168L744.805 337.992C730.899 329.84 720.155 318.736 712.485 304.595L707.211 307.456L701.937 310.317C710.651 326.384 722.947 339.088 738.737 348.344L741.771 343.168ZM707.211 307.456L712.542 304.702C705.114 290.327 701.307 273.508 701.307 254.08H695.307H689.307C689.307 275.1 693.436 293.865 701.88 310.21L707.211 307.456ZM695.307 254.08H701.307C701.307 234.649 705.115 217.976 712.522 203.879L707.211 201.088L701.9 198.297C693.435 214.408 689.307 233.063 689.307 254.08H695.307ZM707.211 201.088L712.505 203.912C720.174 189.533 730.896 178.467 744.738 170.591L741.771 165.376L738.804 160.161C722.95 169.181 710.632 181.923 701.917 198.264L707.211 201.088ZM741.771 165.376L744.805 170.552C758.606 162.462 774.808 158.32 793.611 158.32V152.32V146.32C772.99 146.32 754.632 150.882 738.737 160.2L741.771 165.376ZM793.611 152.32V158.32C812.417 158.32 828.471 162.463 841.993 170.529L845.067 165.376L848.141 160.223C832.479 150.881 814.229 146.32 793.611 146.32V152.32ZM845.067 165.376L842.1 170.591C855.942 178.467 866.664 189.533 874.333 203.912L879.627 201.088L884.921 198.264C876.206 181.923 863.888 169.181 848.034 160.161L845.067 165.376ZM879.627 201.088L874.353 203.949C881.991 218.031 885.915 234.678 885.915 254.08H891.915H897.915C897.915 233.034 893.647 214.353 884.901 198.227L879.627 201.088ZM891.915 254.08H885.915C885.915 273.479 881.992 290.272 874.333 304.632L879.627 307.456L884.921 310.28C893.646 293.92 897.915 275.129 897.915 254.08H891.915ZM879.627 307.456L874.353 304.595C866.683 318.736 855.939 329.84 842.033 337.992L845.067 343.168L848.101 348.344C863.891 339.088 876.187 326.384 884.901 310.317L879.627 307.456ZM845.067 343.168L842.061 337.975C828.527 345.811 812.448 349.84 793.611 349.84V355.84V361.84C814.199 361.84 832.423 357.421 848.073 348.361L845.067 343.168ZM793.611 323.968V329.968C804.318 329.968 814.919 327.426 825.364 322.478L822.795 317.056L820.227 311.634C811.215 315.902 802.36 317.968 793.611 317.968V323.968ZM822.795 317.056L825.364 322.478C836.252 317.321 845.143 309.055 852.075 297.964L846.987 294.784L841.899 291.604C836.031 300.993 828.794 307.575 820.227 311.634L822.795 317.056ZM846.987 294.784L852.054 297.997C859.502 286.253 862.971 271.334 862.971 253.696H856.971H850.971C850.971 269.85 847.784 282.323 841.92 291.571L846.987 294.784ZM856.971 253.696H862.971C862.971 236.069 859.505 221.242 852.018 209.722L846.987 212.992L841.956 216.262C847.781 225.222 850.971 237.531 850.971 253.696H856.971ZM846.987 212.992L852.075 209.812C845.13 198.7 836.202 190.529 825.245 185.627L822.795 191.104L820.345 196.581C828.844 200.383 836.044 206.804 841.899 216.172L846.987 212.992ZM822.795 191.104L825.364 185.682C814.919 180.734 804.318 178.192 793.611 178.192V184.192V190.192C802.36 190.192 811.215 192.258 820.227 196.526L822.795 191.104ZM793.611 184.192V178.192C782.908 178.192 772.198 180.732 761.529 185.656L764.043 191.104L766.557 196.552C775.856 192.26 784.858 190.192 793.611 190.192V184.192ZM764.043 191.104L761.593 185.627C750.636 190.529 741.708 198.7 734.763 209.812L739.851 212.992L744.939 216.172C750.794 206.804 757.994 200.383 766.493 196.581L764.043 191.104ZM739.851 212.992L734.763 209.812C727.574 221.314 724.251 236.105 724.251 253.696H730.251H736.251C736.251 237.495 739.328 225.15 744.939 216.172L739.851 212.992ZM730.251 253.696H724.251C724.251 271.297 727.578 286.182 734.728 297.908L739.851 294.784L744.974 291.66C739.324 282.394 736.251 269.887 736.251 253.696H730.251ZM739.851 294.784L734.763 297.964C741.695 309.055 750.586 317.321 761.474 322.478L764.043 317.056L766.612 311.634C758.044 307.575 750.807 300.993 744.939 291.604L739.851 294.784ZM764.043 317.056L761.529 322.504C772.198 327.428 782.908 329.968 793.611 329.968V323.968V317.968C784.858 317.968 775.856 315.9 766.557 311.608L764.043 317.056ZM965.796 351.232L964.217 357.021L964.234 357.025L964.25 357.029L965.796 351.232ZM934.308 338.56L930.848 343.462L931.117 343.652L931.406 343.811L934.308 338.56ZM932.004 315.52L936.427 319.574L936.507 319.487L936.584 319.396L932.004 315.52ZM949.668 312.064L947.231 317.547L949.668 312.064ZM972.324 320.128L970.7 325.904L970.722 325.91L970.745 325.917L972.324 320.128ZM1034.15 316.672L1037.56 321.605L1037.58 321.592L1037.6 321.579L1034.15 316.672ZM1036.07 283.264L1033.09 288.473L1033.14 288.503L1033.19 288.531L1036.07 283.264ZM1014.56 275.584L1013.03 281.384L1013.13 281.41L1013.23 281.433L1014.56 275.584ZM986.916 268.672L985.389 274.474L985.461 274.493L985.533 274.51L986.916 268.672ZM958.884 258.688L956.201 264.055L956.294 264.101L956.389 264.145L958.884 258.688ZM937.38 241.408L932.52 244.927L932.589 245.022L932.662 245.115L937.38 241.408ZM948.132 169.6L952.19 174.019L948.132 169.6ZM1033.76 155.008L1032.62 160.898L1032.63 160.901L1032.65 160.903L1033.76 155.008ZM1059.88 161.92L1057.87 167.575L1058.05 167.637L1058.23 167.689L1059.88 161.92ZM1067.94 168.064L1062.76 171.087L1062.91 171.348L1063.09 171.593L1067.94 168.064ZM1066.4 187.264L1062.16 183.021L1062.07 183.114L1061.98 183.21L1066.4 187.264ZM1052.96 191.872L1051.07 197.564L1051.99 197.872H1052.96V191.872ZM1050.66 191.104L1052.56 185.412L1050.66 191.104ZM1030.31 186.112L1029.25 192.019L1029.27 192.022L1029.29 192.025L1030.31 186.112ZM974.244 191.872L970.916 186.88L974.244 191.872ZM970.788 226.432L967.46 231.424L967.513 231.46L967.567 231.494L970.788 226.432ZM992.292 235.264L990.757 241.064L990.855 241.09L990.955 241.113L992.292 235.264ZM1020.32 241.792L1018.94 247.63L1018.96 247.634L1018.97 247.638L1020.32 241.792ZM1048.36 251.776L1045.67 257.143L1045.77 257.189L1045.86 257.233L1048.36 251.776ZM1069.86 269.056L1065 272.575L1065.04 272.629L1065.08 272.682L1069.86 269.056ZM1059.49 339.328L1063.5 343.797L1063.5 343.792L1059.49 339.328ZM1004.2 355.84V349.84C990.547 349.84 978.276 348.35 967.342 345.435L965.796 351.232L964.25 357.029C976.356 360.258 989.685 361.84 1004.2 361.84V355.84ZM965.796 351.232L967.375 345.443C956.548 342.491 946.499 338.442 937.21 333.309L934.308 338.56L931.406 343.811C941.573 349.43 952.516 353.829 964.217 357.021L965.796 351.232ZM934.308 338.56L937.768 333.658C935.026 331.723 933.78 329.336 933.78 325.888H927.78H921.78C921.78 333.192 924.886 339.253 930.848 343.462L934.308 338.56ZM927.78 325.888H933.78C933.78 323.683 934.531 321.642 936.427 319.574L932.004 315.52L927.581 311.466C923.845 315.542 921.78 320.413 921.78 325.888H927.78ZM932.004 315.52L936.584 319.396C938.263 317.412 940.172 316.528 942.756 316.528V310.528V304.528C936.636 304.528 931.377 306.972 927.424 311.644L932.004 315.52ZM942.756 310.528V316.528C944.144 316.528 945.621 316.831 947.231 317.547L949.668 312.064L952.105 306.581C949.107 305.249 945.976 304.528 942.756 304.528V310.528ZM949.668 312.064L947.231 317.547C954.437 320.749 962.264 323.531 970.7 325.904L972.324 320.128L973.948 314.352C966 312.117 958.723 309.523 952.105 306.581L949.668 312.064ZM972.324 320.128L970.745 325.917C979.83 328.394 990.239 329.584 1001.89 329.584V323.584V317.584C991.017 317.584 981.714 316.47 973.903 314.339L972.324 320.128ZM1001.89 323.584V329.584C1017.08 329.584 1029.37 327.28 1037.56 321.605L1034.15 316.672L1030.73 311.739C1025.62 315.28 1016.4 317.584 1001.89 317.584V323.584ZM1034.15 316.672L1037.6 321.579C1046.17 315.552 1050.52 306.907 1050.52 296.32H1044.52H1038.52C1038.52 303.141 1035.95 308.064 1030.7 311.765L1034.15 316.672ZM1044.52 296.32H1050.52C1050.52 288.145 1046.18 281.943 1038.94 277.997L1036.07 283.264L1033.19 288.531C1037.22 290.729 1038.52 293.231 1038.52 296.32H1044.52ZM1036.07 283.264L1039.04 278.055C1032.97 274.585 1025.19 271.857 1015.9 269.735L1014.56 275.584L1013.23 281.433C1021.86 283.407 1028.41 285.799 1033.09 288.473L1036.07 283.264ZM1014.56 275.584L1016.1 269.784C1007.34 267.465 998.072 265.148 988.299 262.834L986.916 268.672L985.533 274.51C995.216 276.804 1004.38 279.095 1013.03 281.384L1014.56 275.584ZM986.916 268.672L988.443 262.87C979.04 260.395 970.02 257.182 961.379 253.231L958.884 258.688L956.389 264.145C965.668 268.386 975.336 271.829 985.389 274.474L986.916 268.672ZM958.884 258.688L961.567 253.321C953.601 249.338 947.146 244.126 942.098 237.701L937.38 241.408L932.662 245.115C938.878 253.026 946.759 259.334 956.201 264.055L958.884 258.688ZM937.38 241.408L942.24 237.889C937.776 231.725 935.316 223.576 935.316 212.992H929.316H923.316C923.316 225.448 926.232 236.243 932.52 244.927L937.38 241.408ZM929.316 212.992H935.316C935.316 197.222 940.914 184.375 952.19 174.019L948.132 169.6L944.074 165.181C930.262 177.865 923.316 193.946 923.316 212.992H929.316ZM948.132 169.6L952.19 174.019C963.212 163.897 980.188 158.32 1004.2 158.32V152.32V146.32C978.54 146.32 958.14 152.263 944.074 165.181L948.132 169.6ZM1004.2 152.32V158.32C1014.35 158.32 1023.82 159.187 1032.62 160.898L1033.76 155.008L1034.91 149.118C1025.27 147.245 1015.03 146.32 1004.2 146.32V152.32ZM1033.76 155.008L1032.65 160.903C1041.86 162.646 1050.26 164.875 1057.87 167.575L1059.88 161.92L1061.88 156.265C1053.62 153.333 1044.61 150.954 1034.88 149.113L1033.76 155.008ZM1059.88 161.92L1058.23 167.689C1060.4 168.311 1061.79 169.422 1062.76 171.087L1067.94 168.064L1073.12 165.041C1070.51 160.562 1066.52 157.577 1061.52 156.151L1059.88 161.92ZM1067.94 168.064L1063.09 171.593C1064.57 173.63 1065.01 175.238 1065.01 176.512H1071.01H1077.01C1077.01 172.154 1075.41 168.13 1072.79 164.535L1067.94 168.064ZM1071.01 176.512H1065.01C1065.01 178.913 1064.18 180.999 1062.16 183.021L1066.4 187.264L1070.65 191.507C1074.77 187.385 1077.01 182.303 1077.01 176.512H1071.01ZM1066.4 187.264L1061.98 183.21C1060.36 184.981 1058.41 185.872 1055.65 185.872V191.872V197.872C1061.6 197.872 1066.82 195.691 1070.83 191.318L1066.4 187.264ZM1055.65 191.872V185.872C1055.65 185.872 1055.65 185.872 1055.65 185.872C1055.64 185.872 1055.64 185.872 1055.64 185.872C1055.64 185.872 1055.64 185.872 1055.63 185.872C1055.63 185.872 1055.63 185.872 1055.63 185.872C1055.63 185.872 1055.62 185.872 1055.62 185.872C1055.62 185.872 1055.62 185.872 1055.62 185.872C1055.61 185.872 1055.61 185.872 1055.61 185.872C1055.61 185.872 1055.61 185.872 1055.6 185.872C1055.6 185.872 1055.6 185.872 1055.6 185.872C1055.6 185.872 1055.59 185.872 1055.59 185.872C1055.59 185.872 1055.59 185.872 1055.59 185.872C1055.58 185.872 1055.58 185.872 1055.58 185.872C1055.58 185.872 1055.58 185.872 1055.57 185.872C1055.57 185.872 1055.57 185.872 1055.57 185.872C1055.57 185.872 1055.56 185.872 1055.56 185.872C1055.56 185.872 1055.56 185.872 1055.56 185.872C1055.55 185.872 1055.55 185.872 1055.55 185.872C1055.55 185.872 1055.55 185.872 1055.54 185.872C1055.54 185.872 1055.54 185.872 1055.54 185.872C1055.54 185.872 1055.53 185.872 1055.53 185.872C1055.53 185.872 1055.53 185.872 1055.53 185.872C1055.52 185.872 1055.52 185.872 1055.52 185.872C1055.52 185.872 1055.52 185.872 1055.51 185.872C1055.51 185.872 1055.51 185.872 1055.51 185.872C1055.51 185.872 1055.5 185.872 1055.5 185.872C1055.5 185.872 1055.5 185.872 1055.5 185.872C1055.49 185.872 1055.49 185.872 1055.49 185.872C1055.49 185.872 1055.49 185.872 1055.49 185.872C1055.48 185.872 1055.48 185.872 1055.48 185.872C1055.48 185.872 1055.48 185.872 1055.47 185.872C1055.47 185.872 1055.47 185.872 1055.47 185.872C1055.47 185.872 1055.46 185.872 1055.46 185.872C1055.46 185.872 1055.46 185.872 1055.46 185.872C1055.45 185.872 1055.45 185.872 1055.45 185.872C1055.45 185.872 1055.45 185.872 1055.44 185.872C1055.44 185.872 1055.44 185.872 1055.44 185.872C1055.44 185.872 1055.43 185.872 1055.43 185.872C1055.43 185.872 1055.43 185.872 1055.43 185.872C1055.42 185.872 1055.42 185.872 1055.42 185.872C1055.42 185.872 1055.42 185.872 1055.41 185.872C1055.41 185.872 1055.41 185.872 1055.41 185.872C1055.41 185.872 1055.4 185.872 1055.4 185.872C1055.4 185.872 1055.4 185.872 1055.4 185.872C1055.39 185.872 1055.39 185.872 1055.39 185.872C1055.39 185.872 1055.39 185.872 1055.38 185.872C1055.38 185.872 1055.38 185.872 1055.38 185.872C1055.38 185.872 1055.38 185.872 1055.37 185.872C1055.37 185.872 1055.37 185.872 1055.37 185.872C1055.37 185.872 1055.36 185.872 1055.36 185.872C1055.36 185.872 1055.36 185.872 1055.36 185.872C1055.35 185.872 1055.35 185.872 1055.35 185.872C1055.35 185.872 1055.35 185.872 1055.34 185.872C1055.34 185.872 1055.34 185.872 1055.34 185.872C1055.34 185.872 1055.33 185.872 1055.33 185.872C1055.33 185.872 1055.33 185.872 1055.33 185.872C1055.32 185.872 1055.32 185.872 1055.32 185.872C1055.32 185.872 1055.32 185.872 1055.31 185.872C1055.31 185.872 1055.31 185.872 1055.31 185.872C1055.31 185.872 1055.31 185.872 1055.3 185.872C1055.3 185.872 1055.3 185.872 1055.3 185.872C1055.3 185.872 1055.29 185.872 1055.29 185.872C1055.29 185.872 1055.29 185.872 1055.29 185.872C1055.28 185.872 1055.28 185.872 1055.28 185.872C1055.28 185.872 1055.28 185.872 1055.27 185.872C1055.27 185.872 1055.27 185.872 1055.27 185.872C1055.27 185.872 1055.26 185.872 1055.26 185.872C1055.26 185.872 1055.26 185.872 1055.26 185.872C1055.25 185.872 1055.25 185.872 1055.25 185.872C1055.25 185.872 1055.25 185.872 1055.24 185.872C1055.24 185.872 1055.24 185.872 1055.24 185.872C1055.24 185.872 1055.24 185.872 1055.23 185.872C1055.23 185.872 1055.23 185.872 1055.23 185.872C1055.23 185.872 1055.22 185.872 1055.22 185.872C1055.22 185.872 1055.22 185.872 1055.22 185.872C1055.21 185.872 1055.21 185.872 1055.21 185.872C1055.21 185.872 1055.21 185.872 1055.2 185.872C1055.2 185.872 1055.2 185.872 1055.2 185.872C1055.2 185.872 1055.19 185.872 1055.19 185.872C1055.19 185.872 1055.19 185.872 1055.19 185.872C1055.19 185.872 1055.18 185.872 1055.18 185.872C1055.18 185.872 1055.18 185.872 1055.18 185.872C1055.17 185.872 1055.17 185.872 1055.17 185.872C1055.17 185.872 1055.17 185.872 1055.16 185.872C1055.16 185.872 1055.16 185.872 1055.16 185.872C1055.16 185.872 1055.15 185.872 1055.15 185.872C1055.15 185.872 1055.15 185.872 1055.15 185.872C1055.14 185.872 1055.14 185.872 1055.14 185.872C1055.14 185.872 1055.14 185.872 1055.14 185.872C1055.13 185.872 1055.13 185.872 1055.13 185.872C1055.13 185.872 1055.13 185.872 1055.12 185.872C1055.12 185.872 1055.12 185.872 1055.12 185.872C1055.12 185.872 1055.11 185.872 1055.11 185.872C1055.11 185.872 1055.11 185.872 1055.11 185.872C1055.1 185.872 1055.1 185.872 1055.1 185.872C1055.1 185.872 1055.1 185.872 1055.1 185.872C1055.09 185.872 1055.09 185.872 1055.09 185.872C1055.09 185.872 1055.09 185.872 1055.08 185.872C1055.08 185.872 1055.08 185.872 1055.08 185.872C1055.08 185.872 1055.07 185.872 1055.07 185.872C1055.07 185.872 1055.07 185.872 1055.07 185.872C1055.06 185.872 1055.06 185.872 1055.06 185.872C1055.06 185.872 1055.06 185.872 1055.06 185.872C1055.05 185.872 1055.05 185.872 1055.05 185.872C1055.05 185.872 1055.05 185.872 1055.04 185.872C1055.04 185.872 1055.04 185.872 1055.04 185.872C1055.04 185.872 1055.03 185.872 1055.03 185.872C1055.03 185.872 1055.03 185.872 1055.03 185.872C1055.02 185.872 1055.02 185.872 1055.02 185.872C1055.02 185.872 1055.02 185.872 1055.02 185.872C1055.01 185.872 1055.01 185.872 1055.01 185.872C1055.01 185.872 1055.01 185.872 1055 185.872C1055 185.872 1055 185.872 1055 185.872C1055 185.872 1054.99 185.872 1054.99 185.872C1054.99 185.872 1054.99 185.872 1054.99 185.872C1054.99 185.872 1054.98 185.872 1054.98 185.872C1054.98 185.872 1054.98 185.872 1054.98 185.872C1054.97 185.872 1054.97 185.872 1054.97 185.872C1054.97 185.872 1054.97 185.872 1054.96 185.872C1054.96 185.872 1054.96 185.872 1054.96 185.872C1054.96 185.872 1054.95 185.872 1054.95 185.872C1054.95 185.872 1054.95 185.872 1054.95 185.872C1054.95 185.872 1054.94 185.872 1054.94 185.872C1054.94 185.872 1054.94 185.872 1054.94 185.872C1054.93 185.872 1054.93 185.872 1054.93 185.872C1054.93 185.872 1054.93 185.872 1054.92 185.872C1054.92 185.872 1054.92 185.872 1054.92 185.872C1054.92 185.872 1054.92 185.872 1054.91 185.872C1054.91 185.872 1054.91 185.872 1054.91 185.872C1054.91 185.872 1054.9 185.872 1054.9 185.872C1054.9 185.872 1054.9 185.872 1054.9 185.872C1054.89 185.872 1054.89 185.872 1054.89 185.872C1054.89 185.872 1054.89 185.872 1054.89 185.872C1054.88 185.872 1054.88 185.872 1054.88 185.872C1054.88 185.872 1054.88 185.872 1054.87 185.872C1054.87 185.872 1054.87 185.872 1054.87 185.872C1054.87 185.872 1054.86 185.872 1054.86 185.872C1054.86 185.872 1054.86 185.872 1054.86 185.872C1054.86 185.872 1054.85 185.872 1054.85 185.872C1054.85 185.872 1054.85 185.872 1054.85 185.872C1054.84 185.872 1054.84 185.872 1054.84 185.872C1054.84 185.872 1054.84 185.872 1054.84 185.872C1054.83 185.872 1054.83 185.872 1054.83 185.872C1054.83 185.872 1054.83 185.872 1054.82 185.872C1054.82 185.872 1054.82 185.872 1054.82 185.872C1054.82 185.872 1054.81 185.872 1054.81 185.872C1054.81 185.872 1054.81 185.872 1054.81 185.872C1054.81 185.872 1054.8 185.872 1054.8 185.872C1054.8 185.872 1054.8 185.872 1054.8 185.872C1054.79 185.872 1054.79 185.872 1054.79 185.872C1054.79 185.872 1054.79 185.872 1054.78 185.872C1054.78 185.872 1054.78 185.872 1054.78 185.872C1054.78 185.872 1054.78 185.872 1054.77 185.872C1054.77 185.872 1054.77 185.872 1054.77 185.872C1054.77 185.872 1054.76 185.872 1054.76 185.872C1054.76 185.872 1054.76 185.872 1054.76 185.872C1054.76 185.872 1054.75 185.872 1054.75 185.872C1054.75 185.872 1054.75 185.872 1054.75 185.872C1054.74 185.872 1054.74 185.872 1054.74 185.872C1054.74 185.872 1054.74 185.872 1054.74 185.872C1054.73 185.872 1054.73 185.872 1054.73 185.872C1054.73 185.872 1054.73 185.872 1054.72 185.872C1054.72 185.872 1054.72 185.872 1054.72 185.872C1054.72 185.872 1054.71 185.872 1054.71 185.872C1054.71 185.872 1054.71 185.872 1054.71 185.872C1054.71 185.872 1054.7 185.872 1054.7 185.872C1054.7 185.872 1054.7 185.872 1054.7 185.872C1054.69 185.872 1054.69 185.872 1054.69 185.872C1054.69 185.872 1054.69 185.872 1054.69 185.872C1054.68 185.872 1054.68 185.872 1054.68 185.872C1054.68 185.872 1054.68 185.872 1054.67 185.872C1054.67 185.872 1054.67 185.872 1054.67 185.872C1054.67 185.872 1054.67 185.872 1054.66 185.872C1054.66 185.872 1054.66 185.872 1054.66 185.872C1054.66 185.872 1054.65 185.872 1054.65 185.872C1054.65 185.872 1054.65 185.872 1054.65 185.872C1054.65 185.872 1054.64 185.872 1054.64 185.872C1054.64 185.872 1054.64 185.872 1054.64 185.872C1054.63 185.872 1054.63 185.872 1054.63 185.872C1054.63 185.872 1054.63 185.872 1054.62 185.872C1054.62 185.872 1054.62 185.872 1054.62 185.872C1054.62 185.872 1054.62 185.872 1054.61 185.872C1054.61 185.872 1054.61 185.872 1054.61 185.872C1054.61 185.872 1054.6 185.872 1054.6 185.872C1054.6 185.872 1054.6 185.872 1054.6 185.872C1054.6 185.872 1054.59 185.872 1054.59 185.872C1054.59 185.872 1054.59 185.872 1054.59 185.872C1054.58 185.872 1054.58 185.872 1054.58 185.872C1054.58 185.872 1054.58 185.872 1054.58 185.872C1054.57 185.872 1054.57 185.872 1054.57 185.872C1054.57 185.872 1054.57 185.872 1054.56 185.872C1054.56 185.872 1054.56 185.872 1054.56 185.872C1054.56 185.872 1054.56 185.872 1054.55 185.872C1054.55 185.872 1054.55 185.872 1054.55 185.872C1054.55 185.872 1054.54 185.872 1054.54 185.872C1054.54 185.872 1054.54 185.872 1054.54 185.872C1054.54 185.872 1054.53 185.872 1054.53 185.872C1054.53 185.872 1054.53 185.872 1054.53 185.872C1054.53 185.872 1054.52 185.872 1054.52 185.872C1054.52 185.872 1054.52 185.872 1054.52 185.872C1054.51 185.872 1054.51 185.872 1054.51 185.872C1054.51 185.872 1054.51 185.872 1054.51 185.872C1054.5 185.872 1054.5 185.872 1054.5 185.872C1054.5 185.872 1054.5 185.872 1054.49 185.872C1054.49 185.872 1054.49 185.872 1054.49 185.872C1054.49 185.872 1054.49 185.872 1054.48 185.872C1054.48 185.872 1054.48 185.872 1054.48 185.872C1054.48 185.872 1054.47 185.872 1054.47 185.872C1054.47 185.872 1054.47 185.872 1054.47 185.872C1054.47 185.872 1054.46 185.872 1054.46 185.872C1054.46 185.872 1054.46 185.872 1054.46 185.872C1054.45 185.872 1054.45 185.872 1054.45 185.872C1054.45 185.872 1054.45 185.872 1054.45 185.872C1054.44 185.872 1054.44 185.872 1054.44 185.872C1054.44 185.872 1054.44 185.872 1054.44 185.872C1054.43 185.872 1054.43 185.872 1054.43 185.872C1054.43 185.872 1054.43 185.872 1054.42 185.872C1054.42 185.872 1054.42 185.872 1054.42 185.872C1054.42 185.872 1054.42 185.872 1054.41 185.872C1054.41 185.872 1054.41 185.872 1054.41 185.872C1054.41 185.872 1054.4 185.872 1054.4 185.872C1054.4 185.872 1054.4 185.872 1054.4 185.872C1054.4 185.872 1054.39 185.872 1054.39 185.872C1054.39 185.872 1054.39 185.872 1054.39 185.872C1054.39 185.872 1054.38 185.872 1054.38 185.872C1054.38 185.872 1054.38 185.872 1054.38 185.872C1054.37 185.872 1054.37 185.872 1054.37 185.872C1054.37 185.872 1054.37 185.872 1054.37 185.872C1054.36 185.872 1054.36 185.872 1054.36 185.872C1054.36 185.872 1054.36 185.872 1054.35 185.872C1054.35 185.872 1054.35 185.872 1054.35 185.872C1054.35 185.872 1054.35 185.872 1054.34 185.872C1054.34 185.872 1054.34 185.872 1054.34 185.872C1054.34 185.872 1054.34 185.872 1054.33 185.872C1054.33 185.872 1054.33 185.872 1054.33 185.872C1054.33 185.872 1054.32 185.872 1054.32 185.872C1054.32 185.872 1054.32 185.872 1054.32 185.872C1054.32 185.872 1054.31 185.872 1054.31 185.872C1054.31 185.872 1054.31 185.872 1054.31 185.872C1054.31 185.872 1054.3 185.872 1054.3 185.872C1054.3 185.872 1054.3 185.872 1054.3 185.872C1054.29 185.872 1054.29 185.872 1054.29 185.872C1054.29 185.872 1054.29 185.872 1054.29 185.872C1054.28 185.872 1054.28 185.872 1054.28 185.872C1054.28 185.872 1054.28 185.872 1054.28 185.872C1054.27 185.872 1054.27 185.872 1054.27 185.872C1054.27 185.872 1054.27 185.872 1054.26 185.872C1054.26 185.872 1054.26 185.872 1054.26 185.872C1054.26 185.872 1054.26 185.872 1054.25 185.872C1054.25 185.872 1054.25 185.872 1054.25 185.872C1054.25 185.872 1054.25 185.872 1054.24 185.872C1054.24 185.872 1054.24 185.872 1054.24 185.872C1054.24 185.872 1054.23 185.872 1054.23 185.872C1054.23 185.872 1054.23 185.872 1054.23 185.872C1054.23 185.872 1054.22 185.872 1054.22 185.872C1054.22 185.872 1054.22 185.872 1054.22 185.872C1054.22 185.872 1054.21 185.872 1054.21 185.872C1054.21 185.872 1054.21 185.872 1054.21 185.872C1054.21 185.872 1054.2 185.872 1054.2 185.872C1054.2 185.872 1054.2 185.872 1054.2 185.872C1054.19 185.872 1054.19 185.872 1054.19 185.872C1054.19 185.872 1054.19 185.872 1054.19 185.872C1054.18 185.872 1054.18 185.872 1054.18 185.872C1054.18 185.872 1054.18 185.872 1054.18 185.872C1054.17 185.872 1054.17 185.872 1054.17 185.872C1054.17 185.872 1054.17 185.872 1054.16 185.872C1054.16 185.872 1054.16 185.872 1054.16 185.872C1054.16 185.872 1054.16 185.872 1054.15 185.872C1054.15 185.872 1054.15 185.872 1054.15 185.872C1054.15 185.872 1054.15 185.872 1054.14 185.872C1054.14 185.872 1054.14 185.872 1054.14 185.872C1054.14 185.872 1054.14 185.872 1054.13 185.872C1054.13 185.872 1054.13 185.872 1054.13 185.872C1054.13 185.872 1054.12 185.872 1054.12 185.872C1054.12 185.872 1054.12 185.872 1054.12 185.872C1054.12 185.872 1054.11 185.872 1054.11 185.872C1054.11 185.872 1054.11 185.872 1054.11 185.872C1054.11 185.872 1054.1 185.872 1054.1 185.872C1054.1 185.872 1054.1 185.872 1054.1 185.872C1054.1 185.872 1054.09 185.872 1054.09 185.872C1054.09 185.872 1054.09 185.872 1054.09 185.872C1054.09 185.872 1054.08 185.872 1054.08 185.872C1054.08 185.872 1054.08 185.872 1054.08 185.872C1054.07 185.872 1054.07 185.872 1054.07 185.872C1054.07 185.872 1054.07 185.872 1054.07 185.872C1054.06 185.872 1054.06 185.872 1054.06 185.872C1054.06 185.872 1054.06 185.872 1054.06 185.872C1054.05 185.872 1054.05 185.872 1054.05 185.872C1054.05 185.872 1054.05 185.872 1054.05 185.872C1054.04 185.872 1054.04 185.872 1054.04 185.872C1054.04 185.872 1054.04 185.872 1054.04 185.872C1054.03 185.872 1054.03 185.872 1054.03 185.872C1054.03 185.872 1054.03 185.872 1054.02 185.872C1054.02 185.872 1054.02 185.872 1054.02 185.872C1054.02 185.872 1054.02 185.872 1054.01 185.872C1054.01 185.872 1054.01 185.872 1054.01 185.872C1054.01 185.872 1054.01 185.872 1054 185.872C1054 185.872 1054 185.872 1054 185.872C1054 185.872 1054 185.872 1053.99 185.872C1053.99 185.872 1053.99 185.872 1053.99 185.872C1053.99 185.872 1053.99 185.872 1053.98 185.872C1053.98 185.872 1053.98 185.872 1053.98 185.872C1053.98 185.872 1053.98 185.872 1053.97 185.872C1053.97 185.872 1053.97 185.872 1053.97 185.872C1053.97 185.872 1053.97 185.872 1053.96 185.872C1053.96 185.872 1053.96 185.872 1053.96 185.872C1053.96 185.872 1053.95 185.872 1053.95 185.872C1053.95 185.872 1053.95 185.872 1053.95 185.872C1053.95 185.872 1053.94 185.872 1053.94 185.872C1053.94 185.872 1053.94 185.872 1053.94 185.872C1053.94 185.872 1053.93 185.872 1053.93 185.872C1053.93 185.872 1053.93 185.872 1053.93 185.872C1053.93 185.872 1053.92 185.872 1053.92 185.872C1053.92 185.872 1053.92 185.872 1053.92 185.872C1053.92 185.872 1053.91 185.872 1053.91 185.872C1053.91 185.872 1053.91 185.872 1053.91 185.872C1053.91 185.872 1053.9 185.872 1053.9 185.872C1053.9 185.872 1053.9 185.872 1053.9 185.872C1053.9 185.872 1053.89 185.872 1053.89 185.872C1053.89 185.872 1053.89 185.872 1053.89 185.872C1053.89 185.872 1053.88 185.872 1053.88 185.872C1053.88 185.872 1053.88 185.872 1053.88 185.872C1053.88 185.872 1053.87 185.872 1053.87 185.872C1053.87 185.872 1053.87 185.872 1053.87 185.872C1053.87 185.872 1053.86 185.872 1053.86 185.872C1053.86 185.872 1053.86 185.872 1053.86 185.872C1053.86 185.872 1053.85 185.872 1053.85 185.872C1053.85 185.872 1053.85 185.872 1053.85 185.872C1053.84 185.872 1053.84 185.872 1053.84 185.872C1053.84 185.872 1053.84 185.872 1053.84 185.872C1053.83 185.872 1053.83 185.872 1053.83 185.872C1053.83 185.872 1053.83 185.872 1053.83 185.872C1053.82 185.872 1053.82 185.872 1053.82 185.872C1053.82 185.872 1053.82 185.872 1053.82 185.872C1053.81 185.872 1053.81 185.872 1053.81 185.872C1053.81 185.872 1053.81 185.872 1053.81 185.872C1053.8 185.872 1053.8 185.872 1053.8 185.872C1053.8 185.872 1053.8 185.872 1053.8 185.872C1053.79 185.872 1053.79 185.872 1053.79 185.872C1053.79 185.872 1053.79 185.872 1053.79 185.872C1053.78 185.872 1053.78 185.872 1053.78 185.872C1053.78 185.872 1053.78 185.872 1053.78 185.872C1053.77 185.872 1053.77 185.872 1053.77 185.872C1053.77 185.872 1053.77 185.872 1053.77 185.872C1053.76 185.872 1053.76 185.872 1053.76 185.872C1053.76 185.872 1053.76 185.872 1053.76 185.872C1053.75 185.872 1053.75 185.872 1053.75 185.872C1053.75 185.872 1053.75 185.872 1053.75 185.872C1053.74 185.872 1053.74 185.872 1053.74 185.872C1053.74 185.872 1053.74 185.872 1053.74 185.872C1053.73 185.872 1053.73 185.872 1053.73 185.872C1053.73 185.872 1053.73 185.872 1053.73 185.872C1053.72 185.872 1053.72 185.872 1053.72 185.872C1053.72 185.872 1053.72 185.872 1053.72 185.872C1053.71 185.872 1053.71 185.872 1053.71 185.872C1053.71 185.872 1053.71 185.872 1053.71 185.872C1053.7 185.872 1053.7 185.872 1053.7 185.872C1053.7 185.872 1053.7 185.872 1053.7 185.872C1053.7 185.872 1053.69 185.872 1053.69 185.872C1053.69 185.872 1053.69 185.872 1053.69 185.872C1053.69 185.872 1053.68 185.872 1053.68 185.872C1053.68 185.872 1053.68 185.872 1053.68 185.872C1053.68 185.872 1053.67 185.872 1053.67 185.872C1053.67 185.872 1053.67 185.872 1053.67 185.872C1053.67 185.872 1053.66 185.872 1053.66 185.872C1053.66 185.872 1053.66 185.872 1053.66 185.872C1053.66 185.872 1053.65 185.872 1053.65 185.872C1053.65 185.872 1053.65 185.872 1053.65 185.872C1053.65 185.872 1053.64 185.872 1053.64 185.872C1053.64 185.872 1053.64 185.872 1053.64 185.872C1053.64 185.872 1053.63 185.872 1053.63 185.872C1053.63 185.872 1053.63 185.872 1053.63 185.872C1053.63 185.872 1053.62 185.872 1053.62 185.872C1053.62 185.872 1053.62 185.872 1053.62 185.872C1053.62 185.872 1053.61 185.872 1053.61 185.872C1053.61 185.872 1053.61 185.872 1053.61 185.872C1053.61 185.872 1053.6 185.872 1053.6 185.872C1053.6 185.872 1053.6 185.872 1053.6 185.872C1053.6 185.872 1053.59 185.872 1053.59 185.872C1053.59 185.872 1053.59 185.872 1053.59 185.872C1053.59 185.872 1053.59 185.872 1053.58 185.872C1053.58 185.872 1053.58 185.872 1053.58 185.872C1053.58 185.872 1053.58 185.872 1053.57 185.872C1053.57 185.872 1053.57 185.872 1053.57 185.872C1053.57 185.872 1053.57 185.872 1053.56 185.872C1053.56 185.872 1053.56 185.872 1053.56 185.872C1053.56 185.872 1053.56 185.872 1053.55 185.872C1053.55 185.872 1053.55 185.872 1053.55 185.872C1053.55 185.872 1053.55 185.872 1053.54 185.872C1053.54 185.872 1053.54 185.872 1053.54 185.872C1053.54 185.872 1053.54 185.872 1053.53 185.872C1053.53 185.872 1053.53 185.872 1053.53 185.872C1053.53 185.872 1053.53 185.872 1053.53 185.872C1053.52 185.872 1053.52 185.872 1053.52 185.872C1053.52 185.872 1053.52 185.872 1053.52 185.872C1053.51 185.872 1053.51 185.872 1053.51 185.872C1053.51 185.872 1053.51 185.872 1053.51 185.872C1053.5 185.872 1053.5 185.872 1053.5 185.872C1053.5 185.872 1053.5 185.872 1053.5 185.872C1053.49 185.872 1053.49 185.872 1053.49 185.872C1053.49 185.872 1053.49 185.872 1053.49 185.872C1053.48 185.872 1053.48 185.872 1053.48 185.872C1053.48 185.872 1053.48 185.872 1053.48 185.872C1053.48 185.872 1053.47 185.872 1053.47 185.872C1053.47 185.872 1053.47 185.872 1053.47 185.872C1053.47 185.872 1053.46 185.872 1053.46 185.872C1053.46 185.872 1053.46 185.872 1053.46 185.872C1053.46 185.872 1053.45 185.872 1053.45 185.872C1053.45 185.872 1053.45 185.872 1053.45 185.872C1053.45 185.872 1053.44 185.872 1053.44 185.872C1053.44 185.872 1053.44 185.872 1053.44 185.872C1053.44 185.872 1053.44 185.872 1053.43 185.872C1053.43 185.872 1053.43 185.872 1053.43 185.872C1053.43 185.872 1053.43 185.872 1053.42 185.872C1053.42 185.872 1053.42 185.872 1053.42 185.872C1053.42 185.872 1053.42 185.872 1053.41 185.872C1053.41 185.872 1053.41 185.872 1053.41 185.872C1053.41 185.872 1053.41 185.872 1053.4 185.872C1053.4 185.872 1053.4 185.872 1053.4 185.872C1053.4 185.872 1053.4 185.872 1053.4 185.872C1053.39 185.872 1053.39 185.872 1053.39 185.872C1053.39 185.872 1053.39 185.872 1053.39 185.872C1053.38 185.872 1053.38 185.872 1053.38 185.872C1053.38 185.872 1053.38 185.872 1053.38 185.872C1053.37 185.872 1053.37 185.872 1053.37 185.872C1053.37 185.872 1053.37 185.872 1053.37 185.872C1053.36 185.872 1053.36 185.872 1053.36 185.872C1053.36 185.872 1053.36 185.872 1053.36 185.872C1053.36 185.872 1053.35 185.872 1053.35 185.872C1053.35 185.872 1053.35 185.872 1053.35 185.872C1053.35 185.872 1053.34 185.872 1053.34 185.872C1053.34 185.872 1053.34 185.872 1053.34 185.872C1053.34 185.872 1053.33 185.872 1053.33 185.872C1053.33 185.872 1053.33 185.872 1053.33 185.872C1053.33 185.872 1053.33 185.872 1053.32 185.872C1053.32 185.872 1053.32 185.872 1053.32 185.872C1053.32 185.872 1053.32 185.872 1053.31 185.872C1053.31 185.872 1053.31 185.872 1053.31 185.872C1053.31 185.872 1053.31 185.872 1053.31 185.872C1053.3 185.872 1053.3 185.872 1053.3 185.872C1053.3 185.872 1053.3 185.872 1053.3 185.872C1053.29 185.872 1053.29 185.872 1053.29 185.872C1053.29 185.872 1053.29 185.872 1053.29 185.872C1053.28 185.872 1053.28 185.872 1053.28 185.872C1053.28 185.872 1053.28 185.872 1053.28 185.872C1053.28 185.872 1053.27 185.872 1053.27 185.872C1053.27 185.872 1053.27 185.872 1053.27 185.872C1053.27 185.872 1053.26 185.872 1053.26 185.872C1053.26 185.872 1053.26 185.872 1053.26 185.872C1053.26 185.872 1053.25 185.872 1053.25 185.872C1053.25 185.872 1053.25 185.872 1053.25 185.872C1053.25 185.872 1053.25 185.872 1053.24 185.872C1053.24 185.872 1053.24 185.872 1053.24 185.872C1053.24 185.872 1053.24 185.872 1053.23 185.872C1053.23 185.872 1053.23 185.872 1053.23 185.872C1053.23 185.872 1053.23 185.872 1053.23 185.872C1053.22 185.872 1053.22 185.872 1053.22 185.872C1053.22 185.872 1053.22 185.872 1053.22 185.872C1053.21 185.872 1053.21 185.872 1053.21 185.872C1053.21 185.872 1053.21 185.872 1053.21 185.872C1053.21 185.872 1053.2 185.872 1053.2 185.872C1053.2 185.872 1053.2 185.872 1053.2 185.872C1053.2 185.872 1053.19 185.872 1053.19 185.872C1053.19 185.872 1053.19 185.872 1053.19 185.872C1053.19 185.872 1053.18 185.872 1053.18 185.872C1053.18 185.872 1053.18 185.872 1053.18 185.872C1053.18 185.872 1053.18 185.872 1053.17 185.872C1053.17 185.872 1053.17 185.872 1053.17 185.872C1053.17 185.872 1053.17 185.872 1053.16 185.872C1053.16 185.872 1053.16 185.872 1053.16 185.872C1053.16 185.872 1053.16 185.872 1053.16 185.872C1053.15 185.872 1053.15 185.872 1053.15 185.872C1053.15 185.872 1053.15 185.872 1053.15 185.872C1053.14 185.872 1053.14 185.872 1053.14 185.872C1053.14 185.872 1053.14 185.872 1053.14 185.872C1053.14 185.872 1053.13 185.872 1053.13 185.872C1053.13 185.872 1053.13 185.872 1053.13 185.872C1053.13 185.872 1053.12 185.872 1053.12 185.872C1053.12 185.872 1053.12 185.872 1053.12 185.872C1053.12 185.872 1053.12 185.872 1053.11 185.872C1053.11 185.872 1053.11 185.872 1053.11 185.872C1053.11 185.872 1053.11 185.872 1053.1 185.872C1053.1 185.872 1053.1 185.872 1053.1 185.872C1053.1 185.872 1053.1 185.872 1053.1 185.872C1053.09 185.872 1053.09 185.872 1053.09 185.872C1053.09 185.872 1053.09 185.872 1053.09 185.872C1053.09 185.872 1053.08 185.872 1053.08 185.872C1053.08 185.872 1053.08 185.872 1053.08 185.872C1053.08 185.872 1053.07 185.872 1053.07 185.872C1053.07 185.872 1053.07 185.872 1053.07 185.872C1053.07 185.872 1053.07 185.872 1053.06 185.872C1053.06 185.872 1053.06 185.872 1053.06 185.872C1053.06 185.872 1053.06 185.872 1053.05 185.872C1053.05 185.872 1053.05 185.872 1053.05 185.872C1053.05 185.872 1053.05 185.872 1053.05 185.872C1053.04 185.872 1053.04 185.872 1053.04 185.872C1053.04 185.872 1053.04 185.872 1053.04 185.872C1053.03 185.872 1053.03 185.872 1053.03 185.872C1053.03 185.872 1053.03 185.872 1053.03 185.872C1053.03 185.872 1053.02 185.872 1053.02 185.872C1053.02 185.872 1053.02 185.872 1053.02 185.872C1053.02 185.872 1053.02 185.872 1053.01 185.872C1053.01 185.872 1053.01 185.872 1053.01 185.872C1053.01 185.872 1053.01 185.872 1053 185.872C1053 185.872 1053 185.872 1053 185.872C1053 185.872 1053 185.872 1053 185.872C1052.99 185.872 1052.99 185.872 1052.99 185.872C1052.99 185.872 1052.99 185.872 1052.99 185.872C1052.99 185.872 1052.98 185.872 1052.98 185.872C1052.98 185.872 1052.98 185.872 1052.98 185.872C1052.98 185.872 1052.97 185.872 1052.97 185.872C1052.97 185.872 1052.97 185.872 1052.97 185.872C1052.97 185.872 1052.97 185.872 1052.96 185.872V191.872V197.872C1052.97 197.872 1052.97 197.872 1052.97 197.872C1052.97 197.872 1052.97 197.872 1052.97 197.872C1052.97 197.872 1052.98 197.872 1052.98 197.872C1052.98 197.872 1052.98 197.872 1052.98 197.872C1052.98 197.872 1052.99 197.872 1052.99 197.872C1052.99 197.872 1052.99 197.872 1052.99 197.872C1052.99 197.872 1052.99 197.872 1053 197.872C1053 197.872 1053 197.872 1053 197.872C1053 197.872 1053 197.872 1053 197.872C1053.01 197.872 1053.01 197.872 1053.01 197.872C1053.01 197.872 1053.01 197.872 1053.01 197.872C1053.02 197.872 1053.02 197.872 1053.02 197.872C1053.02 197.872 1053.02 197.872 1053.02 197.872C1053.02 197.872 1053.03 197.872 1053.03 197.872C1053.03 197.872 1053.03 197.872 1053.03 197.872C1053.03 197.872 1053.03 197.872 1053.04 197.872C1053.04 197.872 1053.04 197.872 1053.04 197.872C1053.04 197.872 1053.04 197.872 1053.05 197.872C1053.05 197.872 1053.05 197.872 1053.05 197.872C1053.05 197.872 1053.05 197.872 1053.05 197.872C1053.06 197.872 1053.06 197.872 1053.06 197.872C1053.06 197.872 1053.06 197.872 1053.06 197.872C1053.07 197.872 1053.07 197.872 1053.07 197.872C1053.07 197.872 1053.07 197.872 1053.07 197.872C1053.07 197.872 1053.08 197.872 1053.08 197.872C1053.08 197.872 1053.08 197.872 1053.08 197.872C1053.08 197.872 1053.09 197.872 1053.09 197.872C1053.09 197.872 1053.09 197.872 1053.09 197.872C1053.09 197.872 1053.09 197.872 1053.1 197.872C1053.1 197.872 1053.1 197.872 1053.1 197.872C1053.1 197.872 1053.1 197.872 1053.1 197.872C1053.11 197.872 1053.11 197.872 1053.11 197.872C1053.11 197.872 1053.11 197.872 1053.11 197.872C1053.12 197.872 1053.12 197.872 1053.12 197.872C1053.12 197.872 1053.12 197.872 1053.12 197.872C1053.12 197.872 1053.13 197.872 1053.13 197.872C1053.13 197.872 1053.13 197.872 1053.13 197.872C1053.13 197.872 1053.14 197.872 1053.14 197.872C1053.14 197.872 1053.14 197.872 1053.14 197.872C1053.14 197.872 1053.14 197.872 1053.15 197.872C1053.15 197.872 1053.15 197.872 1053.15 197.872C1053.15 197.872 1053.15 197.872 1053.16 197.872C1053.16 197.872 1053.16 197.872 1053.16 197.872C1053.16 197.872 1053.16 197.872 1053.16 197.872C1053.17 197.872 1053.17 197.872 1053.17 197.872C1053.17 197.872 1053.17 197.872 1053.17 197.872C1053.18 197.872 1053.18 197.872 1053.18 197.872C1053.18 197.872 1053.18 197.872 1053.18 197.872C1053.18 197.872 1053.19 197.872 1053.19 197.872C1053.19 197.872 1053.19 197.872 1053.19 197.872C1053.19 197.872 1053.2 197.872 1053.2 197.872C1053.2 197.872 1053.2 197.872 1053.2 197.872C1053.2 197.872 1053.21 197.872 1053.21 197.872C1053.21 197.872 1053.21 197.872 1053.21 197.872C1053.21 197.872 1053.21 197.872 1053.22 197.872C1053.22 197.872 1053.22 197.872 1053.22 197.872C1053.22 197.872 1053.22 197.872 1053.23 197.872C1053.23 197.872 1053.23 197.872 1053.23 197.872C1053.23 197.872 1053.23 197.872 1053.23 197.872C1053.24 197.872 1053.24 197.872 1053.24 197.872C1053.24 197.872 1053.24 197.872 1053.24 197.872C1053.25 197.872 1053.25 197.872 1053.25 197.872C1053.25 197.872 1053.25 197.872 1053.25 197.872C1053.25 197.872 1053.26 197.872 1053.26 197.872C1053.26 197.872 1053.26 197.872 1053.26 197.872C1053.26 197.872 1053.27 197.872 1053.27 197.872C1053.27 197.872 1053.27 197.872 1053.27 197.872C1053.27 197.872 1053.28 197.872 1053.28 197.872C1053.28 197.872 1053.28 197.872 1053.28 197.872C1053.28 197.872 1053.28 197.872 1053.29 197.872C1053.29 197.872 1053.29 197.872 1053.29 197.872C1053.29 197.872 1053.29 197.872 1053.3 197.872C1053.3 197.872 1053.3 197.872 1053.3 197.872C1053.3 197.872 1053.3 197.872 1053.31 197.872C1053.31 197.872 1053.31 197.872 1053.31 197.872C1053.31 197.872 1053.31 197.872 1053.31 197.872C1053.32 197.872 1053.32 197.872 1053.32 197.872C1053.32 197.872 1053.32 197.872 1053.32 197.872C1053.33 197.872 1053.33 197.872 1053.33 197.872C1053.33 197.872 1053.33 197.872 1053.33 197.872C1053.33 197.872 1053.34 197.872 1053.34 197.872C1053.34 197.872 1053.34 197.872 1053.34 197.872C1053.34 197.872 1053.35 197.872 1053.35 197.872C1053.35 197.872 1053.35 197.872 1053.35 197.872C1053.35 197.872 1053.36 197.872 1053.36 197.872C1053.36 197.872 1053.36 197.872 1053.36 197.872C1053.36 197.872 1053.36 197.872 1053.37 197.872C1053.37 197.872 1053.37 197.872 1053.37 197.872C1053.37 197.872 1053.37 197.872 1053.38 197.872C1053.38 197.872 1053.38 197.872 1053.38 197.872C1053.38 197.872 1053.38 197.872 1053.39 197.872C1053.39 197.872 1053.39 197.872 1053.39 197.872C1053.39 197.872 1053.39 197.872 1053.4 197.872C1053.4 197.872 1053.4 197.872 1053.4 197.872C1053.4 197.872 1053.4 197.872 1053.4 197.872C1053.41 197.872 1053.41 197.872 1053.41 197.872C1053.41 197.872 1053.41 197.872 1053.41 197.872C1053.42 197.872 1053.42 197.872 1053.42 197.872C1053.42 197.872 1053.42 197.872 1053.42 197.872C1053.43 197.872 1053.43 197.872 1053.43 197.872C1053.43 197.872 1053.43 197.872 1053.43 197.872C1053.44 197.872 1053.44 197.872 1053.44 197.872C1053.44 197.872 1053.44 197.872 1053.44 197.872C1053.44 197.872 1053.45 197.872 1053.45 197.872C1053.45 197.872 1053.45 197.872 1053.45 197.872C1053.45 197.872 1053.46 197.872 1053.46 197.872C1053.46 197.872 1053.46 197.872 1053.46 197.872C1053.46 197.872 1053.47 197.872 1053.47 197.872C1053.47 197.872 1053.47 197.872 1053.47 197.872C1053.47 197.872 1053.48 197.872 1053.48 197.872C1053.48 197.872 1053.48 197.872 1053.48 197.872C1053.48 197.872 1053.48 197.872 1053.49 197.872C1053.49 197.872 1053.49 197.872 1053.49 197.872C1053.49 197.872 1053.49 197.872 1053.5 197.872C1053.5 197.872 1053.5 197.872 1053.5 197.872C1053.5 197.872 1053.5 197.872 1053.51 197.872C1053.51 197.872 1053.51 197.872 1053.51 197.872C1053.51 197.872 1053.51 197.872 1053.52 197.872C1053.52 197.872 1053.52 197.872 1053.52 197.872C1053.52 197.872 1053.52 197.872 1053.53 197.872C1053.53 197.872 1053.53 197.872 1053.53 197.872C1053.53 197.872 1053.53 197.872 1053.53 197.872C1053.54 197.872 1053.54 197.872 1053.54 197.872C1053.54 197.872 1053.54 197.872 1053.54 197.872C1053.55 197.872 1053.55 197.872 1053.55 197.872C1053.55 197.872 1053.55 197.872 1053.55 197.872C1053.56 197.872 1053.56 197.872 1053.56 197.872C1053.56 197.872 1053.56 197.872 1053.56 197.872C1053.57 197.872 1053.57 197.872 1053.57 197.872C1053.57 197.872 1053.57 197.872 1053.57 197.872C1053.58 197.872 1053.58 197.872 1053.58 197.872C1053.58 197.872 1053.58 197.872 1053.58 197.872C1053.59 197.872 1053.59 197.872 1053.59 197.872C1053.59 197.872 1053.59 197.872 1053.59 197.872C1053.59 197.872 1053.6 197.872 1053.6 197.872C1053.6 197.872 1053.6 197.872 1053.6 197.872C1053.6 197.872 1053.61 197.872 1053.61 197.872C1053.61 197.872 1053.61 197.872 1053.61 197.872C1053.61 197.872 1053.62 197.872 1053.62 197.872C1053.62 197.872 1053.62 197.872 1053.62 197.872C1053.62 197.872 1053.63 197.872 1053.63 197.872C1053.63 197.872 1053.63 197.872 1053.63 197.872C1053.63 197.872 1053.64 197.872 1053.64 197.872C1053.64 197.872 1053.64 197.872 1053.64 197.872C1053.64 197.872 1053.65 197.872 1053.65 197.872C1053.65 197.872 1053.65 197.872 1053.65 197.872C1053.65 197.872 1053.66 197.872 1053.66 197.872C1053.66 197.872 1053.66 197.872 1053.66 197.872C1053.66 197.872 1053.67 197.872 1053.67 197.872C1053.67 197.872 1053.67 197.872 1053.67 197.872C1053.67 197.872 1053.68 197.872 1053.68 197.872C1053.68 197.872 1053.68 197.872 1053.68 197.872C1053.68 197.872 1053.69 197.872 1053.69 197.872C1053.69 197.872 1053.69 197.872 1053.69 197.872C1053.69 197.872 1053.7 197.872 1053.7 197.872C1053.7 197.872 1053.7 197.872 1053.7 197.872C1053.7 197.872 1053.7 197.872 1053.71 197.872C1053.71 197.872 1053.71 197.872 1053.71 197.872C1053.71 197.872 1053.71 197.872 1053.72 197.872C1053.72 197.872 1053.72 197.872 1053.72 197.872C1053.72 197.872 1053.72 197.872 1053.73 197.872C1053.73 197.872 1053.73 197.872 1053.73 197.872C1053.73 197.872 1053.73 197.872 1053.74 197.872C1053.74 197.872 1053.74 197.872 1053.74 197.872C1053.74 197.872 1053.74 197.872 1053.75 197.872C1053.75 197.872 1053.75 197.872 1053.75 197.872C1053.75 197.872 1053.75 197.872 1053.76 197.872C1053.76 197.872 1053.76 197.872 1053.76 197.872C1053.76 197.872 1053.76 197.872 1053.77 197.872C1053.77 197.872 1053.77 197.872 1053.77 197.872C1053.77 197.872 1053.77 197.872 1053.78 197.872C1053.78 197.872 1053.78 197.872 1053.78 197.872C1053.78 197.872 1053.78 197.872 1053.79 197.872C1053.79 197.872 1053.79 197.872 1053.79 197.872C1053.79 197.872 1053.79 197.872 1053.8 197.872C1053.8 197.872 1053.8 197.872 1053.8 197.872C1053.8 197.872 1053.8 197.872 1053.81 197.872C1053.81 197.872 1053.81 197.872 1053.81 197.872C1053.81 197.872 1053.81 197.872 1053.82 197.872C1053.82 197.872 1053.82 197.872 1053.82 197.872C1053.82 197.872 1053.82 197.872 1053.83 197.872C1053.83 197.872 1053.83 197.872 1053.83 197.872C1053.83 197.872 1053.83 197.872 1053.84 197.872C1053.84 197.872 1053.84 197.872 1053.84 197.872C1053.84 197.872 1053.84 197.872 1053.85 197.872C1053.85 197.872 1053.85 197.872 1053.85 197.872C1053.85 197.872 1053.86 197.872 1053.86 197.872C1053.86 197.872 1053.86 197.872 1053.86 197.872C1053.86 197.872 1053.87 197.872 1053.87 197.872C1053.87 197.872 1053.87 197.872 1053.87 197.872C1053.87 197.872 1053.88 197.872 1053.88 197.872C1053.88 197.872 1053.88 197.872 1053.88 197.872C1053.88 197.872 1053.89 197.872 1053.89 197.872C1053.89 197.872 1053.89 197.872 1053.89 197.872C1053.89 197.872 1053.9 197.872 1053.9 197.872C1053.9 197.872 1053.9 197.872 1053.9 197.872C1053.9 197.872 1053.91 197.872 1053.91 197.872C1053.91 197.872 1053.91 197.872 1053.91 197.872C1053.91 197.872 1053.92 197.872 1053.92 197.872C1053.92 197.872 1053.92 197.872 1053.92 197.872C1053.92 197.872 1053.93 197.872 1053.93 197.872C1053.93 197.872 1053.93 197.872 1053.93 197.872C1053.93 197.872 1053.94 197.872 1053.94 197.872C1053.94 197.872 1053.94 197.872 1053.94 197.872C1053.94 197.872 1053.95 197.872 1053.95 197.872C1053.95 197.872 1053.95 197.872 1053.95 197.872C1053.95 197.872 1053.96 197.872 1053.96 197.872C1053.96 197.872 1053.96 197.872 1053.96 197.872C1053.97 197.872 1053.97 197.872 1053.97 197.872C1053.97 197.872 1053.97 197.872 1053.97 197.872C1053.98 197.872 1053.98 197.872 1053.98 197.872C1053.98 197.872 1053.98 197.872 1053.98 197.872C1053.99 197.872 1053.99 197.872 1053.99 197.872C1053.99 197.872 1053.99 197.872 1053.99 197.872C1054 197.872 1054 197.872 1054 197.872C1054 197.872 1054 197.872 1054 197.872C1054.01 197.872 1054.01 197.872 1054.01 197.872C1054.01 197.872 1054.01 197.872 1054.01 197.872C1054.02 197.872 1054.02 197.872 1054.02 197.872C1054.02 197.872 1054.02 197.872 1054.02 197.872C1054.03 197.872 1054.03 197.872 1054.03 197.872C1054.03 197.872 1054.03 197.872 1054.04 197.872C1054.04 197.872 1054.04 197.872 1054.04 197.872C1054.04 197.872 1054.04 197.872 1054.05 197.872C1054.05 197.872 1054.05 197.872 1054.05 197.872C1054.05 197.872 1054.05 197.872 1054.06 197.872C1054.06 197.872 1054.06 197.872 1054.06 197.872C1054.06 197.872 1054.06 197.872 1054.07 197.872C1054.07 197.872 1054.07 197.872 1054.07 197.872C1054.07 197.872 1054.07 197.872 1054.08 197.872C1054.08 197.872 1054.08 197.872 1054.08 197.872C1054.08 197.872 1054.09 197.872 1054.09 197.872C1054.09 197.872 1054.09 197.872 1054.09 197.872C1054.09 197.872 1054.1 197.872 1054.1 197.872C1054.1 197.872 1054.1 197.872 1054.1 197.872C1054.1 197.872 1054.11 197.872 1054.11 197.872C1054.11 197.872 1054.11 197.872 1054.11 197.872C1054.11 197.872 1054.12 197.872 1054.12 197.872C1054.12 197.872 1054.12 197.872 1054.12 197.872C1054.12 197.872 1054.13 197.872 1054.13 197.872C1054.13 197.872 1054.13 197.872 1054.13 197.872C1054.14 197.872 1054.14 197.872 1054.14 197.872C1054.14 197.872 1054.14 197.872 1054.14 197.872C1054.15 197.872 1054.15 197.872 1054.15 197.872C1054.15 197.872 1054.15 197.872 1054.15 197.872C1054.16 197.872 1054.16 197.872 1054.16 197.872C1054.16 197.872 1054.16 197.872 1054.16 197.872C1054.17 197.872 1054.17 197.872 1054.17 197.872C1054.17 197.872 1054.17 197.872 1054.18 197.872C1054.18 197.872 1054.18 197.872 1054.18 197.872C1054.18 197.872 1054.18 197.872 1054.19 197.872C1054.19 197.872 1054.19 197.872 1054.19 197.872C1054.19 197.872 1054.19 197.872 1054.2 197.872C1054.2 197.872 1054.2 197.872 1054.2 197.872C1054.2 197.872 1054.21 197.872 1054.21 197.872C1054.21 197.872 1054.21 197.872 1054.21 197.872C1054.21 197.872 1054.22 197.872 1054.22 197.872C1054.22 197.872 1054.22 197.872 1054.22 197.872C1054.22 197.872 1054.23 197.872 1054.23 197.872C1054.23 197.872 1054.23 197.872 1054.23 197.872C1054.23 197.872 1054.24 197.872 1054.24 197.872C1054.24 197.872 1054.24 197.872 1054.24 197.872C1054.25 197.872 1054.25 197.872 1054.25 197.872C1054.25 197.872 1054.25 197.872 1054.25 197.872C1054.26 197.872 1054.26 197.872 1054.26 197.872C1054.26 197.872 1054.26 197.872 1054.26 197.872C1054.27 197.872 1054.27 197.872 1054.27 197.872C1054.27 197.872 1054.27 197.872 1054.28 197.872C1054.28 197.872 1054.28 197.872 1054.28 197.872C1054.28 197.872 1054.28 197.872 1054.29 197.872C1054.29 197.872 1054.29 197.872 1054.29 197.872C1054.29 197.872 1054.29 197.872 1054.3 197.872C1054.3 197.872 1054.3 197.872 1054.3 197.872C1054.3 197.872 1054.31 197.872 1054.31 197.872C1054.31 197.872 1054.31 197.872 1054.31 197.872C1054.31 197.872 1054.32 197.872 1054.32 197.872C1054.32 197.872 1054.32 197.872 1054.32 197.872C1054.32 197.872 1054.33 197.872 1054.33 197.872C1054.33 197.872 1054.33 197.872 1054.33 197.872C1054.34 197.872 1054.34 197.872 1054.34 197.872C1054.34 197.872 1054.34 197.872 1054.34 197.872C1054.35 197.872 1054.35 197.872 1054.35 197.872C1054.35 197.872 1054.35 197.872 1054.35 197.872C1054.36 197.872 1054.36 197.872 1054.36 197.872C1054.36 197.872 1054.36 197.872 1054.37 197.872C1054.37 197.872 1054.37 197.872 1054.37 197.872C1054.37 197.872 1054.37 197.872 1054.38 197.872C1054.38 197.872 1054.38 197.872 1054.38 197.872C1054.38 197.872 1054.39 197.872 1054.39 197.872C1054.39 197.872 1054.39 197.872 1054.39 197.872C1054.39 197.872 1054.4 197.872 1054.4 197.872C1054.4 197.872 1054.4 197.872 1054.4 197.872C1054.4 197.872 1054.41 197.872 1054.41 197.872C1054.41 197.872 1054.41 197.872 1054.41 197.872C1054.42 197.872 1054.42 197.872 1054.42 197.872C1054.42 197.872 1054.42 197.872 1054.42 197.872C1054.43 197.872 1054.43 197.872 1054.43 197.872C1054.43 197.872 1054.43 197.872 1054.44 197.872C1054.44 197.872 1054.44 197.872 1054.44 197.872C1054.44 197.872 1054.44 197.872 1054.45 197.872C1054.45 197.872 1054.45 197.872 1054.45 197.872C1054.45 197.872 1054.45 197.872 1054.46 197.872C1054.46 197.872 1054.46 197.872 1054.46 197.872C1054.46 197.872 1054.47 197.872 1054.47 197.872C1054.47 197.872 1054.47 197.872 1054.47 197.872C1054.47 197.872 1054.48 197.872 1054.48 197.872C1054.48 197.872 1054.48 197.872 1054.48 197.872C1054.49 197.872 1054.49 197.872 1054.49 197.872C1054.49 197.872 1054.49 197.872 1054.49 197.872C1054.5 197.872 1054.5 197.872 1054.5 197.872C1054.5 197.872 1054.5 197.872 1054.51 197.872C1054.51 197.872 1054.51 197.872 1054.51 197.872C1054.51 197.872 1054.51 197.872 1054.52 197.872C1054.52 197.872 1054.52 197.872 1054.52 197.872C1054.52 197.872 1054.53 197.872 1054.53 197.872C1054.53 197.872 1054.53 197.872 1054.53 197.872C1054.53 197.872 1054.54 197.872 1054.54 197.872C1054.54 197.872 1054.54 197.872 1054.54 197.872C1054.54 197.872 1054.55 197.872 1054.55 197.872C1054.55 197.872 1054.55 197.872 1054.55 197.872C1054.56 197.872 1054.56 197.872 1054.56 197.872C1054.56 197.872 1054.56 197.872 1054.56 197.872C1054.57 197.872 1054.57 197.872 1054.57 197.872C1054.57 197.872 1054.57 197.872 1054.58 197.872C1054.58 197.872 1054.58 197.872 1054.58 197.872C1054.58 197.872 1054.58 197.872 1054.59 197.872C1054.59 197.872 1054.59 197.872 1054.59 197.872C1054.59 197.872 1054.6 197.872 1054.6 197.872C1054.6 197.872 1054.6 197.872 1054.6 197.872C1054.6 197.872 1054.61 197.872 1054.61 197.872C1054.61 197.872 1054.61 197.872 1054.61 197.872C1054.62 197.872 1054.62 197.872 1054.62 197.872C1054.62 197.872 1054.62 197.872 1054.62 197.872C1054.63 197.872 1054.63 197.872 1054.63 197.872C1054.63 197.872 1054.63 197.872 1054.64 197.872C1054.64 197.872 1054.64 197.872 1054.64 197.872C1054.64 197.872 1054.65 197.872 1054.65 197.872C1054.65 197.872 1054.65 197.872 1054.65 197.872C1054.65 197.872 1054.66 197.872 1054.66 197.872C1054.66 197.872 1054.66 197.872 1054.66 197.872C1054.67 197.872 1054.67 197.872 1054.67 197.872C1054.67 197.872 1054.67 197.872 1054.67 197.872C1054.68 197.872 1054.68 197.872 1054.68 197.872C1054.68 197.872 1054.68 197.872 1054.69 197.872C1054.69 197.872 1054.69 197.872 1054.69 197.872C1054.69 197.872 1054.69 197.872 1054.7 197.872C1054.7 197.872 1054.7 197.872 1054.7 197.872C1054.7 197.872 1054.71 197.872 1054.71 197.872C1054.71 197.872 1054.71 197.872 1054.71 197.872C1054.71 197.872 1054.72 197.872 1054.72 197.872C1054.72 197.872 1054.72 197.872 1054.72 197.872C1054.73 197.872 1054.73 197.872 1054.73 197.872C1054.73 197.872 1054.73 197.872 1054.74 197.872C1054.74 197.872 1054.74 197.872 1054.74 197.872C1054.74 197.872 1054.74 197.872 1054.75 197.872C1054.75 197.872 1054.75 197.872 1054.75 197.872C1054.75 197.872 1054.76 197.872 1054.76 197.872C1054.76 197.872 1054.76 197.872 1054.76 197.872C1054.76 197.872 1054.77 197.872 1054.77 197.872C1054.77 197.872 1054.77 197.872 1054.77 197.872C1054.78 197.872 1054.78 197.872 1054.78 197.872C1054.78 197.872 1054.78 197.872 1054.78 197.872C1054.79 197.872 1054.79 197.872 1054.79 197.872C1054.79 197.872 1054.79 197.872 1054.8 197.872C1054.8 197.872 1054.8 197.872 1054.8 197.872C1054.8 197.872 1054.81 197.872 1054.81 197.872C1054.81 197.872 1054.81 197.872 1054.81 197.872C1054.81 197.872 1054.82 197.872 1054.82 197.872C1054.82 197.872 1054.82 197.872 1054.82 197.872C1054.83 197.872 1054.83 197.872 1054.83 197.872C1054.83 197.872 1054.83 197.872 1054.84 197.872C1054.84 197.872 1054.84 197.872 1054.84 197.872C1054.84 197.872 1054.84 197.872 1054.85 197.872C1054.85 197.872 1054.85 197.872 1054.85 197.872C1054.85 197.872 1054.86 197.872 1054.86 197.872C1054.86 197.872 1054.86 197.872 1054.86 197.872C1054.86 197.872 1054.87 197.872 1054.87 197.872C1054.87 197.872 1054.87 197.872 1054.87 197.872C1054.88 197.872 1054.88 197.872 1054.88 197.872C1054.88 197.872 1054.88 197.872 1054.89 197.872C1054.89 197.872 1054.89 197.872 1054.89 197.872C1054.89 197.872 1054.89 197.872 1054.9 197.872C1054.9 197.872 1054.9 197.872 1054.9 197.872C1054.9 197.872 1054.91 197.872 1054.91 197.872C1054.91 197.872 1054.91 197.872 1054.91 197.872C1054.92 197.872 1054.92 197.872 1054.92 197.872C1054.92 197.872 1054.92 197.872 1054.92 197.872C1054.93 197.872 1054.93 197.872 1054.93 197.872C1054.93 197.872 1054.93 197.872 1054.94 197.872C1054.94 197.872 1054.94 197.872 1054.94 197.872C1054.94 197.872 1054.95 197.872 1054.95 197.872C1054.95 197.872 1054.95 197.872 1054.95 197.872C1054.95 197.872 1054.96 197.872 1054.96 197.872C1054.96 197.872 1054.96 197.872 1054.96 197.872C1054.97 197.872 1054.97 197.872 1054.97 197.872C1054.97 197.872 1054.97 197.872 1054.98 197.872C1054.98 197.872 1054.98 197.872 1054.98 197.872C1054.98 197.872 1054.99 197.872 1054.99 197.872C1054.99 197.872 1054.99 197.872 1054.99 197.872C1054.99 197.872 1055 197.872 1055 197.872C1055 197.872 1055 197.872 1055 197.872C1055.01 197.872 1055.01 197.872 1055.01 197.872C1055.01 197.872 1055.01 197.872 1055.02 197.872C1055.02 197.872 1055.02 197.872 1055.02 197.872C1055.02 197.872 1055.02 197.872 1055.03 197.872C1055.03 197.872 1055.03 197.872 1055.03 197.872C1055.03 197.872 1055.04 197.872 1055.04 197.872C1055.04 197.872 1055.04 197.872 1055.04 197.872C1055.05 197.872 1055.05 197.872 1055.05 197.872C1055.05 197.872 1055.05 197.872 1055.06 197.872C1055.06 197.872 1055.06 197.872 1055.06 197.872C1055.06 197.872 1055.06 197.872 1055.07 197.872C1055.07 197.872 1055.07 197.872 1055.07 197.872C1055.07 197.872 1055.08 197.872 1055.08 197.872C1055.08 197.872 1055.08 197.872 1055.08 197.872C1055.09 197.872 1055.09 197.872 1055.09 197.872C1055.09 197.872 1055.09 197.872 1055.1 197.872C1055.1 197.872 1055.1 197.872 1055.1 197.872C1055.1 197.872 1055.1 197.872 1055.11 197.872C1055.11 197.872 1055.11 197.872 1055.11 197.872C1055.11 197.872 1055.12 197.872 1055.12 197.872C1055.12 197.872 1055.12 197.872 1055.12 197.872C1055.13 197.872 1055.13 197.872 1055.13 197.872C1055.13 197.872 1055.13 197.872 1055.14 197.872C1055.14 197.872 1055.14 197.872 1055.14 197.872C1055.14 197.872 1055.14 197.872 1055.15 197.872C1055.15 197.872 1055.15 197.872 1055.15 197.872C1055.15 197.872 1055.16 197.872 1055.16 197.872C1055.16 197.872 1055.16 197.872 1055.16 197.872C1055.17 197.872 1055.17 197.872 1055.17 197.872C1055.17 197.872 1055.17 197.872 1055.18 197.872C1055.18 197.872 1055.18 197.872 1055.18 197.872C1055.18 197.872 1055.19 197.872 1055.19 197.872C1055.19 197.872 1055.19 197.872 1055.19 197.872C1055.19 197.872 1055.2 197.872 1055.2 197.872C1055.2 197.872 1055.2 197.872 1055.2 197.872C1055.21 197.872 1055.21 197.872 1055.21 197.872C1055.21 197.872 1055.21 197.872 1055.22 197.872C1055.22 197.872 1055.22 197.872 1055.22 197.872C1055.22 197.872 1055.23 197.872 1055.23 197.872C1055.23 197.872 1055.23 197.872 1055.23 197.872C1055.24 197.872 1055.24 197.872 1055.24 197.872C1055.24 197.872 1055.24 197.872 1055.24 197.872C1055.25 197.872 1055.25 197.872 1055.25 197.872C1055.25 197.872 1055.25 197.872 1055.26 197.872C1055.26 197.872 1055.26 197.872 1055.26 197.872C1055.26 197.872 1055.27 197.872 1055.27 197.872C1055.27 197.872 1055.27 197.872 1055.27 197.872C1055.28 197.872 1055.28 197.872 1055.28 197.872C1055.28 197.872 1055.28 197.872 1055.29 197.872C1055.29 197.872 1055.29 197.872 1055.29 197.872C1055.29 197.872 1055.3 197.872 1055.3 197.872C1055.3 197.872 1055.3 197.872 1055.3 197.872C1055.31 197.872 1055.31 197.872 1055.31 197.872C1055.31 197.872 1055.31 197.872 1055.31 197.872C1055.32 197.872 1055.32 197.872 1055.32 197.872C1055.32 197.872 1055.32 197.872 1055.33 197.872C1055.33 197.872 1055.33 197.872 1055.33 197.872C1055.33 197.872 1055.34 197.872 1055.34 197.872C1055.34 197.872 1055.34 197.872 1055.34 197.872C1055.35 197.872 1055.35 197.872 1055.35 197.872C1055.35 197.872 1055.35 197.872 1055.36 197.872C1055.36 197.872 1055.36 197.872 1055.36 197.872C1055.36 197.872 1055.37 197.872 1055.37 197.872C1055.37 197.872 1055.37 197.872 1055.37 197.872C1055.38 197.872 1055.38 197.872 1055.38 197.872C1055.38 197.872 1055.38 197.872 1055.38 197.872C1055.39 197.872 1055.39 197.872 1055.39 197.872C1055.39 197.872 1055.39 197.872 1055.4 197.872C1055.4 197.872 1055.4 197.872 1055.4 197.872C1055.4 197.872 1055.41 197.872 1055.41 197.872C1055.41 197.872 1055.41 197.872 1055.41 197.872C1055.42 197.872 1055.42 197.872 1055.42 197.872C1055.42 197.872 1055.42 197.872 1055.43 197.872C1055.43 197.872 1055.43 197.872 1055.43 197.872C1055.43 197.872 1055.44 197.872 1055.44 197.872C1055.44 197.872 1055.44 197.872 1055.44 197.872C1055.45 197.872 1055.45 197.872 1055.45 197.872C1055.45 197.872 1055.45 197.872 1055.46 197.872C1055.46 197.872 1055.46 197.872 1055.46 197.872C1055.46 197.872 1055.47 197.872 1055.47 197.872C1055.47 197.872 1055.47 197.872 1055.47 197.872C1055.48 197.872 1055.48 197.872 1055.48 197.872C1055.48 197.872 1055.48 197.872 1055.49 197.872C1055.49 197.872 1055.49 197.872 1055.49 197.872C1055.49 197.872 1055.49 197.872 1055.5 197.872C1055.5 197.872 1055.5 197.872 1055.5 197.872C1055.5 197.872 1055.51 197.872 1055.51 197.872C1055.51 197.872 1055.51 197.872 1055.51 197.872C1055.52 197.872 1055.52 197.872 1055.52 197.872C1055.52 197.872 1055.52 197.872 1055.53 197.872C1055.53 197.872 1055.53 197.872 1055.53 197.872C1055.53 197.872 1055.54 197.872 1055.54 197.872C1055.54 197.872 1055.54 197.872 1055.54 197.872C1055.55 197.872 1055.55 197.872 1055.55 197.872C1055.55 197.872 1055.55 197.872 1055.56 197.872C1055.56 197.872 1055.56 197.872 1055.56 197.872C1055.56 197.872 1055.57 197.872 1055.57 197.872C1055.57 197.872 1055.57 197.872 1055.57 197.872C1055.58 197.872 1055.58 197.872 1055.58 197.872C1055.58 197.872 1055.58 197.872 1055.59 197.872C1055.59 197.872 1055.59 197.872 1055.59 197.872C1055.59 197.872 1055.6 197.872 1055.6 197.872C1055.6 197.872 1055.6 197.872 1055.6 197.872C1055.61 197.872 1055.61 197.872 1055.61 197.872C1055.61 197.872 1055.61 197.872 1055.62 197.872C1055.62 197.872 1055.62 197.872 1055.62 197.872C1055.62 197.872 1055.63 197.872 1055.63 197.872C1055.63 197.872 1055.63 197.872 1055.63 197.872C1055.64 197.872 1055.64 197.872 1055.64 197.872C1055.64 197.872 1055.64 197.872 1055.65 197.872C1055.65 197.872 1055.65 197.872 1055.65 197.872V191.872ZM1052.96 191.872L1054.86 186.18C1054.09 185.924 1053.33 185.668 1052.56 185.412L1050.66 191.104L1048.76 196.796C1049.53 197.052 1050.3 197.308 1051.07 197.564L1052.96 191.872ZM1050.66 191.104L1052.56 185.412C1046.08 183.254 1039 181.523 1031.33 180.199L1030.31 186.112L1029.29 192.025C1036.46 193.261 1042.95 194.858 1048.76 196.796L1050.66 191.104ZM1030.31 186.112L1031.36 180.205C1023.8 178.854 1015.63 178.192 1006.88 178.192V184.192V190.192C1015.03 190.192 1022.48 190.81 1029.25 192.019L1030.31 186.112ZM1006.88 184.192V178.192C992.2 178.192 979.973 180.841 970.916 186.88L974.244 191.872L977.572 196.864C983.875 192.663 993.408 190.192 1006.88 190.192V184.192ZM974.244 191.872L970.916 186.88C961.954 192.855 956.724 200.962 956.724 211.072H962.724H968.724C968.724 205.822 971.174 201.129 977.572 196.864L974.244 191.872ZM962.724 211.072H956.724C956.724 219.661 960.355 226.688 967.46 231.424L970.788 226.432L974.116 221.44C970.469 219.008 968.724 215.795 968.724 211.072H962.724ZM970.788 226.432L967.567 231.494C973.865 235.502 981.65 238.654 990.757 241.064L992.292 235.264L993.827 229.464C985.526 227.266 978.975 224.53 974.009 221.37L970.788 226.432ZM992.292 235.264L990.955 241.113C999.898 243.157 1009.23 245.33 1018.94 247.63L1020.32 241.792L1021.71 235.954C1011.96 233.646 1002.61 231.467 993.629 229.415L992.292 235.264ZM1020.32 241.792L1018.97 247.638C1028.52 249.841 1037.41 253.014 1045.67 257.143L1048.36 251.776L1051.04 246.409C1041.89 241.834 1032.09 238.351 1021.67 235.946L1020.32 241.792ZM1048.36 251.776L1045.86 257.233C1053.95 260.931 1060.28 266.053 1065 272.575L1069.86 269.056L1074.72 265.537C1068.69 257.211 1060.68 250.813 1050.85 246.319L1048.36 251.776ZM1069.86 269.056L1065.08 272.682C1069.69 278.754 1072.31 287.324 1072.31 299.008H1078.31H1084.31C1084.31 285.604 1081.3 274.206 1074.64 265.43L1069.86 269.056ZM1078.31 299.008H1072.31C1072.31 312.774 1066.87 324.636 1055.48 334.864L1059.49 339.328L1063.5 343.792C1077.2 331.492 1084.31 316.474 1084.31 299.008H1078.31ZM1059.49 339.328L1055.49 334.859C1044.73 344.495 1028 349.84 1004.2 349.84V355.84V361.84C1029.54 361.84 1049.68 356.177 1063.5 343.797L1059.49 339.328ZM1130.33 348.928L1134.57 344.685L1130.33 348.928ZM1130.33 74.752L1126.09 70.5093V70.5093L1130.33 74.752ZM1154.9 74.752L1150.66 78.9946L1150.74 79.0732L1150.82 79.1487L1154.9 74.752ZM1160.28 187.648H1154.28V203.102L1164.71 191.697L1160.28 187.648ZM1189.08 163.456L1192.35 168.484L1192.37 168.475L1192.38 168.466L1189.08 163.456ZM1268.95 162.688L1265.6 167.661L1265.64 167.69L1265.68 167.719L1268.95 162.688ZM1292.38 189.952L1286.94 192.489L1286.95 192.513L1286.96 192.536L1292.38 189.952ZM1295.06 348.928L1290.98 344.531L1290.9 344.607L1290.82 344.685L1295.06 348.928ZM1270.49 348.928L1266.25 353.171V353.171L1270.49 348.928ZM1255.51 197.248L1250.73 200.871L1250.79 200.952L1250.86 201.032L1255.51 197.248ZM1187.16 195.712L1190.68 200.57L1187.16 195.712ZM1160.28 221.44L1155.57 217.722L1154.28 219.357V221.44H1160.28ZM1154.9 348.928L1150.82 344.531L1150.74 344.607L1150.66 344.685L1154.9 348.928ZM1142.62 353.92V347.92C1139.28 347.92 1136.73 346.847 1134.57 344.685L1130.33 348.928L1126.09 353.171C1130.58 357.665 1136.22 359.92 1142.62 359.92V353.92ZM1130.33 348.928L1134.57 344.685C1132.41 342.524 1131.34 339.972 1131.34 336.64H1125.34H1119.34C1119.34 343.036 1121.59 348.676 1126.09 353.171L1130.33 348.928ZM1125.34 336.64H1131.34V87.424H1125.34H1119.34V336.64H1125.34ZM1125.34 87.424H1131.34C1131.34 83.7412 1132.47 81.0929 1134.57 78.9946L1130.33 74.752L1126.09 70.5093C1121.53 75.067 1119.34 80.8668 1119.34 87.424H1125.34ZM1130.33 74.752L1134.57 78.9946C1136.73 76.8332 1139.28 75.76 1142.62 75.76V69.76V63.76C1136.22 63.76 1130.58 66.0147 1126.09 70.5093L1130.33 74.752ZM1142.62 69.76V75.76C1145.95 75.76 1148.5 76.8332 1150.66 78.9946L1154.9 74.752L1159.15 70.5093C1154.65 66.0147 1149.01 63.76 1142.62 63.76V69.76ZM1154.9 74.752L1150.82 79.1487C1153.12 81.2829 1154.28 83.8843 1154.28 87.424H1160.28H1166.28C1166.28 80.7237 1163.86 74.8771 1158.99 70.3552L1154.9 74.752ZM1160.28 87.424H1154.28V187.648H1160.28H1166.28V87.424H1160.28ZM1160.28 187.648L1164.71 191.697C1172.53 183.14 1181.74 175.398 1192.35 168.484L1189.08 163.456L1185.81 158.428C1174.41 165.85 1164.41 174.236 1155.85 183.599L1160.28 187.648ZM1189.08 163.456L1192.38 168.466C1202.43 161.842 1215.41 158.32 1231.7 158.32V152.32V146.32C1213.7 146.32 1198.26 150.222 1185.78 158.446L1189.08 163.456ZM1231.7 152.32V158.32C1245.32 158.32 1256.52 161.532 1265.6 167.661L1268.95 162.688L1272.31 157.715C1260.91 150.02 1247.27 146.32 1231.7 146.32V152.32ZM1268.95 162.688L1265.68 167.719C1274.94 173.737 1282.02 181.943 1286.94 192.489L1292.38 189.952L1297.81 187.415C1291.98 174.921 1283.44 164.951 1272.22 157.657L1268.95 162.688ZM1292.38 189.952L1286.96 192.536C1291.91 202.91 1294.44 214.557 1294.44 227.584H1300.44H1306.44C1306.44 212.963 1303.59 199.522 1297.79 187.368L1292.38 189.952ZM1300.44 227.584H1294.44V336.64H1300.44H1306.44V227.584H1300.44ZM1300.44 336.64H1294.44C1294.44 339.825 1293.35 342.331 1290.98 344.531L1295.06 348.928L1299.15 353.325C1303.95 348.869 1306.44 343.183 1306.44 336.64H1300.44ZM1295.06 348.928L1290.82 344.685C1288.66 346.847 1286.11 347.92 1282.78 347.92V353.92V359.92C1289.17 359.92 1294.81 357.665 1299.31 353.171L1295.06 348.928ZM1282.78 353.92V347.92C1279.44 347.92 1276.89 346.847 1274.73 344.685L1270.49 348.928L1266.25 353.171C1270.74 357.665 1276.38 359.92 1282.78 359.92V353.92ZM1270.49 348.928L1274.73 344.685C1272.57 342.524 1271.5 339.972 1271.5 336.64H1265.5H1259.5C1259.5 343.036 1261.75 348.676 1266.25 353.171L1270.49 348.928ZM1265.5 336.64H1271.5V231.424H1265.5H1259.5V336.64H1265.5ZM1265.5 231.424H1271.5C1271.5 215.976 1267.97 203.071 1260.17 193.464L1255.51 197.248L1250.86 201.032C1256.36 207.809 1259.5 217.688 1259.5 231.424H1265.5ZM1255.51 197.248L1260.29 193.625C1252.33 183.116 1239.4 178.576 1223.26 178.576V184.576V190.576C1237.32 190.576 1245.89 194.484 1250.73 200.871L1255.51 197.248ZM1223.26 184.576V178.576C1208.29 178.576 1195 182.618 1183.64 190.854L1187.16 195.712L1190.68 200.57C1199.8 193.958 1210.57 190.576 1223.26 190.576V184.576ZM1187.16 195.712L1183.64 190.854C1172.96 198.595 1163.6 207.553 1155.57 217.722L1160.28 221.44L1164.99 225.158C1172.32 215.871 1180.88 207.677 1190.68 200.57L1187.16 195.712ZM1160.28 221.44H1154.28V336.64H1160.28H1166.28V221.44H1160.28ZM1160.28 336.64H1154.28C1154.28 339.825 1153.19 342.331 1150.82 344.531L1154.9 348.928L1158.99 353.325C1163.79 348.869 1166.28 343.183 1166.28 336.64H1160.28ZM1154.9 348.928L1150.66 344.685C1148.5 346.847 1145.95 347.92 1142.62 347.92V353.92V359.92C1149.01 359.92 1154.65 357.665 1159.15 353.171L1154.9 348.928Z" fill="#282828" mask="url(#path-2-outside-1_6_342)"/>
</svg>
